<?xml version="1.0" standalone="no"?>
<!DOCTYPE svg PUBLIC "-//W3C//DTD SVG 1.1//EN" "http://www.w3.org/Graphics/SVG/1.1/DTD/svg11.dtd" >
<svg>
<metadata>
Created by FontForge 20090622 at Sun Jun 28 13:44:33 2015
 By deploy user
Copyright &#194;&#169; 2011 Hyundai Motor Company and YoonDesign Inc. All rights reserved.
</metadata>
<defs>
<font id="ModernH-Medium" horiz-adv-x="920" >
  <font-face 
    font-family="Modern H Medium"
    font-weight="400"
    font-stretch="normal"
    units-per-em="1000"
    panose-1="2 11 6 3 0 0 0 2 0 4"
    ascent="800"
    descent="-200"
    x-height="520"
    cap-height="716"
    bbox="-71 -306 1219 1028"
    underline-thickness="50"
    underline-position="-50"
    unicode-range="U+000D-U+FFE6"
  />
<missing-glyph 
d="M110 -90v781h700v-781h-700zM159 -42h602v683h-602v-683z" />
    <glyph glyph-name=".notdef" 
d="M110 -90v781h700v-781h-700zM159 -42h602v683h-602v-683z" />
    <glyph glyph-name="glyph1" horiz-adv-x="0" 
 />
    <glyph glyph-name="glyph1" horiz-adv-x="0" 
 />
    <glyph glyph-name="uni000D" unicode="&#xd;" horiz-adv-x="300" 
 />
    <glyph glyph-name="space" unicode=" " horiz-adv-x="300" 
 />
    <glyph glyph-name="exclam" unicode="!" horiz-adv-x="330" 
d="M123 202l-17 538h118l-18 -538h-83zM218 -30h-109v114h109v-114z" />
    <glyph glyph-name="quotedbl" unicode="&#x22;" horiz-adv-x="440" 
d="M175 751q-3 -72 -7 -135.5t-7 -135.5h-32q-22 0 -32.5 13t-11.5 30q-4 60 -7 114t-6 114h103zM354 751q-3 -72 -7 -135.5t-7 -135.5h-31q-23 0 -33.5 13t-11.5 30q-3 60 -6 114t-6 114h102z" />
    <glyph glyph-name="numbersign" unicode="#" horiz-adv-x="697" 
d="M28 256h124l32 195h-102v78h114l33 201h98l-33 -201h166l33 201h98l-33 -201h110v-43q0 -20 -9 -27.5t-29 -7.5h-85l-31 -195h100v-43q0 -20 -9 -27.5t-29 -7.5h-75l-29 -181q-3 -20 -14 -30.5t-28 -10.5h-62l36 222h-167l-29 -181q-3 -20 -14 -30.5t-28 -10.5h-62
l36 222h-112v78zM250 256h166l32 195h-167z" />
    <glyph glyph-name="dollar" unicode="$" horiz-adv-x="530" 
d="M314 760v-74h148v-33q0 -16 -3.5 -25t-11 -13.5t-19 -6t-26.5 -1.5h-88v-237l32 -15q42 -20 70.5 -39.5t45 -40.5t23.5 -45.5t7 -54.5q0 -45 -14.5 -75.5t-39.5 -51t-57 -31t-67 -14.5v-76h-57q-23 0 -31.5 10t-8.5 33v30h-177v33q0 23 13 34t48 11h116v243l-45 20
q-67 29 -98.5 75t-31.5 103q0 71 42 113.5t133 50.5v77h97zM395 174q0 14 -3 27.5t-11.5 26t-24.5 25t-42 25.5v-195q43 9 62 32t19 59zM140 519q0 -40 19 -62t58 -42v188q-32 -5 -54.5 -24t-22.5 -60z" />
    <glyph glyph-name="percent" unicode="%" horiz-adv-x="849" 
d="M578 148q0 -19 2.5 -35.5t10 -29t21 -19.5t34.5 -7t34 7t20.5 19.5t10 29t2.5 35.5t-2.5 35.5t-10 29t-20.5 20t-34 7.5t-34.5 -7.5t-21 -20t-10 -29t-2.5 -35.5zM481 148q0 81 42 125.5t123 44.5q78 0 121.5 -44.5t43.5 -125.5t-43 -125t-122 -44q-81 0 -123 43.5
t-42 125.5zM648 716l-331 -715q-9 -20 -20.5 -26t-31.5 -6h-65l345 747h103zM132 535q0 -19 2.5 -35.5t10 -29t21 -19.5t34.5 -7t34 7t20.5 19.5t10 29t2.5 35.5t-2.5 35.5t-10 29t-20.5 20t-34 7.5t-34.5 -7.5t-21 -20t-10 -29t-2.5 -35.5zM35 535q0 81 42 125.5t123 44.5
q78 0 121.5 -44.5t43.5 -125.5q0 -78 -43 -123.5t-122 -45.5q-81 0 -123 43.5t-42 125.5z" />
    <glyph glyph-name="ampersand" unicode="&#x26;" horiz-adv-x="703" 
d="M356 478q24 17 36 41.5t12 49.5q0 38 -27 60t-75 22q-100 0 -103 -78q-1 -24 10.5 -44t21.5 -32l55 -67zM267 317l-66 -47q-36 -27 -51 -53.5t-15 -63.5q0 -57 43 -87.5t109 -30.5q50 0 95 16.5t74 45.5zM570 -30l-56 61q-42 -35 -95 -55t-132 -20q-68 0 -115.5 16.5
t-77.5 44t-43.5 63.5t-13.5 74q0 36 10 64t26 50.5t35.5 39t37.5 29.5l65 45l-45 54q-12 14 -23.5 29t-20.5 31.5t-15 35t-6 40.5q0 33 12 62t36.5 50.5t62.5 33.5t90 12q42 0 78.5 -12t63.5 -33t42.5 -50.5t15.5 -65.5q0 -43 -21.5 -81t-59.5 -66l-81 -58l165 -190
q7 13 12 30t8 35.5t4.5 36.5t1.5 33l88 -10q-2 -58 -15.5 -108.5t-36.5 -86.5l117 -134h-114z" />
    <glyph glyph-name="quotesingle" unicode="'" horiz-adv-x="288" 
d="M196 751q-3 -72 -7 -135.5t-7 -135.5h-30q-23 0 -33.5 13t-11.5 30q-3 60 -6 114t-7 114h102z" />
    <glyph glyph-name="parenleft" unicode="(" horiz-adv-x="380" 
d="M188 198q4 -29 13.5 -58.5t24.5 -56.5t35.5 -49t45.5 -37l-51 -58q-36 17 -64 44.5t-49 61.5t-33.5 72.5t-16.5 79.5q-5 34 -6.5 73.5t-1.5 81.5t1.5 81.5t6.5 73.5q11 85 48 147.5t115 108.5l51 -55q-51 -30 -80.5 -83t-38.5 -119q-5 -32 -6.5 -72.5t-1.5 -81.5
q0 -42 1.5 -81.5t6.5 -72.5z" />
    <glyph glyph-name="parenright" unicode=")" horiz-adv-x="384" 
d="M193 504q-4 29 -13.5 58.5t-24.5 56.5t-35.5 49t-45.5 37l51 58q36 -17 64 -44.5t49 -61.5t33.5 -73t16.5 -79q5 -34 6.5 -73.5t1.5 -81.5t-1.5 -81.5t-6.5 -73.5q-11 -85 -48 -147.5t-115 -108.5l-51 55q51 30 80.5 83t38.5 119q5 32 6.5 72.5t1.5 81.5q0 42 -1.5 81.5
t-6.5 72.5z" />
    <glyph glyph-name="asterisk" unicode="*" horiz-adv-x="572" 
d="M330 457l15 -162h-101l15 160l-139 -91l-57 87l163 65l-161 78l54 88l139 -104l-15 173h99l-12 -165l139 98l49 -90l-156 -71l156 -72l-50 -88z" />
    <glyph glyph-name="plus" unicode="+" horiz-adv-x="600" 
d="M349 380h197v-79h-197v-201h-99v201h-195v79h195v198h99v-198z" />
    <glyph glyph-name="comma" unicode="," horiz-adv-x="256" 
d="M66 -30v114h123v-114q0 -52 -24 -90.5t-69 -56.5q-8 11 -14.5 19t-12.5 17q26 14 40 34.5t14 48.5v28h-57z" />
    <glyph glyph-name="hyphen" unicode="-" horiz-adv-x="553" 
d="M66 380h422v-79h-422v79z" />
    <glyph glyph-name="period" unicode="." horiz-adv-x="256" 
d="M182 -30h-109v114h109v-114z" />
    <glyph glyph-name="slash" unicode="/" horiz-adv-x="490" 
d="M440 751l-285 -803h-98l284 803h99z" />
    <glyph glyph-name="zero" unicode="0" horiz-adv-x="520" 
d="M259 35q47 0 73.5 21.5t39 62t15.5 98t3 128.5q0 69 -3 125.5t-15.5 96.5t-39 62t-73.5 22q-44 0 -70 -21.5t-39 -61.5t-16.5 -96.5t-3.5 -126.5q0 -71 3.5 -128.5t17 -98t39 -62t69.5 -21.5zM259 730q72 0 117 -24.5t70 -72.5t33.5 -120t8.5 -168q0 -104 -11 -178
t-37 -121t-70.5 -68.5t-110.5 -21.5q-68 0 -112 24t-69.5 72.5t-35.5 121.5t-10 171q0 93 9 165t34 120.5t69 74t115 25.5z" />
    <glyph glyph-name="one" unicode="1" horiz-adv-x="520" 
d="M335 -30h-46q-28 0 -40 14t-12 44v609h-121v79h180q39 0 39 -37v-709z" />
    <glyph glyph-name="two" unicode="2" horiz-adv-x="520" 
d="M112 -30q-36 0 -52 12t-16 49v92q0 43 17.5 75t49.5 55l193 136q45 32 57 67t12 70q0 54 -37 89.5t-110 35.5q-39 0 -79.5 -7t-88.5 -21v80q36 12 81 19.5t87 7.5q119 0 182.5 -52t62.5 -152q-1 -66 -26 -112.5t-81 -86.5l-188 -133q-21 -15 -27.5 -34.5t-6.5 -42.5v-68
h334v-30q0 -21 -11 -35t-43 -14h-310z" />
    <glyph glyph-name="three" unicode="3" horiz-adv-x="520" 
d="M226 730q45 0 88 -10t76 -33t52 -59.5t18 -88.5q-1 -62 -24 -108t-70 -69q30 -9 51.5 -27t35 -41.5t19.5 -51.5t6 -56q0 -63 -19.5 -107.5t-55 -72t-85.5 -39.5t-108 -11q-23 0 -40.5 1t-35.5 2.5t-39 4.5t-50 8v34q0 21 13 31.5t39 6.5q29 -4 54 -5.5t60 -1.5
q36 0 67.5 6t54 22t35 44t12.5 71q0 40 -9 66t-27.5 42t-46.5 22.5t-62 7.5h-111q-17 0 -23.5 5.5t-6.5 21.5v52h141q34 0 59 8t40 25.5t21.5 45t6.5 65.5q0 61 -42.5 86.5t-94.5 23.5q-26 0 -40.5 -1.5t-37.5 -4.5t-41.5 -7t-40.5 -8v78q41 11 82 16.5t79 5.5z" />
    <glyph glyph-name="four" unicode="4" horiz-adv-x="520" 
d="M440 106v-136h-45q-27 0 -38 14t-11 44v78h-330v81l262 484q11 22 26.5 33.5t47.5 11.5h88v-532h64v-37q0 -23 -11 -32t-31 -9h-22zM108 184h238v438z" />
    <glyph glyph-name="five" unicode="5" horiz-adv-x="520" 
d="M62 342v374h390v-38q0 -25 -13 -33t-33 -8h-246v-216h84q64 0 107.5 -15.5t69.5 -43.5t37 -68.5t11 -89.5q0 -122 -62.5 -185t-187.5 -63q-32 0 -75.5 4t-90.5 12v35q0 14 6 21.5t14.5 11t17.5 4t16 -0.5q30 -3 53 -5t52 -3q81 -2 120 42t39 127q0 25 -4.5 50t-19 44.5
t-40.5 31.5t-69 12h-176z" />
    <glyph glyph-name="six" unicode="6" horiz-adv-x="520" 
d="M446 666q0 -13 -3.5 -20t-9.5 -11t-13.5 -4.5t-14.5 -0.5q-31 2 -58 3.5t-53 1.5q-57 0 -89.5 -19.5t-48 -48t-19 -60.5t-3.5 -56v-53q20 20 52.5 34t81.5 14q107 0 159 -52.5t52 -145.5v-90q0 -100 -56.5 -150t-160.5 -52q-105 -2 -163.5 49.5t-58.5 152.5v282
q0 60 13 110.5t42.5 87t78 57t119.5 20.5q40 0 76 -1.5t77 -6.5v-41zM384 235q0 73 -30.5 101t-87.5 28q-64 0 -98 -28t-34 -97v-69q0 -71 29 -101.5t99 -30.5q60 0 91 32t31 101v64z" />
    <glyph glyph-name="seven" unicode="7" horiz-adv-x="520" 
d="M478 646q0 -14 -3.5 -26t-8.5 -26l-223 -591q-5 -13 -15 -23t-30 -10h-63l252 667h-344v79h400q14 0 24.5 -6t10.5 -24v-40z" />
    <glyph glyph-name="eight" unicode="8" horiz-adv-x="520" 
d="M258 402q63 0 95.5 30t32.5 96q0 67 -35 95t-91 28q-60 0 -92.5 -29.5t-32.5 -93.5q0 -66 31.5 -96t91.5 -30zM259 329q-77 0 -109 -39.5t-32 -110.5q0 -68 37 -106t106 -38q39 0 67 12.5t44.5 32.5t23.5 45.5t7 51.5q0 36 -6.5 64.5t-23.5 48t-45.5 29.5t-68.5 10z
M261 -44q-52 0 -97 12.5t-77 39t-49.5 66.5t-17.5 95q0 72 23 123t73 79q-45 28 -62 66.5t-17 89.5q0 55 17 93.5t47 63t71.5 35.5t86.5 11q46 0 87.5 -11.5t72 -36t48 -62.5t17.5 -92q0 -51 -19.5 -95t-61.5 -64q58 -26 78 -76.5t20 -117.5q0 -49 -14 -89.5t-43.5 -69
t-75.5 -44.5t-107 -16z" />
    <glyph glyph-name="nine" unicode="9" horiz-adv-x="520" 
d="M73 19q0 25 13 31t28 5q31 -2 58 -3.5t53 -1.5q57 0 89.5 19.5t48 48t19 60.5t3.5 56v53q-20 -20 -52.5 -34t-81.5 -14q-107 0 -159 52.5t-52 145.5v91q0 100 56.5 150t160.5 52q105 2 163.5 -49.5t58.5 -152.5v-283q0 -60 -13 -110.5t-42.5 -87t-78 -57t-119.5 -20.5
q-40 0 -76 1.5t-77 6.5v41zM135 450q0 -73 30.5 -101t87.5 -28q64 0 98 28t34 97v70q0 71 -29 101.5t-99 30.5q-60 0 -91 -32t-31 -101v-65z" />
    <glyph glyph-name="colon" unicode=":" horiz-adv-x="256" 
d="M182 90h-109v114h109v-114zM182 484h-109v114h109v-114z" />
    <glyph glyph-name="semicolon" unicode=";" horiz-adv-x="256" 
d="M186 204l-45 -127.5l-45 -127.5h-30q-14 0 -20 11t-1 37l17.5 103.5l17.5 103.5h106zM182 484h-109v114h109v-114z" />
    <glyph glyph-name="less" unicode="&#x3c;" horiz-adv-x="495" 
d="M349 20l-144 161l-144 160l144 159l144 158q18 -14 34.5 -29t34.5 -29l-237 -259l118 -130l118 -130z" />
    <glyph glyph-name="equal" unicode="=" horiz-adv-x="580" 
d="M79 281h422v-79h-422v79zM79 505h422v-79h-422v79z" />
    <glyph glyph-name="greater" unicode="&#x3e;" horiz-adv-x="476" 
d="M91 81l236 260l-118.5 130l-118.5 130q20 14 35 28.5t35 28.5l143 -159l143 -158l-143 -160.5l-143 -159.5z" />
    <glyph glyph-name="question" unicode="?" horiz-adv-x="538" 
d="M183 179v58q0 45 8 74t34 46l91 62q46 31 60.5 62.5t14.5 68.5q0 54 -38 82.5t-110 28.5q-49 0 -95.5 -7t-99.5 -23l-5 78q57 18 103.5 24.5t94.5 6.5q55 0 100.5 -12.5t78.5 -36.5t51 -58.5t18 -78.5q0 -61 -23 -104t-71 -78l-86 -61q-20 -15 -24 -32t-4 -45v-55h-98z
M286 -30h-109v114h109v-114z" />
    <glyph glyph-name="at" unicode="@" horiz-adv-x="916" 
d="M476 763q101 0 176.5 -27.5t125.5 -77t75 -118t25 -151.5q0 -57 -17.5 -108t-50 -89.5t-78 -60.5t-100.5 -22h-208q-73 0 -117 36t-44 94v50q0 68 44 101t122 31q20 0 35 -0.5t28.5 -1t26.5 -2t29 -2.5v38q0 26 -12.5 40t-50.5 14h-138q-29 0 -38 9.5t-9 30.5v39h199
q82 0 114.5 -38.5t32.5 -104.5v-250q30 0 54.5 18t42 46t27 62.5t9.5 68.5q0 64 -16.5 118.5t-53 94t-94.5 61.5t-142 22q-86 0 -149.5 -26.5t-105.5 -72.5t-63 -108t-21 -133q0 -72 18.5 -132t59 -103.5t104 -67.5t153.5 -24q40 0 87.5 8t96.5 23l18 -48q5 -13 0.5 -20.5
t-14.5 -10.5q-45 -14 -98 -22.5t-105 -8.5q-105 0 -183.5 30t-130.5 84t-78 129t-26 165q0 91 28 167.5t83 132t137.5 86.5t191.5 31zM443 343q-41 0 -61 -11.5t-20 -45.5v-39q0 -33 19.5 -46t61.5 -13h105v149q-32 4 -52.5 5t-52.5 1z" />
    <glyph glyph-name="A" unicode="A" horiz-adv-x="656" 
d="M453 235q-9 -18 -32.5 -32t-57.5 -14h-175l-70 -219h-101l250 746h85q17 0 30 -10.5t18 -25.5l240 -710h-100zM214 270h228l-114 352z" />
    <glyph glyph-name="B" unicode="B" horiz-adv-x="636" 
d="M362 716q51 0 88.5 -13t61.5 -36.5t36 -55t12 -68.5v-45q0 -42 -16 -78t-53 -62q46 -20 68 -58.5t22 -81.5v-65q0 -49 -19 -84t-49.5 -57t-70 -32t-80.5 -10h-289v746h289zM170 637v-242h193q30 0 49.5 9.5t30.5 24.5t15.5 33.5t4.5 36.5v39q0 41 -25 70t-75 29h-193z
M170 316v-267h191q31 0 54 8.5t38 23.5t22.5 35t7.5 42v47q0 22 -6.5 42.5t-21 35.5t-37.5 24t-56 9h-192z" />
    <glyph glyph-name="C" unicode="C" horiz-adv-x="573" 
d="M537 20q0 -20 -12 -35t-54 -15h-210q-44 0 -80.5 13.5t-63 39t-41.5 60.5t-15 79v365q0 88 58.5 138.5t164.5 50.5h243v-28q0 -21 -11.5 -36t-53.5 -15h-175q-128 0 -128 -123v-345q0 -24 6.5 -45.5t20 -38t33 -26.5t46.5 -10h272v-29z" />
    <glyph glyph-name="D" unicode="D" horiz-adv-x="657" 
d="M353 716q62 0 107.5 -16.5t75 -45t44 -67.5t14.5 -83v-327q0 -44 -14.5 -82t-44 -66t-75 -43.5t-107.5 -15.5h-279v746h279zM171 637v-588h182q34 0 60.5 10t45 27t28.5 40.5t10 50.5v327q0 61 -39 97t-105 36h-182z" />
    <glyph glyph-name="E" unicode="E" horiz-adv-x="592" 
d="M74 -30v746h462v-25q0 -25 -10 -39.5t-45 -14.5h-309v-232h332v-28q0 -21 -10 -36t-44 -15h-278v-277h376v-28q0 -21 -10 -36t-44 -15h-420z" />
    <glyph glyph-name="F" unicode="F" horiz-adv-x="571" 
d="M172 326v-356h-44q-29 0 -41.5 12.5t-12.5 43.5v690h474v-27q0 -22 -11.5 -37t-47.5 -15h-317v-232h343v-28q0 -22 -12.5 -36.5t-47.5 -14.5h-283z" />
    <glyph glyph-name="G" unicode="G" horiz-adv-x="664" 
d="M582 716v-26q0 -28 -13.5 -40.5t-48.5 -12.5h-239q-50 0 -83 -30t-33 -84v-358q0 -48 29 -82t87 -34h122q49 0 73.5 31.5t24.5 75.5v134q0 13 -5 16.5t-14 3.5h-98q-31 0 -45 9t-14 36v34h199q42 0 58.5 -19.5t16.5 -57.5v-156q0 -47 -14.5 -82t-40 -58t-61.5 -34.5
t-79 -11.5h-123q-47 0 -86 12t-67.5 36.5t-44.5 61.5t-16 86v357q0 46 16.5 82t45.5 61t68 37.5t84 12.5h301z" />
    <glyph glyph-name="H" unicode="H" horiz-adv-x="672" 
d="M595 716v-746h-43q-29 0 -42 12.5t-13 41.5v346q-28 -44 -88 -44h-237v-356h-44q-29 0 -41.5 12.5t-12.5 41.5v692h98v-311h325v311h98z" />
    <glyph glyph-name="I" unicode="I" horiz-adv-x="263" 
d="M183 716v-746h-45q-29 0 -41.5 12.5t-12.5 41.5v692h99z" />
    <glyph glyph-name="J" unicode="J" horiz-adv-x="413" 
d="M134 49q54 0 79.5 24t25.5 86v557h99v-557q0 -97 -49 -143t-155 -46h-121v31q0 27 13 37.5t45 10.5h63z" />
    <glyph glyph-name="K" unicode="K" horiz-adv-x="619" 
d="M206 355l276 361h119l-276 -360l290 -386h-80q-18 0 -33.5 7t-24.5 19zM172 716v-746h-45q-28 0 -40.5 13t-12.5 42v691h98z" />
    <glyph glyph-name="L" unicode="L" horiz-adv-x="538" 
d="M172 49h348v-28q0 -27 -11 -39t-41 -12h-394v746h98v-667z" />
    <glyph glyph-name="M" unicode="M" horiz-adv-x="883" 
d="M804 -30h-44q-29 0 -41.5 12t-12.5 41v507l-188 -339q-11 -20 -30 -36t-48 -16t-47.5 16t-29.5 35l-188 340v-560h-44q-26 0 -40 12.5t-14 35.5v698h102l249 -463q12 -24 25 0l249 463h102v-746z" />
    <glyph glyph-name="N" unicode="N" horiz-adv-x="669" 
d="M74 716h309q52 0 92 -8.5t66 -30.5t39.5 -60t13.5 -96v-551h-43q-29 0 -42 12.5t-13 41.5v498q0 33 -6 55.5t-19 35.5t-35 18.5t-53 5.5h-211v-667h-44q-29 0 -41.5 12.5t-12.5 41.5v692z" />
    <glyph glyph-name="O" unicode="O" horiz-adv-x="695" 
d="M346 730q148 0 218 -83t70 -234v-141q0 -151 -70 -233.5t-218 -82.5q-147 0 -217 82.5t-70 234.5v140q0 152 70 234.5t217 82.5zM536 414q0 51 -12 98.5t-35.5 78t-59 43t-83.5 12.5q-47 0 -82.5 -12.5t-59 -43t-35.5 -78.5t-12 -99v-141q0 -231 189 -232q190 0 190 233
v141z" />
    <glyph glyph-name="P" unicode="P" horiz-adv-x="617" 
d="M171 250v-280h-43q-29 0 -42 12.5t-13 41.5v692h272q51 0 90.5 -10t67.5 -32t42.5 -57t14.5 -85v-97q0 -26 -5.5 -58.5t-27.5 -60.5t-64.5 -47t-117.5 -19h-174zM171 635v-304h174q61 0 89 26t28 78v97q0 48 -26 75.5t-91 27.5h-174z" />
    <glyph glyph-name="Q" unicode="Q" horiz-adv-x="696" 
d="M347 730q148 0 218 -83t70 -234v-141q0 -86 -22.5 -150t-68.5 -104l102 -133h-64q-26 0 -40.5 8t-24.5 20l-50 62q-26 -9 -55.5 -14t-64.5 -5q-147 0 -217 82.5t-70 234.5v140q0 152 70 234.5t217 82.5zM537 414q0 49 -7 91.5t-30.5 74t-59 49t-93.5 17.5
q-57 0 -92.5 -17.5t-59 -49t-30.5 -74t-7 -92.5v-141q0 -124 42.5 -178t146.5 -54q106 0 148 54t42 179v141z" />
    <glyph glyph-name="R" unicode="R" horiz-adv-x="630" 
d="M171 293v-323h-45q-28 0 -40.5 12.5t-12.5 41.5v692h294q53 0 92 -13.5t64.5 -36.5t38 -54t12.5 -67v-75q0 -27 -6.5 -52.5t-21.5 -47t-39.5 -39t-59.5 -27.5l155 -334h-106l-148 323h-177zM171 635v-261h196q109 0 109 105v56q0 47 -26.5 73.5t-82.5 26.5h-196z" />
    <glyph glyph-name="S" unicode="S" horiz-adv-x="569" 
d="M40 -30v31q0 25 12.5 36.5t46.5 11.5h173q75 0 114 28t39 83q0 39 -25.5 68t-88.5 58l-129 58q-72 32 -103 79.5t-31 110.5q0 81 56 131.5t176 50.5h219v-33q0 -29 -14.5 -37.5t-46.5 -8.5h-158q-26 0 -50 -5t-42.5 -16.5t-29.5 -31.5t-11 -50q0 -44 23.5 -69.5
t71.5 -48.5l123 -56q46 -21 76.5 -42.5t49 -45t26 -51t7.5 -60.5q0 -57 -22.5 -94t-58 -58.5t-80 -30t-88.5 -8.5h-235z" />
    <glyph glyph-name="T" unicode="T" horiz-adv-x="596" 
d="M250 637h-232v79h563v-27q0 -28 -10 -40t-47 -12h-176v-667h-44q-28 0 -41 12.5t-13 41.5v613z" />
    <glyph glyph-name="U" unicode="U" horiz-adv-x="676" 
d="M595 -30h-309q-52 0 -92 8.5t-66 30.5t-39.5 59.5t-13.5 96.5v551h98v-552q0 -33 6 -55.5t19 -35.5t35 -18.5t53 -5.5h211v667h98v-746z" />
    <glyph glyph-name="V" unicode="V" horiz-adv-x="645" 
d="M322 62l208 654h102l-249 -746h-79q-23 0 -35.5 9.5t-18.5 27.5l-237 709h101z" />
    <glyph glyph-name="W" unicode="W" horiz-adv-x="908" 
d="M900 716l-87.5 -373l-87.5 -373h-69q-58 0 -74 65l-125 468l-70.5 -260l-71.5 -273h-64q-36 0 -52.5 15.5t-24.5 47.5l-80 342l-80 341h98l143 -640l77.5 287l74.5 288h100l152 -575l143 640h98z" />
    <glyph glyph-name="X" unicode="X" horiz-adv-x="651" 
d="M18 -30l250 374l-246 372h108l192 -288l192 288h110l-245 -372l249 -374h-112l-194 288l-192 -288h-112z" />
    <glyph glyph-name="Y" unicode="Y" horiz-adv-x="664" 
d="M377 -30h-43q-29 0 -42 12t-13 42v242l-263 450h106l208 -360l209 360h107l-269 -450v-296z" />
    <glyph glyph-name="Z" unicode="Z" horiz-adv-x="618" 
d="M563 716v-80l-423 -587h440v-50q0 -17 -8.5 -23t-24.5 -6h-514v84l421 583h-409v79h518z" />
    <glyph glyph-name="bracketleft" unicode="[" horiz-adv-x="440" 
d="M367 -76h-234v866h234v-79h-136v-708h136v-79z" />
    <glyph glyph-name="backslash" unicode="\" horiz-adv-x="519" 
d="M159 751l285 -803h-99l-285 803h99z" />
    <glyph glyph-name="bracketright" unicode="]" horiz-adv-x="440" 
d="M79 3h135v708h-135v79h233v-866h-233v79z" />
    <glyph glyph-name="asciicircum" unicode="^" horiz-adv-x="606" 
d="M257 816h95l163 -237h-106l-105 160l-103 -160h-108z" />
    <glyph glyph-name="underscore" unicode="_" horiz-adv-x="607" 
d="M103 -49h405v-79h-405v79z" />
    <glyph glyph-name="grave" unicode="`" horiz-adv-x="316" 
d="M157 836l52.5 -125t52.5 -124l-28 -13q-20 -10 -35 -3t-24 23l-113 197z" />
    <glyph glyph-name="a" unicode="a" horiz-adv-x="537" 
d="M472 -30h-236q-84 0 -132.5 37t-48.5 109v62q0 85 48.5 122t132.5 35q41 -1 72 -3t66 -7v45q0 33 -19.5 52t-60.5 19h-135q-41 0 -52.5 13.5t-11.5 33.5v32h199q93 0 135.5 -38t42.5 -112v-400zM237 252q-44 0 -64 -17.5t-20 -60.5v-53q0 -22 8 -36t20.5 -22t27 -11
t28.5 -3h137v193q-39 5 -73 7.5t-64 2.5z" />
    <glyph glyph-name="b" unicode="b" horiz-adv-x="549" 
d="M173 721v-201h112q100 0 152.5 -44t52.5 -132v-198q0 -89 -52.5 -132.5t-152.5 -43.5h-210v751h98zM173 49h112q48 0 77.5 26.5t29.5 80.5v178q0 55 -29 81t-77 26h-113v-392z" />
    <glyph glyph-name="c" unicode="c" horiz-adv-x="498" 
d="M457 49v-29q0 -10 -2 -19t-9 -16t-19.5 -11t-33.5 -4h-127q-45 0 -82.5 13t-64.5 37t-42 58t-15 76v180q0 42 15 76.5t42 59t64.5 37.5t82.5 13h187v-27q0 -11 -2 -20t-8 -16.5t-18 -11.5t-33 -4h-126q-51 0 -78.5 -27t-27.5 -80v-179q0 -48 27.5 -77t78.5 -29h191z" />
    <glyph glyph-name="d" unicode="d" horiz-adv-x="546" 
d="M473 721v-751h-210q-100 0 -152.5 43.5t-52.5 132.5v198q0 88 52.5 132t152.5 44h112v201h98zM375 441h-113q-48 0 -77 -26t-29 -81v-178q0 -54 29.5 -80.5t77.5 -26.5h112v392z" />
    <glyph glyph-name="e" unicode="e" horiz-adv-x="543" 
d="M467 49v-32q0 -21 -10.5 -34t-52.5 -13h-158q-43 0 -78.5 12.5t-60.5 35t-38.5 55t-13.5 73.5v191q0 53 17 90.5t46.5 61t68 34.5t82.5 11q47 0 87 -11.5t69 -34t45.5 -55.5t16.5 -76v-80q0 -35 -17.5 -53.5t-59.5 -18.5h-257v-59q0 -47 27.5 -72t65.5 -25h221zM153 284
h218q11 0 14.5 4t3.5 16v53q0 45 -30.5 71.5t-89.5 26.5q-54 0 -85 -26.5t-31 -71.5v-73z" />
    <glyph glyph-name="f" unicode="f" horiz-adv-x="429" 
d="M380 520v-36q0 -12 -5.5 -20t-14.5 -13t-19.5 -7.5t-20.5 -2.5h-88v-471h-44q-29 0 -41.5 12.5t-12.5 42.5v416h-106v79h106v65q0 31 6 56t21.5 43t42.5 27.5t69 9.5h128v-25q0 -54 -65 -54h-63q-14 0 -22 -4.5t-12 -12t-5.5 -16.5t-1.5 -17v-72h148z" />
    <glyph glyph-name="g" unicode="g" horiz-adv-x="555" 
d="M318 -160q35 0 52 19t17 50v61h-131q-92 0 -144 45t-52 131v199q0 87 53.5 131t142.5 44h229v-613q0 -27 -8 -53t-26.5 -47t-50 -33.5t-79.5 -12.5h-213v32q0 47 59 47h151zM158 145q0 -30 9.5 -49t24 -29.5t32 -14t32.5 -3.5h131v392h-131q-51 0 -74.5 -27.5
t-23.5 -69.5v-199z" />
    <glyph glyph-name="h" unicode="h" horiz-adv-x="568" 
d="M172 441v-471h-44q-29 0 -41.5 12.5t-12.5 42.5v696h98v-201h146q94 0 139 -41t45 -124v-385h-43q-29 0 -42 12.5t-13 42.5v329q0 47 -23 67t-63 20h-146z" />
    <glyph glyph-name="i" unicode="i" horiz-adv-x="249" 
d="M172 520v-550h-43q-29 0 -42 12.5t-13 42.5v495h98zM72 721h102v-125h-34q-28 0 -48 16t-20 45v64z" />
    <glyph glyph-name="j" unicode="j" horiz-adv-x="315" 
d="M140 721h102v-125h-35q-28 0 -47.5 16t-19.5 45v64zM142 520h98v-601q0 -83 -37.5 -120.5t-116.5 -37.5h-97v31q0 24 15 36.5t39 12.5h43q37 0 46.5 20.5t9.5 57.5v601z" />
    <glyph glyph-name="k" unicode="k" horiz-adv-x="539" 
d="M75 721h98v-751h-43q-29 0 -42 12.5t-13 42.5v696zM406 520h113l-214 -255l226 -295h-80q-13 0 -25 5.5t-20 16.5l-211 274z" />
    <glyph glyph-name="l" unicode="l" horiz-adv-x="251" 
d="M171 721v-751h-44q-28 0 -41 12.5t-13 42.5v696h98z" />
    <glyph glyph-name="m" unicode="m" horiz-adv-x="771" 
d="M434 441v-471h-43q-29 0 -42 12.5t-13 42.5v416h-169v-471h-44q-29 0 -41.5 12.5t-12.5 42.5v495h461q90 0 130.5 -37t40.5 -118v-395h-45q-28 0 -40.5 12.5t-12.5 42.5v340q0 76 -73 76h-96z" />
    <glyph glyph-name="n" unicode="n" horiz-adv-x="565" 
d="M309 520q52 0 87.5 -9t57.5 -29.5t31.5 -53.5t9.5 -81v-377h-44q-29 0 -42 12.5t-13 42.5v322q0 28 -4.5 46t-14.5 28.5t-27 15t-41 4.5h-141v-471h-42q-29 0 -42.5 12.5t-13.5 42.5v495h239z" />
    <glyph glyph-name="o" unicode="o" horiz-adv-x="568" 
d="M283 534q109 0 166 -52t57 -164v-145q0 -112 -56.5 -164.5t-166.5 -52.5q-107 0 -165 52t-58 165v145q0 112 58 164t165 52zM408 318q0 31 -5 57t-20.5 44.5t-42 27t-57.5 8.5q-68 0 -96.5 -35.5t-28.5 -101.5v-145q0 -72 30 -105t95 -33t95 32t30 106v145z" />
    <glyph glyph-name="p" unicode="p" horiz-adv-x="546" 
d="M69 520h215q200 0 200 -184v-183q0 -96 -51.5 -139.5t-148.5 -43.5h-117v-194h-43q-29 0 -42 12.5t-13 43.5v688zM167 49h117q102 0 102 104v183q0 51 -24.5 78t-77.5 27h-117v-392z" />
    <glyph glyph-name="q" unicode="q" horiz-adv-x="544" 
d="M434 -224q-29 0 -42 12.5t-13 43.5v138h-117q-97 0 -148.5 43.5t-51.5 139.5v183q0 184 200 184h215v-744h-43zM379 441h-117q-53 0 -77.5 -27t-24.5 -78v-183q0 -104 102 -104h117v392z" />
    <glyph glyph-name="r" unicode="r" horiz-adv-x="408" 
d="M165 -30h-44q-28 0 -41 12.5t-13 42.5v358q0 66 33 101.5t111 35.5h178v-21q0 -33 -20 -45.5t-51 -12.5h-107q-27 0 -36.5 -17t-9.5 -41v-413z" />
    <glyph glyph-name="s" unicode="s" horiz-adv-x="466" 
d="M399 520v-33q0 -25 -15.5 -35.5t-47.5 -10.5h-108q-45 0 -63.5 -20t-18.5 -48q0 -23 12.5 -41.5t46.5 -29.5l89 -27q69 -21 100 -60.5t31 -91.5q0 -74 -50.5 -113.5t-138.5 -39.5h-185v29q0 50 60 50h125q41 0 66 18t25 56q0 26 -13 43.5t-43 27.5l-89 30
q-66 22 -100 56.5t-34 92.5q0 26 10.5 52t32 47t55.5 34.5t82 13.5h171z" />
    <glyph glyph-name="t" unicode="t" horiz-adv-x="357" 
d="M250 -30q-80 0 -113 39t-33 110v322h-90v79h90v180h98v-180h129v-31q0 -21 -12.5 -34.5t-53.5 -13.5h-63v-322q0 -29 9 -49.5t39 -20.5h89v-30q0 -20 -13 -34.5t-51 -14.5h-25z" />
    <glyph glyph-name="u" unicode="u" horiz-adv-x="555" 
d="M267 -30q-52 0 -90 10t-63 33t-37 61t-12 94v352h97v-352q0 -37 5.5 -60t18 -36t32.5 -18t49 -5h121v471h98v-550h-219z" />
    <glyph glyph-name="v" unicode="v" horiz-adv-x="507" 
d="M238 -30q-24 0 -37 10.5t-21 34.5l-169 505h94l149 -462l147 462h91l-182 -550h-72z" />
    <glyph glyph-name="w" unicode="w" horiz-adv-x="734" 
d="M727 520l-140 -550h-57q-47 0 -60 51l-104 340l-119 -391h-52q-33 0 -45 14t-19 40l-126 496h89l106 -436l121 413h90l121 -412l106 435h89z" />
    <glyph glyph-name="x" unicode="x" horiz-adv-x="547" 
d="M15 -30l201 276l-195 274h109l140 -201l141 201h111l-196 -274l202 -276h-108l-147 207l-148 -207h-110z" />
    <glyph glyph-name="y" unicode="y" horiz-adv-x="555" 
d="M90 -239v32q0 28 13.5 39.5t47.5 11.5h164q43 0 58 17.5t15 47.5v70q-37 -4 -72.5 -5.5l-80.5 -3.5q-89 -3 -130 44t-41 132v374h98v-373q0 -49 16 -73.5t61 -23.5q39 1 77.5 4t71.5 6v460h98v-612q0 -31 -9.5 -58t-30 -46.5t-53 -31t-78.5 -11.5h-225z" />
    <glyph glyph-name="z" unicode="z" horiz-adv-x="498" 
d="M455 50v-46q0 -34 -37 -34h-382v80l301 391h-288v79h393v-79l-303 -391h316z" />
    <glyph glyph-name="braceleft" unicode="{" horiz-adv-x="440" 
d="M375 -73h-71q-62 0 -91 31.5t-29 93.5v201q0 33 -25 48t-60 17v74q36 1 60.5 14.5t24.5 49.5v205q0 63 31 96.5t94 33.5h66v-73q-48 -1 -73 -12.5t-25 -45.5v-198q0 -43 -10.5 -68.5t-33.5 -39.5q23 -17 33.5 -43.5t10.5 -63.5v-190q0 -37 22 -47t76 -10v-73z" />
    <glyph glyph-name="bar" unicode="|" horiz-adv-x="332" 
d="M217 767v-819h-89v819h89z" />
    <glyph glyph-name="braceright" unicode="}" horiz-adv-x="440" 
d="M75 0q54 0 76 10t22 47v190q0 37 10.5 63.5t33.5 43.5q-23 14 -33.5 39.5t-10.5 68.5v198q0 34 -25 45.5t-73 12.5v73h66q63 0 94 -33.5t31 -96.5v-205q0 -36 24.5 -49.5t60.5 -14.5v-74q-35 -2 -60 -17t-25 -48v-201q0 -62 -29 -93.5t-91 -31.5h-71v73z" />
    <glyph glyph-name="asciitilde" unicode="~" horiz-adv-x="725" 
d="M673 415q-2 -39 -12.5 -74.5t-31.5 -62.5t-54 -43t-81 -16q-29 0 -51 6t-40.5 17.5t-34.5 27.5t-32 36q-28 35 -47 49.5t-44 14.5q-41 0 -63 -32t-28 -84l-92 1q4 41 17 76.5t35.5 61.5t54.5 41t74 15q30 0 52.5 -5.5t41 -17.5t36 -31t38.5 -46q19 -25 36.5 -37.5
t44.5 -12.5q38 0 62 28.5t30 87.5h89z" />
    <glyph glyph-name="uni00A0" unicode="&#xa0;" horiz-adv-x="300" 
 />
    <glyph glyph-name="exclamdown" unicode="&#xa1;" horiz-adv-x="330" 
d="M206 484l18 -538h-118l17 538h83zM218 602h-109v114h109v-114z" />
    <glyph glyph-name="cent" unicode="&#xa2;" horiz-adv-x="497" 
d="M443 641l-32 -121h43v-27q0 -11 -2 -20t-8 -16.5t-18 -11.5t-33 -4h-2l-103 -392h170v-29q0 -10 -2 -19t-9 -16t-19.5 -11t-33.5 -4h-127l-29 -112h-88l32 126q-55 19 -87 63t-32 107v180q0 42 15 76.5t42 59t64.5 37.5t82.5 13h55l32 121h89zM161 334v-179q0 -62 43 -90
l98 376h-35q-51 0 -78.5 -27t-27.5 -80z" />
    <glyph glyph-name="sterling" unicode="&#xa3;" horiz-adv-x="567" 
d="M536 20q0 -10 -2 -19t-9 -16t-19.5 -11t-33.5 -4h-434v82q18 6 32 19.5t24 32.5t15.5 41.5t5.5 45.5v108h-72v79h72v155q0 52 16.5 89t47 61t73 35.5t93.5 11.5q42 0 84.5 -7t93.5 -24l-5 -78q-26 9 -48 14.5t-42.5 9t-41 5t-43.5 1.5q-60 0 -95.5 -28t-35.5 -90v-155
h153v-29q0 -10 -2 -19t-9 -16t-19.5 -11t-33.5 -4h-89v-100q0 -47 -15.5 -90t-41.5 -60h381v-29z" />
    <glyph glyph-name="currency" unicode="&#xa4;" horiz-adv-x="561" 
d="M286 509q80 0 130 -28l50 51l61 -59l-50 -51q28 -50 28 -124v-35q0 -74 -28 -124l50 -51l-61 -59l-49 50q-50 -28 -131 -28q-85 0 -139 33l-54 -55l-61 59l58 59q-23 48 -23 116v35q0 67 23 115l-58 60l61 59l54 -56q54 33 139 33zM411 298q0 28 -7 53t-22 44t-38.5 29.5
t-57.5 10.5q-59 0 -92 -34.5t-33 -102.5v-35q0 -67 32.5 -102.5t92.5 -35.5t92.5 34.5t32.5 103.5v35z" />
    <glyph glyph-name="yen" unicode="&#xa5;" horiz-adv-x="675" 
d="M94 185h192v81h-192v79h146l-217 371h106l208 -360l209 360h107l-222 -371h145v-29q0 -10 -2 -19t-9 -16t-19.5 -11t-33.5 -4h-128v-81h192v-29q0 -10 -2 -19t-9 -16t-19.5 -11t-33.5 -4h-128v-136h-43q-29 0 -42 12t-13 42v82h-192v79z" />
    <glyph glyph-name="brokenbar" unicode="&#xa6;" horiz-adv-x="248" 
d="M168 443h-88v273h88v-273zM168 -30h-88v274h88v-274z" />
    <glyph glyph-name="section" unicode="&#xa7;" horiz-adv-x="466" 
d="M392 716v-33q0 -25 -15.5 -35.5t-47.5 -10.5h-108q-45 0 -63.5 -19.5t-18.5 -47.5q0 -23 12.5 -41.5t46.5 -29.5l89 -27q69 -21 100 -58.5t31 -89.5q0 -43 -17.5 -75t-49.5 -52q35 -22 51 -52t16 -67q0 -74 -50.5 -115.5t-138.5 -41.5h-185v29q0 50 60 50h125q41 0 66 20
t25 58q0 26 -13 41.5t-43 25.5l-89 30q-66 22 -100 56.5t-34 92.5q0 34 18 67.5t56 55.5q-36 21 -55 50.5t-19 72.5q0 26 10.5 52t32 47t55.5 34t82 13h171zM229 249q16 -2 32.5 1.5t29.5 12.5t21 23.5t8 33.5q0 26 -17 45t-49 23l-33 4q-44 1 -63 -19.5t-19 -48.5
q0 -23 12 -43t47 -28z" />
    <glyph glyph-name="dieresis" unicode="&#xa8;" horiz-adv-x="333" 
d="M314 595h-103v105h103v-105zM123 595h-104v105h104v-105z" />
    <glyph glyph-name="copyright" unicode="&#xa9;" horiz-adv-x="866" 
d="M38 346q0 88 29 160t81.5 124t125.5 80.5t161 28.5q87 0 160 -28.5t125.5 -80.5t81.5 -124t29 -160q0 -87 -29 -159.5t-81.5 -124t-125.5 -80t-160 -28.5q-88 0 -161 28.5t-125.5 80t-81.5 124t-29 159.5zM118 346q0 -71 23 -129t64.5 -99.5t99.5 -64.5t129 -23t129 23
t99.5 64.5t64 99.5t22.5 129t-22.5 129t-64 99.5t-99.5 64.5t-129 23t-129 -23t-99.5 -64.5t-64.5 -99.5t-23 -129zM582 169v-29q0 -10 -2 -19t-9 -16t-19.5 -11t-33.5 -4h-87q-45 0 -82.5 13t-64.5 37t-42 58t-15 76v130q0 42 15 76.5t42 59t64.5 37.5t82.5 13h147v-27
q0 -11 -2 -20t-8 -16.5t-18 -11.5t-33 -4h-86q-51 0 -78.5 -27t-27.5 -80v-129q0 -48 27.5 -77t78.5 -29h151z" />
    <glyph glyph-name="ordfeminine" unicode="&#xaa;" horiz-adv-x="387" 
d="M325 342h-156q-57 0 -90 25.5t-33 75.5v39q0 60 33 84t90 24q22 0 40 -2l36 -4v28q0 35 -41 35h-83q-33 0 -41.5 11t-8.5 28v30h133q63 0 92 -26.5t29 -77.5v-270zM169 519q-22 0 -32.5 -8.5t-10.5 -30.5v-34q0 -21 14.5 -27.5t28.5 -6.5h76v102q-22 2 -40.5 3.5
t-35.5 1.5z" />
    <glyph glyph-name="guillemotleft" unicode="&#xab;" horiz-adv-x="459" 
d="M429 32l-67 -45l-164 270l153 269l72 -41l-130 -228zM258 32l-67 -45l-165 270l153 270l72 -41l-131 -229z" />
    <glyph glyph-name="logicalnot" unicode="&#xac;" horiz-adv-x="632" 
d="M573 214h-98v207h-435v79h533v-286z" />
    <glyph glyph-name="uni00AD" unicode="&#xad;" horiz-adv-x="333" 
d="M310 245h-288v80h288v-80z" />
    <glyph glyph-name="registered" unicode="&#xae;" horiz-adv-x="871" 
d="M38 346q0 88 29 160t81.5 124t125.5 80.5t161 28.5q87 0 160 -28.5t125.5 -80.5t81.5 -124t29 -160q0 -87 -29 -159.5t-81.5 -124t-125.5 -80t-160 -28.5q-88 0 -161 28.5t-125.5 80t-81.5 124t-29 159.5zM118 346q0 -71 23 -129t64.5 -99.5t99.5 -64.5t129 -23
q58 0 107 15t88 44h-80l-99 207h-94v-207h-41q-23 0 -34 10t-11 36v455h198q75 0 112 -34t37 -86v-45q0 -17 -4.5 -35.5t-14.5 -35t-26 -29t-38 -17.5l104 -212q53 42 82 105.5t29 144.5q0 71 -22.5 129t-64 99.5t-99.5 64.5t-129 23t-129 -23t-99.5 -64.5t-64.5 -99.5
t-23 -129zM356 516v-146h112q63 0 63 61v27q0 58 -63 58h-112z" />
    <glyph glyph-name="macron" unicode="&#xaf;" horiz-adv-x="498" 
d="M507 720h-517v80h517v-80z" />
    <glyph glyph-name="degree" unicode="&#xb0;" horiz-adv-x="370" 
d="M48 599q0 29 10.5 53t28.5 41.5t43 27t55 9.5q29 0 54 -9.5t43.5 -27t29 -41.5t10.5 -53q0 -60 -39 -95.5t-98 -35.5q-60 0 -98.5 35.5t-38.5 95.5zM120 599q0 -29 17.5 -46.5t46.5 -17.5t47 17.5t18 46.5t-18 47t-47 18t-46.5 -18t-17.5 -47z" />
    <glyph glyph-name="plusminus" unicode="&#xb1;" horiz-adv-x="614" 
d="M352 415h197v-79h-197v-191h-99v191h-195v79h195v188h99v-188zM68 49h472v-79h-472v79z" />
    <glyph glyph-name="uni00B2" unicode="&#xb2;" horiz-adv-x="333" 
d="M90 318q-26 0 -37 8.5t-11 35.5v45q0 25 11.5 42.5t27.5 29.5l102 77q17 13 23.5 29.5t6.5 30.5q0 22 -17 35t-46 13q-20 0 -44 -3t-60 -9v65q26 5 51 9t55 4q28 0 53 -7.5t43.5 -22t29 -35.5t10.5 -49q0 -35 -15 -61.5t-42 -46.5l-101 -77q-8 -6 -10.5 -14.5t-2.5 -16.5
v-17h174v-28q0 -16 -8 -26.5t-31 -10.5h-162z" />
    <glyph glyph-name="uni00B3" unicode="&#xb3;" horiz-adv-x="333" 
d="M148 730q27 0 52 -6t43.5 -19.5t29.5 -35t11 -52.5q-1 -29 -12.5 -52t-30.5 -34q26 -12 39 -38.5t13 -54.5q0 -71 -41.5 -101t-108.5 -28q-24 1 -45.5 2.5t-58.5 7.5v28q0 17 10.5 26.5t30.5 6.5q14 -2 30.5 -3t32.5 -1q35 0 54.5 11.5t19.5 46.5q0 33 -19 46t-51 13h-58
q-15 0 -21 5.5t-6 20.5v40h85q30 0 45.5 13.5t15.5 45.5q0 23 -16.5 34t-44.5 11q-26 0 -49.5 -3t-51.5 -8l-2 63q27 7 51.5 11t52.5 4z" />
    <glyph glyph-name="acute" unicode="&#xb4;" horiz-adv-x="333" 
d="M264 730l-91 -118q-12 -16 -23.5 -22t-34.5 -6h-41l80 146h110z" />
    <glyph glyph-name="uni00B5" unicode="&#xb5;" horiz-adv-x="564" 
d="M273 -30q-63 0 -105 15v-209h-43q-29 0 -42 12t-13 42l1 690h97v-352q0 -37 5.5 -60t18 -36t32.5 -18t49 -5h121v471h98v-550h-219z" />
    <glyph glyph-name="paragraph" unicode="&#xb6;" horiz-adv-x="532" 
d="M195 317q-30 3 -60.5 17t-54.5 39.5t-38.5 62t-12.5 85.5q3 94 55.5 144.5t148.5 50.5h227v-873h-37q-29 0 -42 12t-13 42v739h-82v-793h-36q-29 0 -42 12t-13 42v420z" />
    <glyph glyph-name="periodcentered" unicode="&#xb7;" horiz-adv-x="333" 
d="M221 304h-109v114h109v-114z" />
    <glyph glyph-name="cedilla" unicode="&#xb8;" horiz-adv-x="333" 
d="M125 -109l26 86h75l-16 -52q42 -5 58 -25.5t16 -46.5q0 -36 -35.5 -64t-105.5 -28q-20 0 -39 2t-35 5l9 56q30 -3 46 -3q78 0 78 37q0 7 -2.5 12.5t-10.5 10t-23 7t-41 3.5z" />
    <glyph glyph-name="uni00B9" unicode="&#xb9;" horiz-adv-x="333" 
d="M214 316h-36q-21 0 -30 10t-9 32v293h-61v65h104q32 0 32 -31v-369z" />
    <glyph glyph-name="ordmasculine" unicode="&#xba;" horiz-adv-x="382" 
d="M189 726q72 0 110.5 -35.5t38.5 -110.5v-100q0 -75 -37.5 -110t-111.5 -35q-71 0 -110 35t-39 110v100q0 75 39 110.5t110 35.5zM257 580q0 32 -15.5 54t-52.5 22q-32 0 -50 -19t-18 -57v-100q0 -77 68 -77q32 0 50 19.5t18 57.5v100z" />
    <glyph glyph-name="guillemotright" unicode="&#xbb;" horiz-adv-x="459" 
d="M162 257l-130 228l72 41l153 -269l-164 -270l-67 45zM335 257l-131 229l72 41l153 -270l-165 -270l-67 45z" />
    <glyph glyph-name="onequarter" unicode="&#xbc;" horiz-adv-x="800" 
d="M689 24v-68h-36q-38 0 -38 44v24h-193v61l150 241q9 14 19 22t32 8h66v-268h37v-32q0 -19 -9 -25.5t-26 -6.5h-2zM504 88h111v174zM210 316h-36q-21 0 -30 10t-9 32v293h-61v65h104q32 0 32 -31v-369zM656 716l-450 -760h-93l449 760h94z" />
    <glyph glyph-name="onehalf" unicode="&#xbd;" horiz-adv-x="800" 
d="M210 316h-36q-21 0 -30 10t-9 32v293h-61v65h104q32 0 32 -31v-369zM636 716l-450 -760h-93l449 760h94zM539 -44q-26 0 -37 8.5t-11 35.5v40q0 25 12.5 41.5t26.5 30.5l99 81q16 14 24.5 31.5t8.5 31.5q0 46 -49 46q-20 0 -51 -3t-67 -9v65q26 5 58.5 9t62.5 4
q25 0 47 -7t38.5 -21t26 -35t9.5 -49q0 -35 -17.5 -62.5t-42.5 -50.5q-23 -21 -48.5 -40.5t-49.5 -40.5q-7 -7 -10 -15t-3 -16v-10h174v-28q0 -16 -8 -26.5t-31 -10.5h-162z" />
    <glyph glyph-name="threequarters" unicode="&#xbe;" horiz-adv-x="800" 
d="M689 24v-68h-36q-38 0 -38 44v24h-193v61l150 241q9 14 19 22t32 8h66v-268h37v-32q0 -19 -9 -25.5t-26 -6.5h-2zM504 88h111v174zM676 716l-450 -760h-93l449 760h94zM158 730q55 0 91 -26t35 -87q-1 -29 -9.5 -49.5t-25.5 -36.5q24 -15 34 -40t10 -53q0 -71 -41.5 -101
t-108.5 -28q-24 1 -45.5 2.5t-58.5 7.5v28q0 17 10.5 26.5t30.5 6.5q14 -2 30.5 -3t32.5 -1q35 0 54.5 11.5t19.5 46.5q0 33 -14 46t-46 13h-68q-15 0 -21 5.5t-6 20.5v40h95q30 0 40.5 13.5t10.5 45.5q0 45 -51 45q-26 0 -55.5 -3t-57.5 -8v63q27 7 56.5 11t57.5 4z" />
    <glyph glyph-name="questiondown" unicode="&#xbf;" horiz-adv-x="544" 
d="M349 507v-58q0 -45 -8 -74t-34 -46l-91 -62q-23 -16 -38 -31.5t-23 -31.5t-11 -33t-3 -35q0 -54 38 -82.5t110 -28.5q49 0 95.5 7t99.5 23l5 -78q-57 -18 -103.5 -24.5t-94.5 -6.5q-55 0 -100.5 12.5t-78.5 36.5t-51 58.5t-18 78.5q0 61 23 104t71 78l86 61q20 15 24 32
t4 45v55h98zM246 716h109v-114h-109v114z" />
    <glyph glyph-name="Agrave" unicode="&#xc0;" horiz-adv-x="656" 
d="M453 235q-9 -18 -32.5 -32t-57.5 -14h-175l-70 -219h-101l250 746h85q17 0 30 -10.5t18 -25.5l240 -710h-100zM214 270h228l-114 352zM325 930l80 -146h-41q-23 0 -34.5 6t-23.5 22l-91 118h110z" />
    <glyph glyph-name="Aacute" unicode="&#xc1;" horiz-adv-x="656" 
d="M453 235q-9 -18 -32.5 -32t-57.5 -14h-175l-70 -219h-101l250 746h85q17 0 30 -10.5t18 -25.5l240 -710h-100zM214 270h228l-114 352zM419 930l-91 -118q-12 -16 -23.5 -22t-34.5 -6h-41l80 146h110z" />
    <glyph glyph-name="Acircumflex" unicode="&#xc2;" horiz-adv-x="656" 
d="M453 235q-9 -18 -32.5 -32t-57.5 -14h-175l-70 -219h-101l250 746h85q17 0 30 -10.5t18 -25.5l240 -710h-100zM214 270h228l-114 352zM260 781h-98l114 135h97l113 -135h-98l-63 78z" />
    <glyph glyph-name="Atilde" unicode="&#xc3;" horiz-adv-x="656" 
d="M453 235q-9 -18 -32.5 -32t-57.5 -14h-175l-70 -219h-101l250 746h85q17 0 30 -10.5t18 -25.5l240 -710h-100zM214 270h228l-114 352zM252 901q26 0 47 -8t39 -18q14 -8 27.5 -13.5t26.5 -5.5q33 0 45 45h77q-8 -52 -36.5 -86.5t-81.5 -34.5q-30 0 -51.5 8t-41.5 19
q-14 6 -26.5 12.5t-23.5 6.5q-33 0 -43 -47h-75q5 54 35.5 88t81.5 34z" />
    <glyph glyph-name="Adieresis" unicode="&#xc4;" horiz-adv-x="656" 
d="M453 235q-9 -18 -32.5 -32t-57.5 -14h-175l-70 -219h-101l250 746h85q17 0 30 -10.5t18 -25.5l240 -710h-100zM214 270h228l-114 352zM472 795h-103v105h103v-105zM281 795h-104v105h104v-105z" />
    <glyph glyph-name="Aring" unicode="&#xc5;" horiz-adv-x="656" 
d="M453 235q-9 -18 -32.5 -32t-57.5 -14h-175l-70 -219h-101l250 746h85q17 0 30 -10.5t18 -25.5l240 -710h-100zM214 270h228l-114 352zM281 856q0 -21 11.5 -32t31.5 -11t32 11t12 32q0 20 -12 32t-32 12t-31.5 -12t-11.5 -32zM220 856q0 45 29.5 72.5t74.5 27.5
q46 0 75.5 -27.5t29.5 -72.5t-29.5 -72.5t-75.5 -27.5q-45 0 -74.5 27.5t-29.5 72.5z" />
    <glyph glyph-name="AE" unicode="&#xc6;" horiz-adv-x="985" 
d="M481 -30v240q-27 -21 -68 -21h-193l-97 -219h-106l330 746h596v-25q0 -25 -10 -39.5t-45 -14.5h-309v-232h332v-28q0 -21 -10 -36t-44 -15h-278v-277h376v-28q0 -21 -10 -36t-44 -15h-420zM256 270h225v367h-63z" />
    <glyph glyph-name="Ccedilla" unicode="&#xc7;" horiz-adv-x="573" 
d="M267 -109l24 79h-30q-44 0 -80.5 13.5t-63 39t-41.5 60.5t-15 79v365q0 88 58.5 138.5t164.5 50.5h243v-28q0 -21 -11.5 -36t-53.5 -15h-175q-128 0 -128 -123v-345q0 -24 6.5 -45.5t20 -38t33 -26.5t46.5 -10h272v-29q0 -20 -12 -35t-54 -15h-105l-14 -45
q42 -5 58 -25.5t16 -46.5q0 -36 -35.5 -64t-105.5 -28q-20 0 -39 2t-35 5l9 56q30 -3 46 -3q78 0 78 37q0 7 -2.5 12.5t-10.5 10t-23 7t-41 3.5z" />
    <glyph glyph-name="Egrave" unicode="&#xc8;" horiz-adv-x="592" 
d="M74 -30v746h462v-25q0 -25 -10 -39.5t-45 -14.5h-309v-232h332v-28q0 -21 -10 -36t-44 -15h-278v-277h376v-28q0 -21 -10 -36t-44 -15h-420zM311 930l80 -146h-41q-23 0 -34.5 6t-23.5 22l-91 118h110z" />
    <glyph glyph-name="Eacute" unicode="&#xc9;" horiz-adv-x="592" 
d="M74 -30v746h462v-25q0 -25 -10 -39.5t-45 -14.5h-309v-232h332v-28q0 -21 -10 -36t-44 -15h-278v-277h376v-28q0 -21 -10 -36t-44 -15h-420zM391 930l-91 -118q-12 -16 -23.5 -22t-34.5 -6h-41l80 146h110z" />
    <glyph glyph-name="Ecircumflex" unicode="&#xca;" horiz-adv-x="592" 
d="M74 -30v746h462v-25q0 -25 -10 -39.5t-45 -14.5h-309v-232h332v-28q0 -21 -10 -36t-44 -15h-278v-277h376v-28q0 -21 -10 -36t-44 -15h-420zM232 781h-98l114 135h97l113 -135h-98l-63 78z" />
    <glyph glyph-name="Edieresis" unicode="&#xcb;" horiz-adv-x="592" 
d="M74 -30v746h462v-25q0 -25 -10 -39.5t-45 -14.5h-309v-232h332v-28q0 -21 -10 -36t-44 -15h-278v-277h376v-28q0 -21 -10 -36t-44 -15h-420zM443 795h-103v105h103v-105zM252 795h-104v105h104v-105z" />
    <glyph glyph-name="Igrave" unicode="&#xcc;" horiz-adv-x="263" 
d="M183 716v-746h-45q-29 0 -41.5 12.5t-12.5 41.5v692h99zM147 930l80 -146h-41q-23 0 -34.5 6t-23.5 22l-91 118h110z" />
    <glyph glyph-name="Iacute" unicode="&#xcd;" horiz-adv-x="263" 
d="M183 716v-746h-45q-29 0 -41.5 12.5t-12.5 41.5v692h99zM227 930l-91 -118q-12 -16 -23.5 -22t-34.5 -6h-41l80 146h110z" />
    <glyph glyph-name="Icircumflex" unicode="&#xce;" horiz-adv-x="263" 
d="M183 716v-746h-45q-29 0 -41.5 12.5t-12.5 41.5v692h99zM68 781h-98l114 135h97l113 -135h-98l-63 78z" />
    <glyph glyph-name="Idieresis" unicode="&#xcf;" horiz-adv-x="263" 
d="M183 716v-746h-45q-29 0 -41.5 12.5t-12.5 41.5v692h99zM279 795h-103v105h103v-105zM88 795h-104v105h104v-105z" />
    <glyph glyph-name="Eth" unicode="&#xd0;" horiz-adv-x="718" 
d="M31 384h94v332h283q61 0 105.5 -15.5t73.5 -42.5t43.5 -64t14.5 -80v-344q0 -43 -14.5 -79.5t-43.5 -63.5t-73.5 -42t-105.5 -15h-283v335h-94v79zM222 637v-253h171v-29q0 -10 -2 -19t-9 -16t-19.5 -11t-33.5 -4h-107v-256h186q66 0 103 32t37 89v344q0 61 -37 92
t-103 31h-186z" />
    <glyph glyph-name="Ntilde" unicode="&#xd1;" horiz-adv-x="669" 
d="M74 716h309q52 0 92 -8.5t66 -30.5t39.5 -60t13.5 -96v-551h-43q-29 0 -42 12.5t-13 41.5v498q0 33 -6 55.5t-19 35.5t-35 18.5t-53 5.5h-211v-667h-44q-29 0 -41.5 12.5t-12.5 41.5v692zM255 901q26 0 47 -8t39 -18q14 -8 27.5 -13.5t26.5 -5.5q33 0 45 45h77
q-8 -52 -36.5 -86.5t-81.5 -34.5q-30 0 -51.5 8t-41.5 19q-14 6 -26.5 12.5t-23.5 6.5q-33 0 -43 -47h-75q5 54 35.5 88t81.5 34z" />
    <glyph glyph-name="Ograve" unicode="&#xd2;" horiz-adv-x="695" 
d="M346 730q148 0 218 -83t70 -234v-141q0 -151 -70 -233.5t-218 -82.5q-147 0 -217 82.5t-70 234.5v140q0 152 70 234.5t217 82.5zM536 414q0 51 -12 93.5t-35.5 73t-59 48t-83.5 17.5q-47 0 -82.5 -17.5t-59 -48t-35.5 -73.5t-12 -94v-141q0 -232 189 -232q190 0 190 233
v141zM351 930l80 -146h-41q-23 0 -34.5 6t-23.5 22l-91 118h110z" />
    <glyph glyph-name="Oacute" unicode="&#xd3;" horiz-adv-x="695" 
d="M346 730q148 0 218 -83t70 -234v-141q0 -151 -70 -233.5t-218 -82.5q-147 0 -217 82.5t-70 234.5v140q0 152 70 234.5t217 82.5zM536 414q0 51 -12 93.5t-35.5 73t-59 48t-83.5 17.5q-47 0 -82.5 -17.5t-59 -48t-35.5 -73.5t-12 -94v-141q0 -232 189 -232q190 0 190 233
v141zM431 930l-91 -118q-12 -16 -23.5 -22t-34.5 -6h-41l80 146h110z" />
    <glyph glyph-name="Ocircumflex" unicode="&#xd4;" horiz-adv-x="695" 
d="M346 730q148 0 218 -83t70 -234v-141q0 -151 -70 -233.5t-218 -82.5q-147 0 -217 82.5t-70 234.5v140q0 152 70 234.5t217 82.5zM536 414q0 51 -12 93.5t-35.5 73t-59 48t-83.5 17.5q-47 0 -82.5 -17.5t-59 -48t-35.5 -73.5t-12 -94v-141q0 -232 189 -232q190 0 190 233
v141zM272 781h-98l114 135h97l113 -135h-98l-63 78z" />
    <glyph glyph-name="Otilde" unicode="&#xd5;" horiz-adv-x="695" 
d="M346 730q148 0 218 -83t70 -234v-141q0 -151 -70 -233.5t-218 -82.5q-147 0 -217 82.5t-70 234.5v140q0 152 70 234.5t217 82.5zM536 414q0 51 -12 93.5t-35.5 73t-59 48t-83.5 17.5q-47 0 -82.5 -17.5t-59 -48t-35.5 -73.5t-12 -94v-141q0 -232 189 -232q190 0 190 233
v141zM264 901q26 0 47 -8t39 -18q14 -8 27.5 -13.5t26.5 -5.5q33 0 45 45h77q-8 -52 -36.5 -86.5t-81.5 -34.5q-30 0 -51.5 8t-41.5 19q-14 6 -26.5 12.5t-23.5 6.5q-33 0 -43 -47h-75q5 54 35.5 88t81.5 34z" />
    <glyph glyph-name="Odieresis" unicode="&#xd6;" horiz-adv-x="695" 
d="M346 730q148 0 218 -83t70 -234v-141q0 -151 -70 -233.5t-218 -82.5q-147 0 -217 82.5t-70 234.5v140q0 152 70 234.5t217 82.5zM536 414q0 51 -12 93.5t-35.5 73t-59 48t-83.5 17.5q-47 0 -82.5 -17.5t-59 -48t-35.5 -73.5t-12 -94v-141q0 -232 189 -232q190 0 190 233
v141zM484 795h-103v105h103v-105zM293 795h-104v105h104v-105z" />
    <glyph glyph-name="multiply" unicode="&#xd7;" horiz-adv-x="584" 
d="M79 180l153 154l-153 153l60 59l153 -153l153 153l58 -59l-152 -153l153 -153l-59 -60l-153 153l-154 -153z" />
    <glyph glyph-name="Oslash" unicode="&#xd8;" horiz-adv-x="695" 
d="M347 730q57 0 105 -14l27 65h99l-44 -106q51 -39 76 -105t25 -157v-141q0 -151 -70 -233.5t-218 -82.5q-57 0 -105 14l-29 -72h-98l46 112q-51 39 -76 105.5t-25 157.5v140q0 152 70 234.5t217 82.5zM537 414q0 48 -11 89t-33 72l-217 -525q30 -10 71 -10q96 0 143 59
t47 174v141zM347 646q-47 0 -82.5 -17.5t-59 -49t-35.5 -74t-12 -92.5v-141q0 -108 42 -166l218 527q-34 13 -71 13z" />
    <glyph glyph-name="Ugrave" unicode="&#xd9;" horiz-adv-x="676" 
d="M595 -30h-309q-53 0 -92.5 8.5t-65.5 30.5t-39.5 59.5t-13.5 96.5v551h98v-552q0 -33 6 -55.5t19 -35.5t34.5 -18.5t53.5 -5.5h211v667h98v-746zM353 930l80 -146h-41q-23 0 -34.5 6t-23.5 22l-91 118h110z" />
    <glyph glyph-name="Uacute" unicode="&#xda;" horiz-adv-x="676" 
d="M595 -30h-309q-53 0 -92.5 8.5t-65.5 30.5t-39.5 59.5t-13.5 96.5v551h98v-552q0 -33 6 -55.5t19 -35.5t34.5 -18.5t53.5 -5.5h211v667h98v-746zM433 930l-91 -118q-12 -16 -23.5 -22t-34.5 -6h-41l80 146h110z" />
    <glyph glyph-name="Ucircumflex" unicode="&#xdb;" horiz-adv-x="676" 
d="M595 -30h-309q-53 0 -92.5 8.5t-65.5 30.5t-39.5 59.5t-13.5 96.5v551h98v-552q0 -33 6 -55.5t19 -35.5t34.5 -18.5t53.5 -5.5h211v667h98v-746zM274 781h-98l114 135h97l113 -135h-98l-63 78z" />
    <glyph glyph-name="Udieresis" unicode="&#xdc;" horiz-adv-x="676" 
d="M595 -30h-309q-53 0 -92.5 8.5t-65.5 30.5t-39.5 59.5t-13.5 96.5v551h98v-552q0 -33 6 -55.5t19 -35.5t34.5 -18.5t53.5 -5.5h211v667h98v-746zM485 795h-103v105h103v-105zM294 795h-104v105h104v-105z" />
    <glyph glyph-name="Yacute" unicode="&#xdd;" horiz-adv-x="664" 
d="M377 -30h-43q-29 0 -42 12t-13 42v242l-263 450h106l208 -360l209 360h107l-269 -450v-296zM432 930l-91 -118q-12 -16 -23.5 -22t-34.5 -6h-41l80 146h110z" />
    <glyph glyph-name="Thorn" unicode="&#xde;" horiz-adv-x="610" 
d="M130 -30q-29 0 -42 12t-13 42v692h97v-163h145q58 0 104 -10t77 -33.5t47.5 -63.5t16.5 -100t-15 -101.5t-44.5 -67t-74 -37t-103.5 -11.5h-153v-159h-42zM172 208h155q41 0 68 9.5t42.5 27t22 42.5t6.5 56q0 39 -9 64.5t-26.5 40t-44 20t-61.5 5.5h-153v-265z" />
    <glyph glyph-name="germandbls" unicode="&#xdf;" horiz-adv-x="626" 
d="M130 -30q-29 0 -42 12t-13 42v485q0 61 14 103.5t42 68.5t68 37.5t93 11.5q46 0 82.5 -11.5t62.5 -31t40 -46t14 -57.5q0 -27 -5.5 -54t-29.5 -69q-21 -36 -30.5 -57t-9.5 -29t1 -15.5t8 -17t21.5 -22.5t40.5 -31q33 -23 53.5 -44t32 -41t15.5 -40.5t4 -41.5
q0 -35 -12.5 -65.5t-36.5 -53t-59 -35t-79 -12.5q-55 0 -100 18.5t-72 62.5l68 56q15 -27 45 -41t58 -14q38 0 61 24t23 59q0 26 -11 47t-48 48q-40 30 -63.5 50.5t-36 36.5t-16 29.5t-3.5 28.5q0 14 9.5 41t32.5 65q13 22 21 38.5t12 28.5t5.5 21.5t1.5 18.5q0 32 -27 56.5
t-75 24.5q-26 0 -47.5 -7.5t-37.5 -24.5t-24.5 -46t-8.5 -72v-535h-42z" />
    <glyph glyph-name="agrave" unicode="&#xe0;" horiz-adv-x="537" 
d="M472 -30h-236q-84 0 -132.5 37t-48.5 109v62q0 85 48.5 122t132.5 35q41 -1 72 -3t66 -7v45q0 33 -19.5 52t-60.5 19h-135q-41 0 -52.5 13.5t-11.5 33.5v32h199q93 0 135.5 -38t42.5 -112v-400zM237 252q-44 0 -64 -17.5t-20 -60.5v-53q0 -22 8 -36t20.5 -22t27 -11
t28.5 -3h137v193q-39 5 -73 7.5t-64 2.5zM277 730l80 -146h-41q-23 0 -34.5 6t-23.5 22l-91 118h110z" />
    <glyph glyph-name="aacute" unicode="&#xe1;" horiz-adv-x="537" 
d="M472 -30h-236q-84 0 -132.5 37t-48.5 109v62q0 85 48.5 122t132.5 35q41 -1 72 -3t66 -7v45q0 33 -19.5 52t-60.5 19h-135q-41 0 -52.5 13.5t-11.5 33.5v32h199q93 0 135.5 -38t42.5 -112v-400zM237 252q-44 0 -64 -17.5t-20 -60.5v-53q0 -22 8 -36t20.5 -22t27 -11
t28.5 -3h137v193q-39 5 -73 7.5t-64 2.5zM357 730l-91 -118q-12 -16 -23.5 -22t-34.5 -6h-41l80 146h110z" />
    <glyph glyph-name="acircumflex" unicode="&#xe2;" horiz-adv-x="537" 
d="M472 -30h-236q-84 0 -132.5 37t-48.5 109v62q0 85 48.5 122t132.5 35q41 -1 72 -3t66 -7v45q0 33 -19.5 52t-60.5 19h-135q-41 0 -52.5 13.5t-11.5 33.5v32h199q93 0 135.5 -38t42.5 -112v-400zM237 252q-44 0 -64 -17.5t-20 -60.5v-53q0 -22 8 -36t20.5 -22t27 -11
t28.5 -3h137v193q-39 5 -73 7.5t-64 2.5zM198 581h-98l114 135h97l113 -135h-98l-63 78z" />
    <glyph glyph-name="atilde" unicode="&#xe3;" horiz-adv-x="537" 
d="M472 -30h-236q-84 0 -132.5 37t-48.5 109v62q0 85 48.5 122t132.5 35q41 -1 72 -3t66 -7v45q0 33 -19.5 52t-60.5 19h-135q-41 0 -52.5 13.5t-11.5 33.5v32h199q93 0 135.5 -38t42.5 -112v-400zM237 252q-44 0 -64 -17.5t-20 -60.5v-53q0 -22 8 -36t20.5 -22t27 -11
t28.5 -3h137v193q-39 5 -73 7.5t-64 2.5zM193 701q26 0 47 -8t39 -18q14 -8 27.5 -13.5t26.5 -5.5q33 0 45 45h77q-8 -52 -36.5 -86.5t-81.5 -34.5q-30 0 -51.5 8t-41.5 19q-14 6 -26.5 12.5t-23.5 6.5q-33 0 -43 -47h-75q5 54 35.5 88t81.5 34z" />
    <glyph glyph-name="adieresis" unicode="&#xe4;" horiz-adv-x="537" 
d="M472 -30h-236q-84 0 -132.5 37t-48.5 109v62q0 85 48.5 122t132.5 35q41 -1 72 -3t66 -7v45q0 33 -19.5 52t-60.5 19h-135q-41 0 -52.5 13.5t-11.5 33.5v32h199q93 0 135.5 -38t42.5 -112v-400zM237 252q-44 0 -64 -17.5t-20 -60.5v-53q0 -22 8 -36t20.5 -22t27 -11
t28.5 -3h137v193q-39 5 -73 7.5t-64 2.5zM410 595h-103v105h103v-105zM219 595h-104v105h104v-105z" />
    <glyph glyph-name="aring" unicode="&#xe5;" horiz-adv-x="537" 
d="M472 -30h-236q-84 0 -132.5 37t-48.5 109v62q0 85 48.5 122t132.5 35q41 -1 72 -3t66 -7v45q0 33 -19.5 52t-60.5 19h-135q-41 0 -52.5 13.5t-11.5 33.5v32h199q93 0 135.5 -38t42.5 -112v-400zM237 252q-44 0 -64 -17.5t-20 -60.5v-53q0 -22 8 -36t20.5 -22t27 -11
t28.5 -3h137v193q-39 5 -73 7.5t-64 2.5zM219 656q0 -21 11.5 -32t31.5 -11t32 11t12 32q0 20 -12 32t-32 12t-31.5 -12t-11.5 -32zM158 656q0 45 29.5 72.5t74.5 27.5q46 0 75.5 -27.5t29.5 -72.5t-29.5 -72.5t-75.5 -27.5q-45 0 -74.5 27.5t-29.5 72.5z" />
    <glyph glyph-name="ae" unicode="&#xe6;" horiz-adv-x="860" 
d="M786 49v-32q0 -21 -10.5 -34t-52.5 -13h-158q-47 0 -78.5 10.5t-57.5 36.5q-17 -20 -46 -33.5t-61 -13.5h-86q-84 0 -132.5 37t-48.5 109v62q0 85 48.5 122t132.5 35q41 -1 72 -3t66 -7v45q0 33 -19.5 52t-60.5 19h-135q-41 0 -52.5 13.5t-11.5 33.5v32h199q94 0 138 -41
q30 28 70 41.5t86 13.5q47 0 87 -13t69 -37t45.5 -58.5t16.5 -78.5v-70q0 -35 -17.5 -53.5t-59.5 -18.5h-257v-64q2 -45 28.5 -68.5t64.5 -23.5h221zM237 252q-44 0 -64 -17.5t-20 -60.5v-53q0 -22 8 -36t20.5 -22t27 -11t28.5 -3h67q29 0 49.5 20t20.5 49v124
q-39 5 -73 7.5t-64 2.5zM472 284h218q11 0 14.5 4t3.5 16v43q0 45 -30.5 76.5t-89.5 31.5q-52 0 -83 -30t-33 -74v-67z" />
    <glyph glyph-name="ccedilla" unicode="&#xe7;" horiz-adv-x="498" 
d="M255 -109l24 79h-13q-45 0 -82.5 13t-64.5 37t-42 58t-15 76v180q0 42 15 76.5t42 59t64.5 37.5t82.5 13h187v-27q0 -11 -2 -20t-8 -16.5t-18 -11.5t-33 -4h-126q-51 0 -78.5 -27t-27.5 -80v-179q0 -48 27.5 -77t78.5 -29h191v-29q0 -10 -2 -19t-9 -16t-19.5 -11
t-33.5 -4h-39l-14 -45q42 -5 58 -25.5t16 -46.5q0 -36 -35.5 -64t-105.5 -28q-20 0 -39 2t-35 5l9 56q30 -3 46 -3q78 0 78 37q0 7 -2.5 12.5t-10.5 10t-23 7t-41 3.5z" />
    <glyph glyph-name="egrave" unicode="&#xe8;" horiz-adv-x="543" 
d="M467 49v-32q0 -21 -10.5 -34t-52.5 -13h-158q-43 0 -78.5 12.5t-60.5 35t-38.5 55t-13.5 73.5v191q0 53 17 90.5t46.5 61t68 34.5t82.5 11q47 0 87 -11.5t69 -34t45.5 -55.5t16.5 -76v-80q0 -35 -17.5 -53.5t-59.5 -18.5h-257v-59q0 -47 27.5 -72t65.5 -25h221zM153 284
h218q11 0 14.5 4t3.5 16v53q0 45 -30.5 71.5t-89.5 26.5q-54 0 -85 -26.5t-31 -71.5v-73zM281 730l80 -146h-41q-23 0 -34.5 6t-23.5 22l-91 118h110z" />
    <glyph glyph-name="eacute" unicode="&#xe9;" horiz-adv-x="543" 
d="M467 49v-32q0 -21 -10.5 -34t-52.5 -13h-158q-43 0 -78.5 12.5t-60.5 35t-38.5 55t-13.5 73.5v191q0 53 17 90.5t46.5 61t68 34.5t82.5 11q47 0 87 -11.5t69 -34t45.5 -55.5t16.5 -76v-80q0 -35 -17.5 -53.5t-59.5 -18.5h-257v-59q0 -47 27.5 -72t65.5 -25h221zM153 284
h218q11 0 14.5 4t3.5 16v53q0 45 -30.5 71.5t-89.5 26.5q-54 0 -85 -26.5t-31 -71.5v-73zM361 730l-91 -118q-12 -16 -23.5 -22t-34.5 -6h-41l80 146h110z" />
    <glyph glyph-name="ecircumflex" unicode="&#xea;" horiz-adv-x="543" 
d="M467 49v-32q0 -21 -10.5 -34t-52.5 -13h-158q-43 0 -78.5 12.5t-60.5 35t-38.5 55t-13.5 73.5v191q0 53 17 90.5t46.5 61t68 34.5t82.5 11q47 0 87 -11.5t69 -34t45.5 -55.5t16.5 -76v-80q0 -35 -17.5 -53.5t-59.5 -18.5h-257v-59q0 -47 27.5 -72t65.5 -25h221zM153 284
h218q11 0 14.5 4t3.5 16v53q0 45 -30.5 71.5t-89.5 26.5q-54 0 -85 -26.5t-31 -71.5v-73zM202 581h-98l114 135h97l113 -135h-98l-63 78z" />
    <glyph glyph-name="edieresis" unicode="&#xeb;" horiz-adv-x="543" 
d="M467 49v-32q0 -21 -10.5 -34t-52.5 -13h-158q-43 0 -78.5 12.5t-60.5 35t-38.5 55t-13.5 73.5v191q0 53 17 90.5t46.5 61t68 34.5t82.5 11q47 0 87 -11.5t69 -34t45.5 -55.5t16.5 -76v-80q0 -35 -17.5 -53.5t-59.5 -18.5h-257v-59q0 -47 27.5 -72t65.5 -25h221zM153 284
h218q11 0 14.5 4t3.5 16v53q0 45 -30.5 71.5t-89.5 26.5q-54 0 -85 -26.5t-31 -71.5v-73zM420 595h-103v105h103v-105zM229 595h-104v105h104v-105z" />
    <glyph glyph-name="igrave" unicode="&#xec;" horiz-adv-x="239" 
d="M134 730l80 -146h-41q-23 0 -34.5 6t-23.5 22l-91 118h110zM167 520v-550h-43q-29 0 -42 12.5t-13 42.5v495h98z" />
    <glyph glyph-name="iacute" unicode="&#xed;" horiz-adv-x="239" 
d="M209 730l-91 -118q-12 -16 -23.5 -22t-34.5 -6h-41l80 146h110zM167 520v-550h-43q-29 0 -42 12.5t-13 42.5v495h98z" />
    <glyph glyph-name="icircumflex" unicode="&#xee;" horiz-adv-x="239" 
d="M45 581h-98l114 135h97l113 -135h-98l-63 78zM167 520v-550h-43q-29 0 -42 12.5t-13 42.5v495h98z" />
    <glyph glyph-name="idieresis" unicode="&#xef;" horiz-adv-x="239" 
d="M258 595h-103v105h103v-105zM67 595h-104v105h104v-105zM167 520v-550h-43q-29 0 -42 12.5t-13 42.5v495h98z" />
    <glyph glyph-name="eth" unicode="&#xf0;" horiz-adv-x="583" 
d="M491 736l-61 -54q47 -35 67.5 -91t20.5 -128v-304q0 -101 -61 -152.5t-170 -49.5t-167.5 52t-58.5 150v132q0 93 54 145.5t166 52.5q49 0 86 -14t57 -34v33q0 16 -2 36t-8.5 40t-18.5 38.5t-32 32.5l-120 -108l-59 59l85 77q-4 0 -7 0.5t-7 0.5q-26 0 -47.5 -1.5
l-52.5 -3.5q-8 0 -15 0.5t-13 4.5t-9.5 11t-3.5 20v41q20 2 37.5 3.5t34 2.5t33.5 1.5t37 0.5q26 0 48.5 -2.5t42.5 -7.5l84 76zM156 172q0 -69 33 -101t98 -32q75 0 106 30.5t31 101.5v111q0 69 -36 97t-105 28q-62 0 -94.5 -28t-32.5 -101v-106z" />
    <glyph glyph-name="ntilde" unicode="&#xf1;" horiz-adv-x="565" 
d="M309 520q52 0 87.5 -9t57.5 -29.5t31.5 -53.5t9.5 -81v-377h-44q-29 0 -42 12.5t-13 42.5v322q0 28 -4.5 46t-14.5 28.5t-27 15t-41 4.5h-141v-471h-42q-29 0 -42.5 12.5t-13.5 42.5v495h239zM192 701q26 0 47 -8t39 -18q14 -8 27.5 -13.5t26.5 -5.5q33 0 45 45h77
q-8 -52 -36.5 -86.5t-81.5 -34.5q-30 0 -51.5 8t-41.5 19q-14 6 -26.5 12.5t-23.5 6.5q-33 0 -43 -47h-75q5 54 35.5 88t81.5 34z" />
    <glyph glyph-name="ograve" unicode="&#xf2;" horiz-adv-x="568" 
d="M283 534q109 0 166 -52t57 -164v-145q0 -112 -56.5 -164.5t-166.5 -52.5q-107 0 -165 52t-58 165v145q0 112 58 164t165 52zM408 318q0 28 -7 53t-22 44t-38.5 29.5t-57.5 10.5q-59 0 -92 -34.5t-33 -102.5v-145q0 -67 32.5 -102.5t92.5 -35.5t92.5 34.5t32.5 103.5v145z
M284 730l80 -146h-41q-23 0 -34.5 6t-23.5 22l-91 118h110z" />
    <glyph glyph-name="oacute" unicode="&#xf3;" horiz-adv-x="568" 
d="M283 534q109 0 166 -52t57 -164v-145q0 -112 -56.5 -164.5t-166.5 -52.5q-107 0 -165 52t-58 165v145q0 112 58 164t165 52zM408 318q0 28 -7 53t-22 44t-38.5 29.5t-57.5 10.5q-59 0 -92 -34.5t-33 -102.5v-145q0 -67 32.5 -102.5t92.5 -35.5t92.5 34.5t32.5 103.5v145z
M364 730l-91 -118q-12 -16 -23.5 -22t-34.5 -6h-41l80 146h110z" />
    <glyph glyph-name="ocircumflex" unicode="&#xf4;" horiz-adv-x="568" 
d="M283 534q109 0 166 -52t57 -164v-145q0 -112 -56.5 -164.5t-166.5 -52.5q-107 0 -165 52t-58 165v145q0 112 58 164t165 52zM408 318q0 28 -7 53t-22 44t-38.5 29.5t-57.5 10.5q-59 0 -92 -34.5t-33 -102.5v-145q0 -67 32.5 -102.5t92.5 -35.5t92.5 34.5t32.5 103.5v145z
M205 581h-98l114 135h97l113 -135h-98l-63 78z" />
    <glyph glyph-name="otilde" unicode="&#xf5;" horiz-adv-x="568" 
d="M283 534q109 0 166 -52t57 -164v-145q0 -112 -56.5 -164.5t-166.5 -52.5q-107 0 -165 52t-58 165v145q0 112 58 164t165 52zM408 318q0 28 -7 53t-22 44t-38.5 29.5t-57.5 10.5q-59 0 -92 -34.5t-33 -102.5v-145q0 -67 32.5 -102.5t92.5 -35.5t92.5 34.5t32.5 103.5v145z
M197 701q26 0 47 -8t39 -18q14 -8 27.5 -13.5t26.5 -5.5q33 0 45 45h77q-8 -52 -36.5 -86.5t-81.5 -34.5q-30 0 -51.5 8t-41.5 19q-14 6 -26.5 12.5t-23.5 6.5q-33 0 -43 -47h-75q5 54 35.5 88t81.5 34z" />
    <glyph glyph-name="odieresis" unicode="&#xf6;" horiz-adv-x="568" 
d="M283 534q109 0 166 -52t57 -164v-145q0 -112 -56.5 -164.5t-166.5 -52.5q-107 0 -165 52t-58 165v145q0 112 58 164t165 52zM408 318q0 28 -7 53t-22 44t-38.5 29.5t-57.5 10.5q-59 0 -92 -34.5t-33 -102.5v-145q0 -67 32.5 -102.5t92.5 -35.5t92.5 34.5t32.5 103.5v145z
M417 595h-103v105h103v-105zM226 595h-104v105h104v-105z" />
    <glyph glyph-name="divide" unicode="&#xf7;" horiz-adv-x="501" 
d="M29 380h442v-79h-442v79zM302 100h-109v114h109v-114zM302 468h-109v114h109v-114z" />
    <glyph glyph-name="oslash" unicode="&#xf8;" horiz-adv-x="564" 
d="M283 534q17 0 32.5 -1.5t29.5 -3.5l35 87h96l-47 -119q77 -52 77 -179v-145q0 -112 -56.5 -164.5t-166.5 -52.5q-37 0 -67 6l-36 -91h-95l49 124q-74 52 -74 178v145q0 112 58 164t165 52zM408 318q0 46 -18 81l-143 -360q15 -4 36 -4q60 0 92.5 34.5t32.5 103.5v145z
M283 455q-59 0 -92 -34.5t-33 -102.5v-145q0 -47 15 -78l142 357q-15 3 -32 3z" />
    <glyph glyph-name="ugrave" unicode="&#xf9;" horiz-adv-x="555" 
d="M267 -30q-52 0 -90 10t-63 33t-37 61t-12 94v352h97v-352q0 -37 5.5 -60t18 -36t32.5 -18t49 -5h121v471h98v-550h-219zM284 730l80 -146h-41q-23 0 -34.5 6t-23.5 22l-91 118h110z" />
    <glyph glyph-name="uacute" unicode="&#xfa;" horiz-adv-x="555" 
d="M267 -30q-52 0 -90 10t-63 33t-37 61t-12 94v352h97v-352q0 -37 5.5 -60t18 -36t32.5 -18t49 -5h121v471h98v-550h-219zM364 730l-91 -118q-12 -16 -23.5 -22t-34.5 -6h-41l80 146h110z" />
    <glyph glyph-name="ucircumflex" unicode="&#xfb;" horiz-adv-x="555" 
d="M267 -30q-52 0 -90 10t-63 33t-37 61t-12 94v352h97v-352q0 -37 5.5 -60t18 -36t32.5 -18t49 -5h121v471h98v-550h-219zM205 581h-98l114 135h97l113 -135h-98l-63 78z" />
    <glyph glyph-name="udieresis" unicode="&#xfc;" horiz-adv-x="555" 
d="M267 -30q-52 0 -90 10t-63 33t-37 61t-12 94v352h97v-352q0 -37 5.5 -60t18 -36t32.5 -18t49 -5h121v471h98v-550h-219zM416 595h-103v105h103v-105zM225 595h-104v105h104v-105z" />
    <glyph glyph-name="yacute" unicode="&#xfd;" horiz-adv-x="555" 
d="M90 -239v32q0 28 13.5 39.5t47.5 11.5h164q43 0 58 17.5t15 47.5v70q-37 -4 -72.5 -5.5l-80.5 -3.5q-89 -3 -130 44t-41 132v374h98v-373q0 -49 16 -73.5t61 -23.5q39 1 77.5 4t71.5 6v460h98v-612q0 -31 -9.5 -58t-30 -46.5t-53 -31t-78.5 -11.5h-225zM355 730l-91 -118
q-12 -16 -23.5 -22t-34.5 -6h-41l80 146h110z" />
    <glyph glyph-name="thorn" unicode="&#xfe;" horiz-adv-x="538" 
d="M173 721v-201h107q100 0 152.5 -44t52.5 -132v-198q0 -89 -52.5 -132.5t-152.5 -43.5h-107v-209h-44q-28 0 -41 12.5t-13 42.5v905h98zM173 49h107q48 0 77.5 26.5t29.5 80.5v178q0 55 -29 81t-77 26h-108v-392z" />
    <glyph glyph-name="ydieresis" unicode="&#xff;" horiz-adv-x="555" 
d="M90 -239v32q0 28 13.5 39.5t47.5 11.5h164q43 0 58 17.5t15 47.5v70q-37 -4 -72.5 -5.5l-80.5 -3.5q-89 -3 -130 44t-41 132v374h98v-373q0 -49 16 -73.5t61 -23.5q39 1 77.5 4t71.5 6v460h98v-612q0 -31 -9.5 -58t-30 -46.5t-53 -31t-78.5 -11.5h-225zM407 595h-103v105
h103v-105zM216 595h-104v105h104v-105z" />
    <glyph glyph-name="Amacron" unicode="&#x100;" horiz-adv-x="656" 
d="M453 235q-9 -18 -32.5 -32t-57.5 -14h-175l-70 -219h-101l250 746h85q17 0 30 -10.5t18 -25.5l240 -710h-100zM214 270h228l-114 352zM485 875v-76h-322v76h322z" />
    <glyph glyph-name="amacron" unicode="&#x101;" horiz-adv-x="537" 
d="M472 -30h-236q-84 0 -132.5 37t-48.5 109v62q0 85 48.5 122t132.5 35q41 -1 72 -3t66 -7v45q0 33 -19.5 52t-60.5 19h-135q-41 0 -52.5 13.5t-11.5 33.5v32h199q93 0 135.5 -38t42.5 -112v-400zM237 252q-44 0 -64 -17.5t-20 -60.5v-53q0 -22 8 -36t20.5 -22t27 -11
t28.5 -3h137v193q-39 5 -73 7.5t-64 2.5zM423 675v-76h-322v76h322z" />
    <glyph glyph-name="Abreve" unicode="&#x102;" horiz-adv-x="656" 
d="M453 235q-9 -18 -32.5 -32t-57.5 -14h-175l-70 -219h-101l250 746h85q17 0 30 -10.5t18 -25.5l240 -710h-100zM214 270h228l-114 352zM252 901q1 -19 8 -31.5t17 -20t22.5 -10.5t25.5 -3q12 0 24.5 3t23 10.5t17 20t7.5 31.5h75q-2 -63 -40 -97.5t-110 -34.5
q-67 0 -105.5 34.5t-40.5 97.5h76z" />
    <glyph glyph-name="abreve" unicode="&#x103;" horiz-adv-x="537" 
d="M472 -30h-236q-84 0 -132.5 37t-48.5 109v62q0 85 48.5 122t132.5 35q41 -1 72 -3t66 -7v45q0 33 -19.5 52t-60.5 19h-135q-41 0 -52.5 13.5t-11.5 33.5v32h199q93 0 135.5 -38t42.5 -112v-400zM237 252q-44 0 -64 -17.5t-20 -60.5v-53q0 -22 8 -36t20.5 -22t27 -11
t28.5 -3h137v193q-39 5 -73 7.5t-64 2.5zM190 701q1 -19 8 -31.5t17 -20t22.5 -10.5t25.5 -3q12 0 24.5 3t23 10.5t17 20t7.5 31.5h75q-2 -63 -40 -97.5t-110 -34.5q-67 0 -105.5 34.5t-40.5 97.5h76z" />
    <glyph glyph-name="Aogonek" unicode="&#x104;" horiz-adv-x="656" 
d="M453 235q-9 -18 -32.5 -32t-57.5 -14h-175l-70 -219h-101l250 746h85q17 0 30 -10.5t18 -25.5l240 -710h-15q-32 -25 -50.5 -52t-18.5 -48q0 -42 46 -42q11 0 24.5 2t23.5 7v-63q-17 -8 -35.5 -11t-34.5 -3q-51 0 -76 27t-25 65q0 35 18.5 65t44.5 53h-2zM214 270h228
l-114 352z" />
    <glyph glyph-name="aogonek" unicode="&#x105;" horiz-adv-x="537" 
d="M472 -30h-25q-32 -25 -50.5 -52t-18.5 -48q0 -42 46 -42q11 0 24.5 2t23.5 7v-63q-17 -8 -35.5 -11t-34.5 -3q-51 0 -76 27t-25 65q0 35 18.5 65t44.5 53h-128q-84 0 -132.5 37t-48.5 109v62q0 85 48.5 122t132.5 35q41 -1 72 -3t66 -7v45q0 33 -19.5 52t-60.5 19h-135
q-41 0 -52.5 13.5t-11.5 33.5v32h199q93 0 135.5 -38t42.5 -112v-400zM237 252q-44 0 -64 -17.5t-20 -60.5v-53q0 -22 8 -36t20.5 -22t27 -11t28.5 -3h137v193q-39 5 -73 7.5t-64 2.5z" />
    <glyph glyph-name="Cacute" unicode="&#x106;" horiz-adv-x="573" 
d="M537 20q0 -20 -12 -35t-54 -15h-210q-44 0 -80.5 13.5t-63 39t-41.5 60.5t-15 79v365q0 88 58.5 138.5t164.5 50.5h243v-28q0 -21 -11.5 -36t-53.5 -15h-175q-128 0 -128 -123v-345q0 -24 6.5 -45.5t20 -38t33 -26.5t46.5 -10h272v-29zM414 930l-91 -118
q-12 -16 -23.5 -22t-34.5 -6h-41l80 146h110z" />
    <glyph glyph-name="cacute" unicode="&#x107;" horiz-adv-x="498" 
d="M457 49v-29q0 -10 -2 -19t-9 -16t-19.5 -11t-33.5 -4h-127q-45 0 -82.5 13t-64.5 37t-42 58t-15 76v180q0 42 15 76.5t42 59t64.5 37.5t82.5 13h187v-27q0 -11 -2 -20t-8 -16.5t-18 -11.5t-33 -4h-126q-51 0 -78.5 -27t-27.5 -80v-179q0 -48 27.5 -77t78.5 -29h191z
M376 730l-91 -118q-12 -16 -23.5 -22t-34.5 -6h-41l80 146h110z" />
    <glyph glyph-name="Ccircumflex" unicode="&#x108;" horiz-adv-x="573" 
d="M537 20q0 -20 -12 -35t-54 -15h-210q-44 0 -80.5 13.5t-63 39t-41.5 60.5t-15 79v365q0 88 58.5 138.5t164.5 50.5h243v-28q0 -21 -11.5 -36t-53.5 -15h-175q-128 0 -128 -123v-345q0 -24 6.5 -45.5t20 -38t33 -26.5t46.5 -10h272v-29zM265 781h-98l114 135h97l113 -135
h-98l-63 78z" />
    <glyph glyph-name="ccircumflex" unicode="&#x109;" horiz-adv-x="498" 
d="M457 49v-29q0 -10 -2 -19t-9 -16t-19.5 -11t-33.5 -4h-127q-45 0 -82.5 13t-64.5 37t-42 58t-15 76v180q0 42 15 76.5t42 59t64.5 37.5t82.5 13h187v-27q0 -11 -2 -20t-8 -16.5t-18 -11.5t-33 -4h-126q-51 0 -78.5 -27t-27.5 -80v-179q0 -48 27.5 -77t78.5 -29h191z
M227 581h-98l114 135h97l113 -135h-98l-63 78z" />
    <glyph glyph-name="Cdotaccent" unicode="&#x10a;" horiz-adv-x="573" 
d="M537 20q0 -20 -12 -35t-54 -15h-210q-44 0 -80.5 13.5t-63 39t-41.5 60.5t-15 79v365q0 88 58.5 138.5t164.5 50.5h243v-28q0 -21 -11.5 -36t-53.5 -15h-175q-128 0 -128 -123v-345q0 -24 6.5 -45.5t20 -38t33 -26.5t46.5 -10h272v-29zM359 795h-104v105h104v-105z" />
    <glyph glyph-name="cdotaccent" unicode="&#x10b;" horiz-adv-x="498" 
d="M457 49v-29q0 -10 -2 -19t-9 -16t-19.5 -11t-33.5 -4h-127q-45 0 -82.5 13t-64.5 37t-42 58t-15 76v180q0 42 15 76.5t42 59t64.5 37.5t82.5 13h187v-27q0 -11 -2 -20t-8 -16.5t-18 -11.5t-33 -4h-126q-51 0 -78.5 -27t-27.5 -80v-179q0 -48 27.5 -77t78.5 -29h191z
M321 595h-104v105h104v-105z" />
    <glyph glyph-name="Ccaron" unicode="&#x10c;" horiz-adv-x="573" 
d="M537 20q0 -20 -12 -35t-54 -15h-210q-44 0 -80.5 13.5t-63 39t-41.5 60.5t-15 79v365q0 88 58.5 138.5t164.5 50.5h243v-28q0 -21 -11.5 -36t-53.5 -15h-175q-128 0 -128 -123v-345q0 -24 6.5 -45.5t20 -38t33 -26.5t46.5 -10h272v-29zM310 838l63 78h98l-113 -135h-97
l-114 135h98z" />
    <glyph glyph-name="ccaron" unicode="&#x10d;" horiz-adv-x="498" 
d="M457 49v-29q0 -10 -2 -19t-9 -16t-19.5 -11t-33.5 -4h-127q-45 0 -82.5 13t-64.5 37t-42 58t-15 76v180q0 42 15 76.5t42 59t64.5 37.5t82.5 13h187v-27q0 -11 -2 -20t-8 -16.5t-18 -11.5t-33 -4h-126q-51 0 -78.5 -27t-27.5 -80v-179q0 -48 27.5 -77t78.5 -29h191z
M282 638l63 78h98l-113 -135h-97l-114 135h98z" />
    <glyph glyph-name="Dcaron" unicode="&#x10e;" horiz-adv-x="657" 
d="M353 716q62 0 107.5 -16.5t75 -45t44 -67.5t14.5 -83v-327q0 -44 -14.5 -82t-44 -66t-75 -43.5t-107.5 -15.5h-279v746h279zM171 637v-588h182q34 0 60.5 10t45 27t28.5 40.5t10 50.5v327q0 61 -39 97t-105 36h-182zM320 838l63 78h98l-113 -135h-97l-114 135h98z" />
    <glyph glyph-name="dcaron" unicode="&#x10f;" horiz-adv-x="703" 
d="M532 602v114h123v-90q0 -52 -24 -90.5t-69 -56.5q-8 11 -14.5 19t-12.5 17q26 14 40 34.5t14 48.5v4h-57zM473 721v-751h-210q-100 0 -152.5 43.5t-52.5 132.5v198q0 88 52.5 132t152.5 44h112v201h98zM375 441h-113q-48 0 -77 -26t-29 -81v-178q0 -54 29.5 -80.5
t77.5 -26.5h112v392z" />
    <glyph glyph-name="Dcroat" unicode="&#x110;" horiz-adv-x="718" 
d="M31 384h94v332h283q61 0 105.5 -15.5t73.5 -42.5t43.5 -64t14.5 -80v-344q0 -43 -14.5 -79.5t-43.5 -63.5t-73.5 -42t-105.5 -15h-283v335h-94v79zM222 637v-253h171v-29q0 -10 -2 -19t-9 -16t-19.5 -11t-33.5 -4h-107v-256h186q66 0 103 32t37 89v344q0 61 -37 92
t-103 31h-186z" />
    <glyph glyph-name="dcroat" unicode="&#x111;" horiz-adv-x="596" 
d="M218 657h157v64h98v-64h87v-29q0 -10 -2 -19t-9 -16t-19.5 -11t-33.5 -4h-23v-608h-210q-100 0 -152.5 43.5t-52.5 132.5v198q0 88 52.5 132t152.5 44h112v58h-157v79zM375 441h-113q-48 0 -77 -26t-29 -81v-178q0 -54 29.5 -80.5t77.5 -26.5h112v392z" />
    <glyph glyph-name="Emacron" unicode="&#x112;" horiz-adv-x="592" 
d="M74 -30v746h462v-25q0 -25 -10 -39.5t-45 -14.5h-309v-232h332v-28q0 -21 -10 -36t-44 -15h-278v-277h376v-28q0 -21 -10 -36t-44 -15h-420zM457 875v-76h-322v76h322z" />
    <glyph glyph-name="emacron" unicode="&#x113;" horiz-adv-x="543" 
d="M467 49v-32q0 -21 -10.5 -34t-52.5 -13h-158q-43 0 -78.5 12.5t-60.5 35t-38.5 55t-13.5 73.5v191q0 53 17 90.5t46.5 61t68 34.5t82.5 11q47 0 87 -11.5t69 -34t45.5 -55.5t16.5 -76v-80q0 -35 -17.5 -53.5t-59.5 -18.5h-257v-59q0 -47 27.5 -72t65.5 -25h221zM153 284
h218q11 0 14.5 4t3.5 16v53q0 45 -30.5 71.5t-89.5 26.5q-54 0 -85 -26.5t-31 -71.5v-73zM427 675v-76h-322v76h322z" />
    <glyph glyph-name="Ebreve" unicode="&#x114;" horiz-adv-x="592" 
d="M74 -30v746h462v-25q0 -25 -10 -39.5t-45 -14.5h-309v-232h332v-28q0 -21 -10 -36t-44 -15h-278v-277h376v-28q0 -21 -10 -36t-44 -15h-420zM224 901q1 -19 8 -31.5t17 -20t22.5 -10.5t25.5 -3q12 0 24.5 3t23 10.5t17 20t7.5 31.5h75q-2 -63 -40 -97.5t-110 -34.5
q-67 0 -105.5 34.5t-40.5 97.5h76z" />
    <glyph glyph-name="ebreve" unicode="&#x115;" horiz-adv-x="543" 
d="M467 49v-32q0 -21 -10.5 -34t-52.5 -13h-158q-43 0 -78.5 12.5t-60.5 35t-38.5 55t-13.5 73.5v191q0 53 17 90.5t46.5 61t68 34.5t82.5 11q47 0 87 -11.5t69 -34t45.5 -55.5t16.5 -76v-80q0 -35 -17.5 -53.5t-59.5 -18.5h-257v-59q0 -47 27.5 -72t65.5 -25h221zM153 284
h218q11 0 14.5 4t3.5 16v53q0 45 -30.5 71.5t-89.5 26.5q-54 0 -85 -26.5t-31 -71.5v-73zM194 701q1 -19 8 -31.5t17 -20t22.5 -10.5t25.5 -3q12 0 24.5 3t23 10.5t17 20t7.5 31.5h75q-2 -63 -40 -97.5t-110 -34.5q-67 0 -105.5 34.5t-40.5 97.5h76z" />
    <glyph glyph-name="Edotaccent" unicode="&#x116;" horiz-adv-x="592" 
d="M74 -30v746h462v-25q0 -25 -10 -39.5t-45 -14.5h-309v-232h332v-28q0 -21 -10 -36t-44 -15h-278v-277h376v-28q0 -21 -10 -36t-44 -15h-420zM348 795h-104v105h104v-105z" />
    <glyph glyph-name="edotaccent" unicode="&#x117;" horiz-adv-x="543" 
d="M467 49v-32q0 -21 -10.5 -34t-52.5 -13h-158q-43 0 -78.5 12.5t-60.5 35t-38.5 55t-13.5 73.5v191q0 53 17 90.5t46.5 61t68 34.5t82.5 11q47 0 87 -11.5t69 -34t45.5 -55.5t16.5 -76v-80q0 -35 -17.5 -53.5t-59.5 -18.5h-257v-59q0 -47 27.5 -72t65.5 -25h221zM153 284
h218q11 0 14.5 4t3.5 16v53q0 45 -30.5 71.5t-89.5 26.5q-54 0 -85 -26.5t-31 -71.5v-73zM318 595h-104v105h104v-105z" />
    <glyph glyph-name="Eogonek" unicode="&#x118;" horiz-adv-x="592" 
d="M74 -30v746h462v-25q0 -25 -10 -39.5t-45 -14.5h-309v-232h332v-28q0 -21 -10 -36t-44 -15h-278v-277h376v-28q0 -20 -10 -35t-43 -16q-32 -25 -50.5 -52t-18.5 -48q0 -42 46 -42q11 0 24.5 2t23.5 7v-63q-17 -8 -35.5 -11t-34.5 -3q-51 0 -76 27t-25 65q0 35 18.5 65
t44.5 53h-338z" />
    <glyph glyph-name="eogonek" unicode="&#x119;" horiz-adv-x="543" 
d="M467 49v-32q0 -19 -8.5 -31.5t-41.5 -14.5q-33 -25 -51.5 -52.5t-18.5 -48.5q0 -42 46 -42q11 0 24.5 2t23.5 7v-63q-17 -8 -35.5 -11t-34.5 -3q-51 0 -76 27t-25 65q0 35 18.5 65t44.5 53h-87q-43 0 -78.5 12.5t-60.5 35t-38.5 55t-13.5 73.5v191q0 53 17 90.5t46.5 61
t68 34.5t82.5 11q47 0 87 -11.5t69 -34t45.5 -55.5t16.5 -76v-80q0 -35 -17.5 -53.5t-59.5 -18.5h-257v-59q0 -47 27.5 -72t65.5 -25h221zM153 284h218q11 0 14.5 4t3.5 16v53q0 45 -30.5 71.5t-89.5 26.5q-54 0 -85 -26.5t-31 -71.5v-73z" />
    <glyph glyph-name="Ecaron" unicode="&#x11a;" horiz-adv-x="592" 
d="M74 -30v746h462v-25q0 -25 -10 -39.5t-45 -14.5h-309v-232h332v-28q0 -21 -10 -36t-44 -15h-278v-277h376v-28q0 -21 -10 -36t-44 -15h-420zM297 838l63 78h98l-113 -135h-97l-114 135h98z" />
    <glyph glyph-name="ecaron" unicode="&#x11b;" horiz-adv-x="543" 
d="M467 49v-32q0 -21 -10.5 -34t-52.5 -13h-158q-43 0 -78.5 12.5t-60.5 35t-38.5 55t-13.5 73.5v191q0 53 17 90.5t46.5 61t68 34.5t82.5 11q47 0 87 -11.5t69 -34t45.5 -55.5t16.5 -76v-80q0 -35 -17.5 -53.5t-59.5 -18.5h-257v-59q0 -47 27.5 -72t65.5 -25h221zM153 284
h218q11 0 14.5 4t3.5 16v53q0 45 -30.5 71.5t-89.5 26.5q-54 0 -85 -26.5t-31 -71.5v-73zM267 638l63 78h98l-113 -135h-97l-114 135h98z" />
    <glyph glyph-name="Gcircumflex" unicode="&#x11c;" horiz-adv-x="664" 
d="M582 716v-26q0 -28 -13.5 -40.5t-48.5 -12.5h-239q-50 0 -83 -30t-33 -84v-358q0 -48 29 -82t87 -34h122q49 0 73.5 31.5t24.5 75.5v134q0 13 -5 16.5t-14 3.5h-98q-31 0 -45 9t-14 36v34h199q42 0 58.5 -19.5t16.5 -57.5v-156q0 -47 -14.5 -82t-40 -58t-61.5 -34.5
t-79 -11.5h-123q-47 0 -86 12t-67.5 36.5t-44.5 61.5t-16 86v357q0 46 16.5 82t45.5 61t68 37.5t84 12.5h301zM268 781h-98l114 135h97l113 -135h-98l-63 78z" />
    <glyph glyph-name="gcircumflex" unicode="&#x11d;" horiz-adv-x="555" 
d="M318 -160q35 0 52 19t17 50v61h-131q-92 0 -144 45t-52 131v199q0 87 53.5 131t142.5 44h229v-613q0 -27 -8 -53t-26.5 -47t-50 -33.5t-79.5 -12.5h-213v32q0 47 59 47h151zM158 145q0 -30 9.5 -49t24 -29.5t32 -14t32.5 -3.5h131v392h-131q-51 0 -74.5 -27.5
t-23.5 -69.5v-199zM202 581h-98l114 135h97l113 -135h-98l-63 78z" />
    <glyph glyph-name="Gbreve" unicode="&#x11e;" horiz-adv-x="664" 
d="M582 716v-26q0 -28 -13.5 -40.5t-48.5 -12.5h-239q-50 0 -83 -30t-33 -84v-358q0 -48 29 -82t87 -34h122q49 0 73.5 31.5t24.5 75.5v134q0 13 -5 16.5t-14 3.5h-98q-31 0 -45 9t-14 36v34h199q42 0 58.5 -19.5t16.5 -57.5v-156q0 -47 -14.5 -82t-40 -58t-61.5 -34.5
t-79 -11.5h-123q-47 0 -86 12t-67.5 36.5t-44.5 61.5t-16 86v357q0 46 16.5 82t45.5 61t68 37.5t84 12.5h301zM260 901q1 -19 8 -31.5t17 -20t22.5 -10.5t25.5 -3q12 0 24.5 3t23 10.5t17 20t7.5 31.5h75q-2 -63 -40 -97.5t-110 -34.5q-67 0 -105.5 34.5t-40.5 97.5h76z" />
    <glyph glyph-name="gbreve" unicode="&#x11f;" horiz-adv-x="555" 
d="M318 -160q35 0 52 19t17 50v61h-131q-92 0 -144 45t-52 131v199q0 87 53.5 131t142.5 44h229v-613q0 -27 -8 -53t-26.5 -47t-50 -33.5t-79.5 -12.5h-213v32q0 47 59 47h151zM158 145q0 -30 9.5 -49t24 -29.5t32 -14t32.5 -3.5h131v392h-131q-51 0 -74.5 -27.5
t-23.5 -69.5v-199zM194 701q1 -19 8 -31.5t17 -20t22.5 -10.5t25.5 -3q12 0 24.5 3t23 10.5t17 20t7.5 31.5h75q-2 -63 -40 -97.5t-110 -34.5q-67 0 -105.5 34.5t-40.5 97.5h76z" />
    <glyph glyph-name="Gdotaccent" unicode="&#x120;" horiz-adv-x="664" 
d="M582 716v-26q0 -28 -13.5 -40.5t-48.5 -12.5h-239q-50 0 -83 -30t-33 -84v-358q0 -48 29 -82t87 -34h122q49 0 73.5 31.5t24.5 75.5v134q0 13 -5 16.5t-14 3.5h-98q-31 0 -45 9t-14 36v34h199q42 0 58.5 -19.5t16.5 -57.5v-156q0 -47 -14.5 -82t-40 -58t-61.5 -34.5
t-79 -11.5h-123q-47 0 -86 12t-67.5 36.5t-44.5 61.5t-16 86v357q0 46 16.5 82t45.5 61t68 37.5t84 12.5h301zM384 795h-104v105h104v-105z" />
    <glyph glyph-name="gdotaccent" unicode="&#x121;" horiz-adv-x="555" 
d="M318 -160q35 0 52 19t17 50v61h-131q-92 0 -144 45t-52 131v199q0 87 53.5 131t142.5 44h229v-613q0 -27 -8 -53t-26.5 -47t-50 -33.5t-79.5 -12.5h-213v32q0 47 59 47h151zM158 145q0 -30 9.5 -49t24 -29.5t32 -14t32.5 -3.5h131v392h-131q-51 0 -74.5 -27.5
t-23.5 -69.5v-199zM318 595h-104v105h104v-105z" />
    <glyph glyph-name="Gcommaaccent" unicode="&#x122;" horiz-adv-x="664" 
d="M582 716v-26q0 -28 -13.5 -40.5t-48.5 -12.5h-239q-50 0 -83 -30t-33 -84v-358q0 -48 29 -82t87 -34h122q49 0 73.5 31.5t24.5 75.5v134q0 13 -5 16.5t-14 3.5h-98q-31 0 -45 9t-14 36v34h199q42 0 58.5 -19.5t16.5 -57.5v-156q0 -47 -14.5 -82t-40 -58t-61.5 -34.5
t-79 -11.5h-123q-47 0 -86 12t-67.5 36.5t-44.5 61.5t-16 86v357q0 46 16.5 82t45.5 61t68 37.5t84 12.5h301zM270 -193v114h123v-94q0 -52 -26 -85t-67 -48l-27 36q26 14 40 32.5t14 44.5h-57z" />
    <glyph glyph-name="gcommaaccent" unicode="&#x123;" horiz-adv-x="555" 
d="M347 685v-114h-123v94q0 52 24 90.5t69 56.5q8 -11 14.5 -19t12.5 -17q-26 -14 -40 -34.5t-14 -48.5v-8h57zM318 -160q35 0 52 19t17 50v61h-131q-92 0 -144 45t-52 131v199q0 87 53.5 131t142.5 44h229v-613q0 -27 -8 -53t-26.5 -47t-50 -33.5t-79.5 -12.5h-213v32
q0 47 59 47h151zM158 145q0 -30 9.5 -49t24 -29.5t32 -14t32.5 -3.5h131v392h-131q-51 0 -74.5 -27.5t-23.5 -69.5v-199z" />
    <glyph glyph-name="Hcircumflex" unicode="&#x124;" horiz-adv-x="672" 
d="M595 716v-746h-43q-29 0 -42 12.5t-13 41.5v346q-28 -44 -88 -44h-237v-356h-44q-29 0 -41.5 12.5t-12.5 41.5v692h98v-311h325v311h98zM272 781h-98l114 135h97l113 -135h-98l-63 78z" />
    <glyph glyph-name="hcircumflex" unicode="&#x125;" horiz-adv-x="568" 
d="M172 441v-471h-44q-29 0 -41.5 12.5t-12.5 42.5v696h98v-201h146q94 0 139 -41t45 -124v-385h-43q-29 0 -42 12.5t-13 42.5v329q0 47 -23 67t-63 20h-146zM232 781h-98l114 135h97l113 -135h-98l-63 78z" />
    <glyph glyph-name="Hbar" unicode="&#x126;" horiz-adv-x="706" 
d="M611 716v-116h73v-30q0 -10 -2 -19t-9 -16t-19.5 -11t-33.5 -4h-9v-550h-43q-29 0 -42 12.5t-13 41.5v346q-20 -44 -78 -44h-247v-356h-44q-29 0 -41.5 12.5t-12.5 41.5v496h-70v80h70v116h98v-116h325v116h98zM513 405v115h-325v-115h325z" />
    <glyph glyph-name="hbar" unicode="&#x127;" horiz-adv-x="589" 
d="M190 441v-471h-44q-29 0 -41.5 12.5t-12.5 42.5v554h-69v80h69v62h98v-62h195v-30q0 -10 -2 -19t-9 -16t-19.5 -11t-33.5 -4h-131v-59h146q94 0 139 -41t45 -124v-385h-43q-29 0 -42 12.5t-13 42.5v329q0 47 -23 67t-63 20h-146z" />
    <glyph glyph-name="Itilde" unicode="&#x128;" horiz-adv-x="263" 
d="M183 716v-746h-45q-29 0 -41.5 12.5t-12.5 41.5v692h99zM59 901q26 0 47 -8t39 -18q14 -8 27.5 -13.5t26.5 -5.5q33 0 45 45h77q-8 -52 -36.5 -86.5t-81.5 -34.5q-30 0 -51.5 8t-41.5 19q-14 6 -26.5 12.5t-23.5 6.5q-33 0 -43 -47h-75q5 54 35.5 88t81.5 34z" />
    <glyph glyph-name="itilde" unicode="&#x129;" horiz-adv-x="237" 
d="M46 701q26 0 47 -8t39 -18q14 -8 27.5 -13.5t26.5 -5.5q33 0 45 45h77q-8 -52 -36.5 -86.5t-81.5 -34.5q-30 0 -51.5 8t-41.5 19q-14 6 -26.5 12.5t-23.5 6.5q-33 0 -43 -47h-75q5 54 35.5 88t81.5 34zM172 520v-550h-43q-29 0 -42 12.5t-13 42.5v495h98z" />
    <glyph glyph-name="Imacron" unicode="&#x12a;" horiz-adv-x="263" 
d="M183 716v-746h-45q-29 0 -41.5 12.5t-12.5 41.5v692h99zM295 875v-76h-322v76h322z" />
    <glyph glyph-name="imacron" unicode="&#x12b;" horiz-adv-x="239" 
d="M270 675v-76h-322v76h322zM167 520v-550h-43q-29 0 -42 12.5t-13 42.5v495h98z" />
    <glyph glyph-name="Ibreve" unicode="&#x12c;" horiz-adv-x="263" 
d="M183 716v-746h-45q-29 0 -41.5 12.5t-12.5 41.5v692h99zM60 901q1 -19 8 -31.5t17 -20t22.5 -10.5t25.5 -3q12 0 24.5 3t23 10.5t17 20t7.5 31.5h75q-2 -63 -40 -97.5t-110 -34.5q-67 0 -105.5 34.5t-40.5 97.5h76z" />
    <glyph glyph-name="ibreve" unicode="&#x12d;" horiz-adv-x="237" 
d="M167 520v-550h-43q-29 0 -42 12.5t-13 42.5v495h98zM43 701q1 -19 8 -31.5t17 -20t22.5 -10.5t25.5 -3q12 0 24.5 3t23 10.5t17 20t7.5 31.5h75q-2 -63 -40 -97.5t-110 -34.5q-67 0 -105.5 34.5t-40.5 97.5h76z" />
    <glyph glyph-name="Iogonek" unicode="&#x12e;" horiz-adv-x="263" 
d="M183 -30h-4q-32 -25 -50.5 -52t-18.5 -48q0 -42 46 -42q11 0 24.5 2t23.5 7v-63q-17 -8 -35.5 -11t-34.5 -3q-51 0 -76 27t-25 65t21 69.5t50 54.5q-20 13 -20 48v692h99v-746z" />
    <glyph glyph-name="iogonek" unicode="&#x12f;" horiz-adv-x="237" 
d="M172 -30h-4q-32 -25 -50.5 -52t-18.5 -48q0 -42 46 -42q11 0 24.5 2t23.5 7v-63q-17 -8 -35.5 -11t-34.5 -3q-51 0 -76 27t-25 65t21 69.5t50 54.5q-19 12 -19 49v495h98v-550zM72 721h102v-125h-34q-28 0 -48 16t-20 45v64z" />
    <glyph glyph-name="Idotaccent" unicode="&#x130;" horiz-adv-x="263" 
d="M183 716v-746h-45q-29 0 -41.5 12.5t-12.5 41.5v692h99zM183 795h-104v105h104v-105z" />
    <glyph glyph-name="dotlessi" unicode="&#x131;" horiz-adv-x="239" 
d="M167 520v-550h-43q-29 0 -42 12.5t-13 42.5v495h98z" />
    <glyph glyph-name="IJ" unicode="&#x132;" horiz-adv-x="676" 
d="M183 716v-746h-45q-29 0 -41.5 12.5t-12.5 41.5v692h99zM397 49q54 0 79.5 24t25.5 86v557h99v-557q0 -97 -49 -143t-155 -46h-121v31q0 27 13 37.5t45 10.5h63z" />
    <glyph glyph-name="ij" unicode="&#x133;" horiz-adv-x="552" 
d="M172 520v-550h-43q-29 0 -42 12.5t-13 42.5v495h98zM72 721h102v-125h-34q-28 0 -48 16t-20 45v64zM377 721h102v-125h-35q-28 0 -47.5 16t-19.5 45v64zM379 520h98v-601q0 -83 -37.5 -120.5t-116.5 -37.5h-97v31q0 24 15 36.5t39 12.5h43q37 0 46.5 20.5t9.5 57.5v601z
" />
    <glyph glyph-name="Jcircumflex" unicode="&#x134;" horiz-adv-x="413" 
d="M134 49q54 0 79.5 24t25.5 86v557h99v-557q0 -97 -49 -143t-155 -46h-121v31q0 27 13 37.5t45 10.5h63zM232 781h-98l114 135h97l113 -135h-98l-63 78z" />
    <glyph glyph-name="jcircumflex" unicode="&#x135;" horiz-adv-x="315" 
d="M142 520h98v-601q0 -83 -37.5 -120.5t-116.5 -37.5h-97v31q0 24 15 36.5t39 12.5h43q37 0 46.5 20.5t9.5 57.5v601zM124 581h-98l114 135h97l113 -135h-98l-63 78z" />
    <glyph glyph-name="Kcommaaccent" unicode="&#x136;" horiz-adv-x="619" 
d="M206 355l276 361h119l-276 -360l290 -386h-118zM172 716v-746h-45q-28 0 -40.5 13t-12.5 42v691h98zM248 -193v114h123v-94q0 -52 -26 -85t-67 -48l-27 36q26 14 40 32.5t14 44.5h-57z" />
    <glyph glyph-name="kcommaaccent" unicode="&#x137;" horiz-adv-x="539" 
d="M75 721h98v-751h-43q-29 0 -42 12.5t-13 42.5v696zM406 520h113l-214 -255l226 -295h-109l-227 296zM208 -193v114h123v-94q0 -52 -26 -85t-67 -48l-27 36q26 14 40 32.5t14 44.5h-57z" />
    <glyph glyph-name="kgreenlandic" unicode="&#x138;" horiz-adv-x="539" 
d="M75 520h98v-550h-43q-29 0 -42 12.5t-13 42.5v495zM406 520h113l-214 -255l226 -295h-109l-227 296z" />
    <glyph glyph-name="Lacute" unicode="&#x139;" horiz-adv-x="538" 
d="M172 49h348v-28q0 -27 -11 -39t-41 -12h-394v746h98v-667zM364 930l-91 -118q-12 -16 -23.5 -22t-34.5 -6h-41l80 146h110z" />
    <glyph glyph-name="lacute" unicode="&#x13a;" horiz-adv-x="251" 
d="M171 721v-751h-44q-28 0 -41 12.5t-13 42.5v696h98zM216 930l-91 -118q-12 -16 -23.5 -22t-34.5 -6h-41l80 146h110z" />
    <glyph glyph-name="Lcommaaccent" unicode="&#x13b;" horiz-adv-x="538" 
d="M172 49h348v-28q0 -27 -11 -39t-41 -12h-394v746h98v-667zM207 -193v114h123v-94q0 -52 -26 -85t-67 -48l-27 36q26 14 40 32.5t14 44.5h-57z" />
    <glyph glyph-name="lcommaaccent" unicode="&#x13c;" horiz-adv-x="251" 
d="M171 721v-751h-44q-28 0 -41 12.5t-13 42.5v696h98zM62 -193v114h123v-94q0 -52 -26 -85t-67 -48l-27 36q26 14 40 32.5t14 44.5h-57z" />
    <glyph glyph-name="Lcaron" unicode="&#x13d;" horiz-adv-x="538" 
d="M309 602v114h123v-90q0 -52 -24 -90.5t-69 -56.5q-8 11 -14.5 19t-12.5 17q26 14 40 34.5t14 48.5v4h-57zM172 49h348v-28q0 -27 -11 -39t-41 -12h-394v746h98v-667z" />
    <glyph glyph-name="lcaron" unicode="&#x13e;" horiz-adv-x="420" 
d="M240 602v114h123v-90q0 -52 -24 -90.5t-69 -56.5q-8 11 -14.5 19t-12.5 17q26 14 40 34.5t14 48.5v4h-57zM171 721v-751h-44q-28 0 -41 12.5t-13 42.5v696h98z" />
    <glyph glyph-name="Ldot" unicode="&#x13f;" horiz-adv-x="538" 
d="M172 49h348v-28q0 -27 -11 -39t-41 -12h-394v746h98v-667zM410 320h-109v114h109v-114z" />
    <glyph glyph-name="ldot" unicode="&#x140;" horiz-adv-x="441" 
d="M171 721v-751h-44q-28 0 -41 12.5t-13 42.5v696h98zM380 304h-109v114h109v-114z" />
    <glyph glyph-name="Lslash" unicode="&#x141;" horiz-adv-x="645" 
d="M267 49h348v-28q0 -27 -11 -39t-41 -12h-394v320l-89 -69l-53 63l142 110v322h98v-245l78 61l52 -64l-130 -101v-318z" />
    <glyph glyph-name="lslash" unicode="&#x142;" horiz-adv-x="426" 
d="M27 284l140 109v328h98v-252l80 63l52 -64l-132 -103v-395h-44q-28 0 -41 12.5t-13 42.5v264l-87 -68z" />
    <glyph glyph-name="Nacute" unicode="&#x143;" horiz-adv-x="669" 
d="M74 716h309q52 0 92 -8.5t66 -30.5t39.5 -60t13.5 -96v-551h-43q-29 0 -42 12.5t-13 41.5v498q0 33 -6 55.5t-19 35.5t-35 18.5t-53 5.5h-211v-667h-44q-29 0 -41.5 12.5t-12.5 41.5v692zM442 930l-91 -118q-12 -16 -23.5 -22t-34.5 -6h-41l80 146h110z" />
    <glyph glyph-name="nacute" unicode="&#x144;" horiz-adv-x="565" 
d="M309 520q52 0 87.5 -9t57.5 -29.5t31.5 -53.5t9.5 -81v-377h-44q-29 0 -42 12.5t-13 42.5v322q0 28 -4.5 46t-14.5 28.5t-27 15t-41 4.5h-141v-471h-42q-29 0 -42.5 12.5t-13.5 42.5v495h239zM359 730l-91 -118q-12 -16 -23.5 -22t-34.5 -6h-41l80 146h110z" />
    <glyph glyph-name="Ncommaaccent" unicode="&#x145;" horiz-adv-x="669" 
d="M74 716h309q52 0 92 -8.5t66 -30.5t39.5 -60t13.5 -96v-551h-43q-29 0 -42 12.5t-13 41.5v498q0 33 -6 55.5t-19 35.5t-35 18.5t-53 5.5h-211v-667h-44q-29 0 -41.5 12.5t-12.5 41.5v692zM286 -193v114h123v-94q0 -52 -26 -85t-67 -48l-27 36q26 14 40 32.5t14 44.5h-57z
" />
    <glyph glyph-name="ncommaaccent" unicode="&#x146;" horiz-adv-x="565" 
d="M309 520q52 0 87.5 -9t57.5 -29.5t31.5 -53.5t9.5 -81v-377h-44q-29 0 -42 12.5t-13 42.5v322q0 28 -4.5 46t-14.5 28.5t-27 15t-41 4.5h-141v-471h-42q-29 0 -42.5 12.5t-13.5 42.5v495h239zM203 -193v114h123v-94q0 -52 -26 -85t-67 -48l-27 36q26 14 40 32.5t14 44.5
h-57z" />
    <glyph glyph-name="Ncaron" unicode="&#x147;" horiz-adv-x="669" 
d="M74 716h309q52 0 92 -8.5t66 -30.5t39.5 -60t13.5 -96v-551h-43q-29 0 -42 12.5t-13 41.5v498q0 33 -6 55.5t-19 35.5t-35 18.5t-53 5.5h-211v-667h-44q-29 0 -41.5 12.5t-12.5 41.5v692zM338 838l63 78h98l-113 -135h-97l-114 135h98z" />
    <glyph glyph-name="ncaron" unicode="&#x148;" horiz-adv-x="565" 
d="M309 520q52 0 87.5 -9t57.5 -29.5t31.5 -53.5t9.5 -81v-377h-44q-29 0 -42 12.5t-13 42.5v322q0 28 -4.5 46t-14.5 28.5t-27 15t-41 4.5h-141v-471h-42q-29 0 -42.5 12.5t-13.5 42.5v495h239zM277 638l63 78h98l-113 -135h-97l-114 135h98z" />
    <glyph glyph-name="napostrophe" unicode="&#x149;" horiz-adv-x="710" 
d="M40 602v114h123v-90q0 -52 -24 -90.5t-69 -56.5q-8 11 -14.5 19t-12.5 17q26 14 40 34.5t14 48.5v4h-57zM454 520q52 0 87.5 -9t57.5 -29.5t31.5 -53.5t9.5 -81v-377h-44q-29 0 -42 12.5t-13 42.5v322q0 28 -4.5 46t-14.5 28.5t-27 15t-41 4.5h-141v-471h-42
q-29 0 -42.5 12.5t-13.5 42.5v495h239z" />
    <glyph glyph-name="Eng" unicode="&#x14a;" horiz-adv-x="669" 
d="M74 716h309q52 0 92 -8.5t66 -30.5t39.5 -60t13.5 -96v-571q0 -97 -49 -143t-155 -46h-121v31q0 27 13 37.5t45 10.5h63q54 0 80 24t26 86v572q0 33 -6 55.5t-19 35.5t-35 18.5t-53 5.5h-211v-667h-44q-29 0 -41.5 12.5t-12.5 41.5v692z" />
    <glyph glyph-name="eng" unicode="&#x14b;" horiz-adv-x="563" 
d="M289 -160q54 0 80.5 24t26.5 86v382q0 56 -26.5 82.5t-75.5 26.5h-126v-471h-42q-29 0 -42.5 12.5t-13.5 42.5v495h224q105 0 153 -46t48 -142v-382q0 -97 -50 -143t-156 -46h-121v31q0 27 13 37.5t45 10.5h63z" />
    <glyph glyph-name="Omacron" unicode="&#x14c;" horiz-adv-x="695" 
d="M346 730q148 0 218 -83t70 -234v-141q0 -151 -70 -233.5t-218 -82.5q-147 0 -217 82.5t-70 234.5v140q0 152 70 234.5t217 82.5zM536 414q0 51 -12 93.5t-35.5 73t-59 48t-83.5 17.5q-47 0 -82.5 -17.5t-59 -48t-35.5 -73.5t-12 -94v-141q0 -232 189 -232q190 0 190 233
v141zM508 875v-76h-322v76h322z" />
    <glyph glyph-name="omacron" unicode="&#x14d;" horiz-adv-x="568" 
d="M283 534q109 0 166 -52t57 -164v-145q0 -112 -56.5 -164.5t-166.5 -52.5q-107 0 -165 52t-58 165v145q0 112 58 164t165 52zM408 318q0 28 -7 53t-22 44t-38.5 29.5t-57.5 10.5q-59 0 -92 -34.5t-33 -102.5v-145q0 -67 32.5 -102.5t92.5 -35.5t92.5 34.5t32.5 103.5v145z
M450 675v-76h-322v76h322z" />
    <glyph glyph-name="Obreve" unicode="&#x14e;" horiz-adv-x="695" 
d="M346 730q148 0 218 -83t70 -234v-141q0 -151 -70 -233.5t-218 -82.5q-147 0 -217 82.5t-70 234.5v140q0 152 70 234.5t217 82.5zM536 414q0 51 -12 93.5t-35.5 73t-59 48t-83.5 17.5q-47 0 -82.5 -17.5t-59 -48t-35.5 -73.5t-12 -94v-141q0 -232 189 -232q190 0 190 233
v141zM278 901q1 -19 8 -31.5t17 -20t22.5 -10.5t25.5 -3q12 0 24.5 3t23 10.5t17 20t7.5 31.5h75q-2 -63 -40 -97.5t-110 -34.5q-67 0 -105.5 34.5t-40.5 97.5h76z" />
    <glyph glyph-name="obreve" unicode="&#x14f;" horiz-adv-x="568" 
d="M283 534q109 0 166 -52t57 -164v-145q0 -112 -56.5 -164.5t-166.5 -52.5q-107 0 -165 52t-58 165v145q0 112 58 164t165 52zM408 318q0 28 -7 53t-22 44t-38.5 29.5t-57.5 10.5q-59 0 -92 -34.5t-33 -102.5v-145q0 -67 32.5 -102.5t92.5 -35.5t92.5 34.5t32.5 103.5v145z
M210 701q1 -19 8 -31.5t17 -20t22.5 -10.5t25.5 -3q12 0 24.5 3t23 10.5t17 20t7.5 31.5h75q-2 -63 -40 -97.5t-110 -34.5q-67 0 -105.5 34.5t-40.5 97.5h76z" />
    <glyph glyph-name="Ohungarumlaut" unicode="&#x150;" horiz-adv-x="695" 
d="M346 730q148 0 218 -83t70 -234v-141q0 -151 -70 -233.5t-218 -82.5q-147 0 -217 82.5t-70 234.5v140q0 152 70 234.5t217 82.5zM536 414q0 51 -12 93.5t-35.5 73t-59 48t-83.5 17.5q-47 0 -82.5 -17.5t-59 -48t-35.5 -73.5t-12 -94v-141q0 -232 189 -232q190 0 190 233
v141zM372 930l-91 -118q-12 -16 -23.5 -22t-34.5 -6h-41l80 146h110zM522 930l-91 -118q-12 -16 -23.5 -22t-34.5 -6h-41l80 146h110z" />
    <glyph glyph-name="ohungarumlaut" unicode="&#x151;" horiz-adv-x="568" 
d="M283 534q109 0 166 -52t57 -164v-145q0 -112 -56.5 -164.5t-166.5 -52.5q-107 0 -165 52t-58 165v145q0 112 58 164t165 52zM408 318q0 28 -7 53t-22 44t-38.5 29.5t-57.5 10.5q-59 0 -92 -34.5t-33 -102.5v-145q0 -67 32.5 -102.5t92.5 -35.5t92.5 34.5t32.5 103.5v145z
M306 730l-91 -118q-12 -16 -23.5 -22t-34.5 -6h-41l80 146h110zM456 730l-91 -118q-12 -16 -23.5 -22t-34.5 -6h-41l80 146h110z" />
    <glyph glyph-name="OE" unicode="&#x152;" horiz-adv-x="961" 
d="M347 -44q-147 0 -217 82.5t-70 234.5v140q0 152 70 234.5t217 82.5q30 0 56.5 -3.5t50.5 -10.5h455v-25q0 -25 -10 -39.5t-45 -14.5h-309v-232h332v-28q0 -21 -10 -36t-44 -15h-278v-277h376v-28q0 -21 -10 -36t-44 -15h-414q-48 -14 -106 -14zM347 646
q-47 0 -82.5 -17.5t-59 -49t-35.5 -74t-12 -92.5v-141q0 -114 47.5 -173t141.5 -59q60 0 100 22v556q-42 28 -100 28z" />
    <glyph glyph-name="oe" unicode="&#x153;" horiz-adv-x="894" 
d="M820 49v-32q0 -21 -10.5 -34t-52.5 -13h-158q-45 0 -80 13t-61 36q-56 -63 -175 -63q-107 0 -165 52t-58 165v145q0 112 58 164t165 52q116 0 173 -60q29 32 72.5 46t93.5 14q47 0 87 -11.5t69 -34t45.5 -55.5t16.5 -76v-80q0 -35 -17.5 -53.5t-59.5 -18.5h-257v-59
q0 -47 27.5 -72t65.5 -25h221zM408 323q0 28 -7.5 52t-22.5 42t-38.5 28t-56.5 10q-59 0 -92 -34.5t-33 -102.5v-145q0 -67 32.5 -102.5t92.5 -35.5t92.5 34.5t32.5 103.5v150zM506 284h218q11 0 14.5 4t3.5 16v53q0 45 -30.5 71.5t-89.5 26.5q-54 0 -85 -26.5t-31 -71.5
v-73z" />
    <glyph glyph-name="Racute" unicode="&#x154;" horiz-adv-x="630" 
d="M171 293v-323h-45q-28 0 -40.5 12.5t-12.5 41.5v692h294q53 0 92 -13.5t64.5 -36.5t38 -54t12.5 -67v-75q0 -27 -6.5 -52.5t-21.5 -47t-39.5 -39t-59.5 -27.5l155 -334h-106l-148 323h-177zM171 635v-261h196q109 0 109 105v56q0 47 -26.5 73.5t-82.5 26.5h-196zM409 930
l-91 -118q-12 -16 -23.5 -22t-34.5 -6h-41l80 146h110z" />
    <glyph glyph-name="racute" unicode="&#x155;" horiz-adv-x="408" 
d="M165 -30h-44q-28 0 -41 12.5t-13 42.5v358q0 66 33 101.5t111 35.5h178v-21q0 -33 -20 -45.5t-51 -12.5h-107q-27 0 -36.5 -17t-9.5 -41v-413zM312 730l-91 -118q-12 -16 -23.5 -22t-34.5 -6h-41l80 146h110z" />
    <glyph glyph-name="Rcommaaccent" unicode="&#x156;" horiz-adv-x="630" 
d="M171 293v-323h-45q-28 0 -40.5 12.5t-12.5 41.5v692h294q53 0 92 -13.5t64.5 -36.5t38 -54t12.5 -67v-75q0 -27 -6.5 -52.5t-21.5 -47t-39.5 -39t-59.5 -27.5l155 -334h-106l-148 323h-177zM171 635v-261h196q109 0 109 105v56q0 47 -26.5 73.5t-82.5 26.5h-196z
M253 -193v114h123v-94q0 -52 -26 -85t-67 -48l-27 36q26 14 40 32.5t14 44.5h-57z" />
    <glyph glyph-name="rcommaaccent" unicode="&#x157;" horiz-adv-x="408" 
d="M165 -30h-44q-28 0 -41 12.5t-13 42.5v358q0 66 33 101.5t111 35.5h178v-21q0 -33 -20 -45.5t-51 -12.5h-107q-27 0 -36.5 -17t-9.5 -41v-413zM115 -193v114h123v-94q0 -52 -26 -85t-67 -48l-27 36q26 14 40 32.5t14 44.5h-57z" />
    <glyph glyph-name="Rcaron" unicode="&#x158;" horiz-adv-x="630" 
d="M171 293v-323h-45q-28 0 -40.5 12.5t-12.5 41.5v692h294q53 0 92 -13.5t64.5 -36.5t38 -54t12.5 -67v-75q0 -27 -6.5 -52.5t-21.5 -47t-39.5 -39t-59.5 -27.5l155 -334h-106l-148 323h-177zM171 635v-261h196q109 0 109 105v56q0 47 -26.5 73.5t-82.5 26.5h-196zM315 838
l63 78h98l-113 -135h-97l-114 135h98z" />
    <glyph glyph-name="rcaron" unicode="&#x159;" horiz-adv-x="408" 
d="M165 -30h-44q-28 0 -41 12.5t-13 42.5v358q0 66 33 101.5t111 35.5h178v-21q0 -33 -20 -45.5t-51 -12.5h-107q-27 0 -36.5 -17t-9.5 -41v-413zM218 638l63 78h98l-113 -135h-97l-114 135h98z" />
    <glyph glyph-name="Sacute" unicode="&#x15a;" horiz-adv-x="569" 
d="M40 -30v31q0 25 12.5 36.5t46.5 11.5h173q75 0 114 28t39 83q0 39 -25.5 68t-88.5 58l-129 58q-72 32 -103 79.5t-31 110.5q0 81 56 131.5t176 50.5h219v-33q0 -29 -14.5 -37.5t-46.5 -8.5h-158q-26 0 -50 -5t-42.5 -16.5t-29.5 -31.5t-11 -50q0 -44 23.5 -69.5
t71.5 -48.5l123 -56q46 -21 76.5 -42.5t49 -45t26 -51t7.5 -60.5q0 -57 -22.5 -94t-58 -58.5t-80 -30t-88.5 -8.5h-235zM379 930l-91 -118q-12 -16 -23.5 -22t-34.5 -6h-41l80 146h110z" />
    <glyph glyph-name="sacute" unicode="&#x15b;" horiz-adv-x="466" 
d="M399 520v-33q0 -25 -15.5 -35.5t-47.5 -10.5h-108q-45 0 -63.5 -20t-18.5 -48q0 -23 12.5 -41.5t46.5 -29.5l89 -27q69 -21 100 -60.5t31 -91.5q0 -74 -50.5 -113.5t-138.5 -39.5h-185v29q0 50 60 50h125q41 0 66 18t25 56q0 26 -13 43.5t-43 27.5l-89 30
q-66 22 -100 56.5t-34 92.5q0 26 10.5 52t32 47t55.5 34.5t82 13.5h171zM328 730l-91 -118q-12 -16 -23.5 -22t-34.5 -6h-41l80 146h110z" />
    <glyph glyph-name="Scircumflex" unicode="&#x15c;" horiz-adv-x="569" 
d="M40 -30v31q0 25 12.5 36.5t46.5 11.5h173q75 0 114 28t39 83q0 39 -25.5 68t-88.5 58l-129 58q-72 32 -103 79.5t-31 110.5q0 81 56 131.5t176 50.5h219v-33q0 -29 -14.5 -37.5t-46.5 -8.5h-158q-26 0 -50 -5t-42.5 -16.5t-29.5 -31.5t-11 -50q0 -44 23.5 -69.5
t71.5 -48.5l123 -56q46 -21 76.5 -42.5t49 -45t26 -51t7.5 -60.5q0 -57 -22.5 -94t-58 -58.5t-80 -30t-88.5 -8.5h-235zM220 781h-98l114 135h97l113 -135h-98l-63 78z" />
    <glyph glyph-name="scircumflex" unicode="&#x15d;" horiz-adv-x="466" 
d="M399 520v-33q0 -25 -15.5 -35.5t-47.5 -10.5h-108q-45 0 -63.5 -20t-18.5 -48q0 -23 12.5 -41.5t46.5 -29.5l89 -27q69 -21 100 -60.5t31 -91.5q0 -74 -50.5 -113.5t-138.5 -39.5h-185v29q0 50 60 50h125q41 0 66 18t25 56q0 26 -13 43.5t-43 27.5l-89 30
q-66 22 -100 56.5t-34 92.5q0 26 10.5 52t32 47t55.5 34.5t82 13.5h171zM169 581h-98l114 135h97l113 -135h-98l-63 78z" />
    <glyph glyph-name="Scedilla" unicode="&#x15e;" horiz-adv-x="569" 
d="M40 -30v31q0 25 12.5 36.5t46.5 11.5h173q75 0 114 28t39 83q0 39 -25.5 68t-88.5 58l-129 58q-72 32 -103 79.5t-31 110.5q0 81 56 131.5t176 50.5h219v-33q0 -29 -14.5 -37.5t-46.5 -8.5h-158q-26 0 -50 -5t-42.5 -16.5t-29.5 -31.5t-11 -50q0 -44 23.5 -69.5
t71.5 -48.5l123 -56q46 -21 76.5 -42.5t49 -45t26 -51t7.5 -60.5q0 -57 -22.5 -94t-58 -58.5t-80 -30t-88.5 -8.5h-235zM223 -193v114h123v-94q0 -52 -26 -85t-67 -48l-27 36q26 14 40 32.5t14 44.5h-57z" />
    <glyph glyph-name="scedilla" unicode="&#x15f;" horiz-adv-x="466" 
d="M399 520v-33q0 -25 -15.5 -35.5t-47.5 -10.5h-108q-45 0 -63.5 -20t-18.5 -48q0 -23 12.5 -41.5t46.5 -29.5l89 -27q69 -21 100 -60.5t31 -91.5q0 -74 -50.5 -113.5t-138.5 -39.5h-185v29q0 50 60 50h125q41 0 66 18t25 56q0 26 -13 43.5t-43 27.5l-89 30
q-66 22 -100 56.5t-34 92.5q0 26 10.5 52t32 47t55.5 34.5t82 13.5h171zM171 -193v114h123v-94q0 -52 -26 -85t-67 -48l-27 36q26 14 40 32.5t14 44.5h-57z" />
    <glyph glyph-name="Scaron" unicode="&#x160;" horiz-adv-x="569" 
d="M40 -30v31q0 25 12.5 36.5t46.5 11.5h173q75 0 114 28t39 83q0 39 -25.5 68t-88.5 58l-129 58q-72 32 -103 79.5t-31 110.5q0 81 56 131.5t176 50.5h219v-33q0 -29 -14.5 -37.5t-46.5 -8.5h-158q-26 0 -50 -5t-42.5 -16.5t-29.5 -31.5t-11 -50q0 -44 23.5 -69.5
t71.5 -48.5l123 -56q46 -21 76.5 -42.5t49 -45t26 -51t7.5 -60.5q0 -57 -22.5 -94t-58 -58.5t-80 -30t-88.5 -8.5h-235zM285 838l63 78h98l-113 -135h-97l-114 135h98z" />
    <glyph glyph-name="scaron" unicode="&#x161;" horiz-adv-x="466" 
d="M399 520v-33q0 -25 -15.5 -35.5t-47.5 -10.5h-108q-45 0 -63.5 -20t-18.5 -48q0 -23 12.5 -41.5t46.5 -29.5l89 -27q69 -21 100 -60.5t31 -91.5q0 -74 -50.5 -113.5t-138.5 -39.5h-185v29q0 50 60 50h125q41 0 66 18t25 56q0 26 -13 43.5t-43 27.5l-89 30
q-66 22 -100 56.5t-34 92.5q0 26 10.5 52t32 47t55.5 34.5t82 13.5h171zM234 638l63 78h98l-113 -135h-97l-114 135h98z" />
    <glyph glyph-name="Tcommaaccent" unicode="&#x162;" horiz-adv-x="596" 
d="M250 637h-232v79h563v-27q0 -28 -10 -40t-47 -12h-176v-667h-44q-28 0 -41 12.5t-13 41.5v613zM236 -193v114h123v-94q0 -52 -26 -85t-67 -48l-27 36q26 14 40 32.5t14 44.5h-57z" />
    <glyph glyph-name="tcommaaccent" unicode="&#x163;" horiz-adv-x="357" 
d="M250 -30q-80 0 -113 39t-33 110v322h-90v79h90v180h98v-180h129v-31q0 -21 -12.5 -34.5t-53.5 -13.5h-63v-322q0 -29 9 -49.5t39 -20.5h89v-30q0 -20 -13 -34.5t-51 -14.5h-25zM119 -193v114h123v-94q0 -52 -26 -85t-67 -48l-27 36q26 14 40 32.5t14 44.5h-57z" />
    <glyph glyph-name="Tcaron" unicode="&#x164;" horiz-adv-x="596" 
d="M250 637h-232v79h563v-27q0 -28 -10 -40t-47 -12h-176v-667h-44q-28 0 -41 12.5t-13 41.5v613zM299 838l63 78h98l-113 -135h-97l-114 135h98z" />
    <glyph glyph-name="tcaron" unicode="&#x165;" horiz-adv-x="517" 
d="M360 602v114h123v-90q0 -52 -24 -90.5t-69 -56.5q-8 11 -14.5 19t-12.5 17q26 14 40 34.5t14 48.5v4h-57zM250 -30q-80 0 -113 39t-33 110v322h-90v79h90v180h98v-180h129v-31q0 -21 -12.5 -34.5t-53.5 -13.5h-63v-322q0 -29 9 -49.5t39 -20.5h89v-30q0 -20 -13 -34.5
t-51 -14.5h-25z" />
    <glyph glyph-name="Tbar" unicode="&#x166;" horiz-adv-x="596" 
d="M250 637h-232v79h563v-27q0 -28 -10 -40t-47 -12h-176v-256h163v-29q0 -21 -10 -36t-44 -15h-109v-331h-44q-28 0 -41 12.5t-13 41.5v277h-161v80h161v256z" />
    <glyph glyph-name="tbar" unicode="&#x167;" horiz-adv-x="361" 
d="M250 -30q-80 0 -113 39t-33 110v102h-87v80h87v140h-90v79h90v180h98v-180h129v-31q0 -21 -12.5 -34.5t-53.5 -13.5h-63v-140h117v-29q0 -21 -10 -36t-44 -15h-63v-102q0 -29 9 -49.5t39 -20.5h89v-30q0 -20 -13 -34.5t-51 -14.5h-25z" />
    <glyph glyph-name="Utilde" unicode="&#x168;" horiz-adv-x="676" 
d="M595 -30h-309q-53 0 -92.5 8.5t-65.5 30.5t-39.5 59.5t-13.5 96.5v551h98v-552q0 -33 6 -55.5t19 -35.5t34.5 -18.5t53.5 -5.5h211v667h98v-746zM265 901q26 0 47 -8t39 -18q14 -8 27.5 -13.5t26.5 -5.5q33 0 45 45h77q-8 -52 -36.5 -86.5t-81.5 -34.5q-30 0 -51.5 8
t-41.5 19q-14 6 -26.5 12.5t-23.5 6.5q-33 0 -43 -47h-75q5 54 35.5 88t81.5 34z" />
    <glyph glyph-name="utilde" unicode="&#x169;" horiz-adv-x="555" 
d="M267 -30q-52 0 -90 10t-63 33t-37 61t-12 94v352h97v-352q0 -37 5.5 -60t18 -36t32.5 -18t49 -5h121v471h98v-550h-219zM203 701q26 0 47 -8t39 -18q14 -8 27.5 -13.5t26.5 -5.5q33 0 45 45h77q-8 -52 -36.5 -86.5t-81.5 -34.5q-30 0 -51.5 8t-41.5 19q-14 6 -26.5 12.5
t-23.5 6.5q-33 0 -43 -47h-75q5 54 35.5 88t81.5 34z" />
    <glyph glyph-name="Umacron" unicode="&#x16a;" horiz-adv-x="676" 
d="M595 -30h-309q-53 0 -92.5 8.5t-65.5 30.5t-39.5 59.5t-13.5 96.5v551h98v-552q0 -33 6 -55.5t19 -35.5t34.5 -18.5t53.5 -5.5h211v667h98v-746zM499 875v-76h-322v76h322z" />
    <glyph glyph-name="umacron" unicode="&#x16b;" horiz-adv-x="555" 
d="M267 -30q-52 0 -90 10t-63 33t-37 61t-12 94v352h97v-352q0 -37 5.5 -60t18 -36t32.5 -18t49 -5h121v471h98v-550h-219zM430 675v-76h-322v76h322z" />
    <glyph glyph-name="Ubreve" unicode="&#x16c;" horiz-adv-x="676" 
d="M595 -30h-309q-53 0 -92.5 8.5t-65.5 30.5t-39.5 59.5t-13.5 96.5v551h98v-552q0 -33 6 -55.5t19 -35.5t34.5 -18.5t53.5 -5.5h211v667h98v-746zM266 901q1 -19 8 -31.5t17 -20t22.5 -10.5t25.5 -3q12 0 24.5 3t23 10.5t17 20t7.5 31.5h75q-2 -63 -40 -97.5t-110 -34.5
q-67 0 -105.5 34.5t-40.5 97.5h76z" />
    <glyph glyph-name="ubreve" unicode="&#x16d;" horiz-adv-x="555" 
d="M267 -30q-52 0 -90 10t-63 33t-37 61t-12 94v352h97v-352q0 -37 5.5 -60t18 -36t32.5 -18t49 -5h121v471h98v-550h-219zM203 701q1 -19 8 -31.5t17 -20t22.5 -10.5t25.5 -3q12 0 24.5 3t23 10.5t17 20t7.5 31.5h75q-2 -63 -40 -97.5t-110 -34.5q-67 0 -105.5 34.5
t-40.5 97.5h76z" />
    <glyph glyph-name="Uring" unicode="&#x16e;" horiz-adv-x="676" 
d="M595 -30h-309q-53 0 -92.5 8.5t-65.5 30.5t-39.5 59.5t-13.5 96.5v551h98v-552q0 -33 6 -55.5t19 -35.5t34.5 -18.5t53.5 -5.5h211v667h98v-746zM294 856q0 -21 11.5 -32t31.5 -11t32 11t12 32q0 20 -12 32t-32 12t-31.5 -12t-11.5 -32zM233 856q0 45 29.5 72.5
t74.5 27.5q46 0 75.5 -27.5t29.5 -72.5t-29.5 -72.5t-75.5 -27.5q-45 0 -74.5 27.5t-29.5 72.5z" />
    <glyph glyph-name="uring" unicode="&#x16f;" horiz-adv-x="555" 
d="M267 -30q-52 0 -90 10t-63 33t-37 61t-12 94v352h97v-352q0 -37 5.5 -60t18 -36t32.5 -18t49 -5h121v471h98v-550h-219zM232 656q0 -21 11.5 -32t31.5 -11t32 11t12 32q0 20 -12 32t-32 12t-31.5 -12t-11.5 -32zM171 656q0 45 29.5 72.5t74.5 27.5q46 0 75.5 -27.5
t29.5 -72.5t-29.5 -72.5t-75.5 -27.5q-45 0 -74.5 27.5t-29.5 72.5z" />
    <glyph glyph-name="Uhungarumlaut" unicode="&#x170;" horiz-adv-x="676" 
d="M595 -30h-309q-53 0 -92.5 8.5t-65.5 30.5t-39.5 59.5t-13.5 96.5v551h98v-552q0 -33 6 -55.5t19 -35.5t34.5 -18.5t53.5 -5.5h211v667h98v-746zM358 930l-91 -118q-12 -16 -23.5 -22t-34.5 -6h-41l80 146h110zM508 930l-91 -118q-12 -16 -23.5 -22t-34.5 -6h-41l80 146
h110z" />
    <glyph glyph-name="uhungarumlaut" unicode="&#x171;" horiz-adv-x="555" 
d="M267 -30q-52 0 -90 10t-63 33t-37 61t-12 94v352h97v-352q0 -37 5.5 -60t18 -36t32.5 -18t49 -5h121v471h98v-550h-219zM296 730l-91 -118q-12 -16 -23.5 -22t-34.5 -6h-41l80 146h110zM446 730l-91 -118q-12 -16 -23.5 -22t-34.5 -6h-41l80 146h110z" />
    <glyph glyph-name="Uogonek" unicode="&#x172;" horiz-adv-x="676" 
d="M595 -30h-185q-32 -25 -50.5 -52t-18.5 -48q0 -42 46 -42q11 0 24.5 2t23.5 7v-63q-17 -8 -35.5 -11t-34.5 -3q-51 0 -76 27t-25 65q0 35 18.5 65t44.5 53h-41q-53 0 -92.5 8.5t-65.5 30.5t-39.5 59.5t-13.5 96.5v551h98v-552q0 -33 6 -55.5t19 -35.5t34.5 -18.5
t53.5 -5.5h211v667h98v-746z" />
    <glyph glyph-name="uogonek" unicode="&#x173;" horiz-adv-x="555" 
d="M65 168v352h97v-352q0 -37 5.5 -60t18 -36t32.5 -18t49 -5h121v471h98v-550h-141q-32 -24 -50 -51.5t-18 -47.5q0 -42 46 -42q11 0 24.5 2t23.5 7v-63q-17 -8 -35.5 -11t-34.5 -3q-51 0 -76 27t-25 65q0 35 18 64.5t44 52.5q-51 0 -88 10.5t-61.5 33.5t-36 60.5
t-11.5 93.5z" />
    <glyph glyph-name="Wcircumflex" unicode="&#x174;" horiz-adv-x="908" 
d="M900 716l-87.5 -373l-87.5 -373h-69q-58 0 -74 65l-125 481l-70.5 -273l-71.5 -273h-64q-36 0 -52.5 15.5t-24.5 47.5l-80 342l-80 341h98l143 -652l77.5 299l74.5 288h100l152 -587l143 652h98zM390 781h-98l114 135h97l113 -135h-98l-63 78z" />
    <glyph glyph-name="wcircumflex" unicode="&#x175;" horiz-adv-x="734" 
d="M727 520l-141 -550h-56q-47 0 -60 51l-104 368l-118 -419h-53q-33 0 -44 14t-18 40l-128 496h89l106 -446l121 423h90l121 -422l106 445h89zM303 581h-98l114 135h97l113 -135h-98l-63 78z" />
    <glyph glyph-name="Ycircumflex" unicode="&#x176;" horiz-adv-x="664" 
d="M377 -30h-43q-29 0 -42 12t-13 42v242l-263 450h106l208 -360l209 360h107l-269 -450v-296zM273 781h-98l114 135h97l113 -135h-98l-63 78z" />
    <glyph glyph-name="ycircumflex" unicode="&#x177;" horiz-adv-x="555" 
d="M90 -239v32q0 28 13.5 39.5t47.5 11.5h164q43 0 58 17.5t15 47.5v70q-37 -4 -72.5 -5.5l-80.5 -3.5q-89 -3 -130 44t-41 132v374h98v-373q0 -49 16 -73.5t61 -23.5q39 1 77.5 4t71.5 6v460h98v-612q0 -31 -9.5 -58t-30 -46.5t-53 -31t-78.5 -11.5h-225zM214 581h-98
l114 135h97l113 -135h-98l-63 78z" />
    <glyph glyph-name="Ydieresis" unicode="&#x178;" horiz-adv-x="664" 
d="M377 -30h-43q-29 0 -42 12t-13 42v242l-263 450h106l208 -360l209 360h107l-269 -450v-296zM485 795h-103v105h103v-105zM294 795h-104v105h104v-105z" />
    <glyph glyph-name="Zacute" unicode="&#x179;" horiz-adv-x="618" 
d="M563 716v-80l-423 -587h440v-50q0 -17 -8.5 -23t-24.5 -6h-514v84l421 583h-409v79h518zM411 930l-91 -118q-12 -16 -23.5 -22t-34.5 -6h-41l80 146h110z" />
    <glyph glyph-name="zacute" unicode="&#x17a;" horiz-adv-x="498" 
d="M455 50v-46q0 -34 -37 -34h-382v80l301 391h-288v79h393v-79l-303 -391h316zM346 730l-91 -118q-12 -16 -23.5 -22t-34.5 -6h-41l80 146h110z" />
    <glyph glyph-name="Zdotaccent" unicode="&#x17b;" horiz-adv-x="618" 
d="M563 716v-80l-423 -587h440v-50q0 -17 -8.5 -23t-24.5 -6h-514v84l421 583h-409v79h518zM368 795h-104v105h104v-105z" />
    <glyph glyph-name="zdotaccent" unicode="&#x17c;" horiz-adv-x="498" 
d="M455 50v-46q0 -34 -37 -34h-382v80l301 391h-288v79h393v-79l-303 -391h316zM303 595h-104v105h104v-105z" />
    <glyph glyph-name="Zcaron" unicode="&#x17d;" horiz-adv-x="618" 
d="M563 716v-80l-423 -587h440v-50q0 -17 -8.5 -23t-24.5 -6h-514v84l421 583h-409v79h518zM317 838l63 78h98l-113 -135h-97l-114 135h98z" />
    <glyph glyph-name="zcaron" unicode="&#x17e;" horiz-adv-x="498" 
d="M455 50v-46q0 -34 -37 -34h-382v80l301 391h-288v79h393v-79l-303 -391h316zM252 638l63 78h98l-113 -135h-97l-114 135h98z" />
    <glyph glyph-name="longs" unicode="&#x17f;" horiz-adv-x="432" 
d="M232 -30h-44q-29 0 -41.5 12.5t-12.5 42.5v416h-106v79h106v65q0 31 6 56t21.5 43t42.5 27.5t69 9.5h128v-25q0 -54 -65 -54h-63q-14 0 -22 -4.5t-12 -12t-5.5 -16.5t-1.5 -17v-622z" />
    <glyph glyph-name="uni0180" unicode="&#x180;" horiz-adv-x="577" 
d="M388 630q0 -21 -10 -36t-44 -15h-138v-59h112q100 0 152.5 -44t52.5 -132v-198q0 -89 -52.5 -132.5t-152.5 -43.5h-210v609h-82v80h82v62h98v-62h192v-29zM196 49h112q48 0 77.5 26.5t29.5 80.5v178q0 55 -29 81t-77 26h-113v-392z" />
    <glyph glyph-name="uni0181" unicode="&#x181;" horiz-adv-x="785" 
d="M512 716q51 0 88.5 -13t61.5 -36.5t36 -55t12 -68.5v-45q0 -21 -4 -42t-12 -39.5t-21 -34t-32 -24.5q45 -17 67.5 -57t22.5 -83v-65q0 -49 -19.5 -84t-50.5 -57t-70 -32t-79 -10h-289v667q-46 -2 -72 -17t-26 -52v-48h-97v48q0 80 46 113.5t149 34.5h289zM320 316v-267
h191q31 0 54 8.5t38 23.5t22.5 35t7.5 42v47q0 22 -6.5 42.5t-21 35.5t-37.5 24t-56 9h-192zM320 637v-242h193q30 0 49.5 9.5t30.5 24.5t15.5 33.5t4.5 36.5v39q0 41 -25 70t-75 29h-193z" />
    <glyph glyph-name="uni0182" unicode="&#x182;" horiz-adv-x="636" 
d="M513 687q0 -21 -10 -36t-44 -15h-289v-241h193q47 0 87 -9t69 -30t45.5 -55t16.5 -83v-65q0 -49 -18 -84t-48.5 -57t-70 -32t-82.5 -10h-289v746h440v-29zM170 316v-267h191q31 0 54 8.5t38 23.5t22.5 35t7.5 42v47q0 22 -6.5 42.5t-21 35.5t-37.5 24t-56 9h-192z" />
    <glyph glyph-name="uni0183" unicode="&#x183;" horiz-adv-x="551" 
d="M442 687q0 -21 -10 -36t-44 -15h-215v-116h112q100 0 152.5 -44t52.5 -132v-198q0 -89 -52.5 -132.5t-152.5 -43.5h-210v746h367v-29zM173 49h112q48 0 77.5 26.5t29.5 80.5v178q0 55 -29 81t-77 26h-113v-392z" />
    <glyph glyph-name="uni0184" unicode="&#x184;" horiz-adv-x="659" 
d="M93 500l-77 81v16l154 133h20v-335h193q47 0 87 -9t69 -30t45.5 -55t16.5 -83v-65q0 -49 -18 -84t-48.5 -57t-70 -32t-82.5 -10h-289v530zM190 316v-267h191q31 0 54 8.5t38 23.5t22.5 35t7.5 42v47q0 22 -6.5 42.5t-21 35.5t-37.5 24t-56 9h-192z" />
    <glyph glyph-name="uni0185" unicode="&#x185;" horiz-adv-x="577" 
d="M18 581v16l154 133h21v-210h111q100 0 152.5 -44t52.5 -132v-198q0 -89 -52.5 -132.5t-152.5 -43.5h-209v530zM193 49h111q48 0 77.5 26.5t29.5 80.5v178q0 55 -29 81t-77 26h-112v-392z" />
    <glyph glyph-name="uni0186" unicode="&#x186;" horiz-adv-x="573" 
d="M30 -30v31q0 25 12.5 36.5t46.5 11.5h213q27 0 46.5 10t33 26.5t20 38t6.5 45.5v345q0 123 -128 123h-240v79h243q106 0 164.5 -51.5t58.5 -137.5v-365q0 -42 -15 -77.5t-41.5 -61t-63.5 -39.5t-80 -14h-276z" />
    <glyph glyph-name="uni0187" unicode="&#x187;" horiz-adv-x="623" 
d="M603 770h-21q-29 0 -41.5 -14.5t-13.5 -51.5v-16q0 -21 -11.5 -36t-53.5 -15h-175q-128 0 -128 -123v-345q0 -24 6.5 -45.5t20 -38t33 -26.5t46.5 -10h272v-29q0 -20 -12 -35t-54 -15h-210q-44 0 -80.5 14t-63 39.5t-41.5 61t-15 77.5v365q0 86 58.5 137.5t164.5 51.5
h146q4 71 40.5 102t112.5 31h20v-79z" />
    <glyph glyph-name="uni0188" unicode="&#x188;" horiz-adv-x="556" 
d="M537 574h-21q-30 0 -42.5 -16t-12.5 -58v-7q0 -11 -2 -20t-8 -16.5t-18 -11.5t-33 -4h-126q-51 0 -78.5 -27t-27.5 -80v-179q0 -48 27.5 -77t78.5 -29h191v-29q0 -10 -2 -19t-9 -16t-19.5 -11t-33.5 -4h-127q-45 0 -82.5 13t-64.5 37t-42 58t-15 76v180q0 42 15 76.5
t42 59t64.5 37.5t82.5 13h90q4 71 40.5 102t112.5 31h20v-79z" />
    <glyph glyph-name="uni0189" unicode="&#x189;" horiz-adv-x="716" 
d="M31 384h94v332h283q61 0 105.5 -15.5t73.5 -42.5t43.5 -64t14.5 -80v-344q0 -43 -14.5 -79.5t-43.5 -63.5t-73.5 -42t-105.5 -15h-283v335h-94v79zM222 637v-253h171v-29q0 -10 -2 -19t-9 -16t-19.5 -11t-33.5 -4h-107v-256h186q66 0 103 32t37 89v344q0 61 -37 92
t-103 31h-186z" />
    <glyph glyph-name="uni018A" unicode="&#x18a;" horiz-adv-x="804" 
d="M498 716q61 0 105.5 -15.5t73.5 -42.5t43.5 -64t14.5 -80v-344q0 -43 -14.5 -79.5t-43.5 -63.5t-73.5 -42t-105.5 -15h-283v666q-42 -2 -66 -17.5t-24 -50.5v-48h-97v48q0 79 44.5 112.5t142.5 35.5h283zM312 637v-588h186q66 0 103 32t37 89v344q0 61 -37 92t-103 31
h-186z" />
    <glyph glyph-name="uni018B" unicode="&#x18b;" horiz-adv-x="630" 
d="M118 716h440v-746h-289q-43 0 -82.5 10t-70 32t-48.5 57t-18 84v68q0 49 16.5 83t45.5 55t69 30t87 9h193v239h-343v79zM269 319q-33 0 -56 -9t-37.5 -24t-21 -35.5t-6.5 -42.5v-50q0 -22 7.5 -42t22.5 -35t38 -23.5t54 -8.5h191v270h-192z" />
    <glyph glyph-name="uni018C" unicode="&#x18c;" horiz-adv-x="539" 
d="M103 716h367v-746h-210q-100 0 -152.5 43.5t-52.5 132.5v198q0 88 52.5 132t152.5 44h112v116h-269v80zM372 441h-113q-48 0 -77 -26t-29 -81v-178q0 -54 29.5 -80.5t77.5 -26.5h112v392z" />
    <glyph glyph-name="uni018D" unicode="&#x18d;" horiz-adv-x="571" 
d="M284 534q109 0 166 -52t57 -164v-145q0 -130 -80 -182q25 -19 38.5 -44t13.5 -54q0 -38 -15.5 -61t-40 -35.5t-54.5 -16.5t-58 -4h-161v78h150q44 0 62.5 9t18.5 30q0 23 -23 42t-65 21h-9q-107 0 -165 52t-58 165v145q0 112 58 164t165 52zM409 318q0 28 -7 53t-22 44
t-38.5 29.5t-57.5 10.5q-59 0 -92 -34.5t-33 -102.5v-145q0 -67 32.5 -102.5t92.5 -35.5t92.5 34.5t32.5 103.5v145z" />
    <glyph glyph-name="uni018E" unicode="&#x18e;" horiz-adv-x="592" 
d="M41 -30v31q0 25 12.5 36.5t46.5 11.5h317v277h-332v31q0 25 12.5 36.5t46.5 11.5h273v232h-364v79h462v-746h-474z" />
    <glyph glyph-name="uni018F" unicode="&#x18f;" horiz-adv-x="672" 
d="M382 716q45 0 84 -12.5t68 -37.5t45.5 -61t16.5 -82v-357q0 -49 -16 -86t-44.5 -61.5t-67.5 -36.5t-86 -12h-128q-43 0 -79 11.5t-61.5 34.5t-40 58t-14.5 82v156q0 38 16.5 57.5t58.5 19.5h364v134q0 54 -33 84t-83 30h-257q-41 0 -52.5 13.5t-11.5 33.5v32h321z
M176 310q-9 0 -14 -3.5t-5 -16.5v-134q0 -44 24.5 -75.5t73.5 -31.5h127q58 0 87 34t29 82v167q-8 -13 -24.5 -17.5t-39.5 -4.5h-258z" />
    <glyph glyph-name="uni0190" unicode="&#x190;" horiz-adv-x="521" 
d="M292 730q46 0 90.5 -6.5t93.5 -17.5v-74q-45 8 -88 13.5t-95 5.5q-63 0 -101 -29.5t-38 -89.5q0 -72 33 -104.5t104 -32.5h151v-52q0 -16 -6.5 -21.5t-23.5 -5.5h-121q-75 0 -115.5 -31.5t-40.5 -106.5q0 -43 13.5 -70.5t37.5 -43t57 -21.5t72 -6q25 0 45.5 1t39.5 2.5
t38 4.5t41 6l5 -47q2 -17 -8 -23.5t-29 -11.5q-10 -2 -46.5 -7.5t-84.5 -5.5q-61 0 -112 10t-88 36t-58 70t-21 112q0 28 6.5 55.5t20 50.5t35 41t50.5 28q-43 22 -67.5 66t-25.5 105q-1 55 18 93t51.5 62t75.5 34.5t91 10.5z" />
    <glyph glyph-name="uni0191" unicode="&#x191;" horiz-adv-x="598" 
d="M207 -59q0 -78 -42.5 -121.5t-122.5 -43.5h-22v79h14q33 0 54 21t21 64v776h474v-27q0 -22 -11.5 -37t-47.5 -15h-317v-232h343v-28q0 -22 -12.5 -36.5t-47.5 -14.5h-283v-385z" />
    <glyph glyph-name="florin" unicode="&#x192;" horiz-adv-x="432" 
d="M232 -59q0 -78 -42.5 -121.5t-122.5 -43.5h-22v79h14q33 0 54 21t21 64v501h-106v79h106v65q0 31 6 56t21.5 43t42.5 27.5t69 9.5h128v-25q0 -54 -65 -54h-63q-14 0 -22 -4.5t-12 -12t-5.5 -16.5t-1.5 -17v-72h148v-36q0 -12 -5.5 -20t-14.5 -13t-19.5 -7.5t-20.5 -2.5
h-88v-500z" />
    <glyph glyph-name="uni0193" unicode="&#x193;" horiz-adv-x="675" 
d="M656 770h-21q-29 0 -41.5 -14.5t-13.5 -51.5v-14q0 -28 -13.5 -40.5t-48.5 -12.5h-239q-50 0 -83 -30t-33 -84v-358q0 -48 29 -82t87 -34h123q49 0 73.5 31.5t24.5 75.5v134q0 13 -5 16.5t-14 3.5h-98q-31 0 -45 9t-14 36v34h199q42 0 58.5 -19.5t16.5 -57.5v-156
q0 -47 -14.5 -82t-40 -58t-61.5 -34.5t-79 -11.5h-124q-47 0 -86 12t-67.5 36.5t-44.5 61.5t-16 86v357q0 46 16.5 82t45.5 61t68 37.5t84 12.5h204q4 71 40.5 102t112.5 31h20v-79z" />
    <glyph glyph-name="uni0194" unicode="&#x194;" horiz-adv-x="624" 
d="M617 716l-254 -586l52 -122q23 -54 23 -90q0 -62 -32 -95t-94 -33q-60 0 -92 33t-32 95q0 34 23 88l52 122l-256 588h104l201 -473l201 473h104zM347 -84q0 12 -4 24.5t-10 26.5l-21 48l-20 -48q-6 -15 -10 -27.5t-4 -23.5q0 -45 34 -45q35 0 35 45z" />
    <glyph glyph-name="uni0195" unicode="&#x195;" horiz-adv-x="905" 
d="M611 -30q-52 0 -90.5 10t-63.5 33t-37 61t-12 94v186q0 47 -23 67t-63 20h-146v-471h-44q-29 0 -41.5 12.5t-12.5 42.5v696h98v-201h146q94 0 139 -41t45 -124v-187q0 -36 6 -59t18.5 -36.5t32.5 -18.5t48 -5h10q65 0 88 29.5t23 90.5v351h98v-358q0 -99 -48.5 -145.5
t-160.5 -46.5h-10z" />
    <glyph glyph-name="uni0196" unicode="&#x196;" horiz-adv-x="301" 
d="M281 -30q-104 0 -150.5 33.5t-46.5 114.5v598h99v-598q0 -38 25.5 -53t72.5 -16v-79z" />
    <glyph glyph-name="uni0197" unicode="&#x197;" horiz-adv-x="424" 
d="M402 357q0 -16 -6.5 -21.5t-23.5 -5.5h-109v-360h-45q-29 0 -41.5 12.5t-12.5 41.5v306h-144v80h144v306h99v-306h139v-53z" />
    <glyph glyph-name="uni0198" unicode="&#x198;" horiz-adv-x="644" 
d="M163 716v-746h-45q-28 0 -40.5 13t-12.5 42v691h98zM627 651h-21q-31 0 -51 -7.5t-35.5 -22.5t-31 -37.5t-38.5 -52.5l-134 -175l145.5 -193.5l144.5 -192.5h-118l-291 385l174 227q27 35 46 62.5t42 46.5t57 29t91 10h20v-79z" />
    <glyph glyph-name="uni0199" unicode="&#x199;" horiz-adv-x="539" 
d="M299 651h-71q-30 0 -42.5 -16t-12.5 -58v-607h-43q-29 0 -42 12.5t-13 42.5v552q0 82 36.5 117.5t117.5 35.5h70v-79zM406 520h113l-214 -255l226 -295h-109l-227 296z" />
    <glyph glyph-name="uni019A" unicode="&#x19a;" horiz-adv-x="424" 
d="M402 357q0 -16 -6.5 -21.5t-23.5 -5.5h-109v-360h-45q-29 0 -41.5 12.5t-12.5 41.5v306h-144v80h144v306h99v-306h139v-53z" />
    <glyph glyph-name="uni019B" unicode="&#x19b;" horiz-adv-x="552" 
d="M159 595l67 52h-74q-34 0 -47.5 11.5t-13.5 39.5v32h133t71 -0.5t29 -0.5h9l109 84l52 -64l-65 -50q28 -20 40.5 -50.5t12.5 -65.5v-613h-98v440l-69 6t-75 4q-45 1 -61 -23.5t-16 -73.5v-353h-98v354q0 85 41 132t130 44l78 -3.5t70 -5.5v91q0 21 -7 35.5t-25 22.5
l-140 -108z" />
    <glyph glyph-name="uni019C" unicode="&#x19c;" horiz-adv-x="863" 
d="M379 49v667h98v-667h209v667h98v-746h-541q-90 0 -130.5 37t-40.5 118v591h98v-591q0 -76 73 -76h136z" />
    <glyph glyph-name="uni019D" unicode="&#x19d;" horiz-adv-x="713" 
d="M199 -59q0 -78 -42.5 -121.5t-122.5 -43.5h-22v79h14q33 0 54 21t21 64v776h309q52 0 92 -8.5t66 -30.5t39.5 -60t13.5 -96v-551h-43q-29 0 -42 12.5t-13 41.5v498q0 33 -6 55.5t-19 35.5t-35 18.5t-53 5.5h-211v-696z" />
    <glyph glyph-name="uni019E" unicode="&#x19e;" horiz-adv-x="529" 
d="M274 520q105 0 153 -46t48 -142v-556h-44q-29 0 -42 12.5t-13 42.5v501q0 56 -26.5 82.5t-75.5 26.5h-126v-471h-42q-29 0 -42.5 12.5t-13.5 42.5v495h224z" />
    <glyph glyph-name="uni019F" unicode="&#x19f;" horiz-adv-x="699" 
d="M347 730q148 0 218 -83t70 -234v-141q0 -151 -70 -233.5t-218 -82.5q-147 0 -217 82.5t-70 234.5v140q0 152 70 234.5t217 82.5zM347 40q96 0 143 59t47 174v32h-379v-33q0 -114 47.5 -173t141.5 -59zM537 414q0 52 -12 94.5t-35.5 73t-59 47.5t-83.5 17q-47 0 -82.5 -17
t-59 -47.5t-35.5 -73.5t-12 -95v-29h379v30z" />
    <glyph glyph-name="Ohorn" unicode="&#x1a0;" horiz-adv-x="823" 
d="M664 616v114h123v-90q0 -69 -43.5 -107t-114.5 -43q2 -18 3.5 -37.5t1.5 -39.5v-141q0 -151 -70 -233.5t-218 -82.5q-147 0 -217 82.5t-70 234.5v140q0 152 70 234.5t217 82.5q117 0 184.5 -52t90.5 -149q18 3 36 9t32.5 16t23 24t8.5 34v4h-57zM536 414q0 51 -12 93.5
t-35.5 73t-59 48t-83.5 17.5q-47 0 -82.5 -17.5t-59 -48t-35.5 -73.5t-12 -94v-141q0 -232 189 -232q190 0 190 233v141z" />
    <glyph glyph-name="ohorn" unicode="&#x1a1;" horiz-adv-x="693" 
d="M537 420v114h123v-90q0 -67 -42.5 -105t-111.5 -45v-121q0 -112 -56.5 -164.5t-166.5 -52.5q-107 0 -165 52t-58 165v145q0 112 58 164t165 52q104 0 160.5 -48t61.5 -151q17 3 33 9.5t28.5 16.5t20 23.5t7.5 31.5v4h-57zM408 318q0 28 -7 53t-22 44t-38.5 29.5
t-57.5 10.5q-59 0 -92 -34.5t-33 -102.5v-145q0 -67 32.5 -102.5t92.5 -35.5t92.5 34.5t32.5 103.5v145z" />
    <glyph glyph-name="uni01A2" unicode="&#x1a2;" horiz-adv-x="884" 
d="M803 566v-790h-45q-29 0 -41.5 12.5t-12.5 41.5v736q0 39 -13 55t-42 16h-84v-667h-218q-147 0 -217 75.5t-70 227.5v140q0 152 70 227.5t217 75.5h301q81 0 117.5 -34.5t37.5 -115.5zM467 632h-120q-94 0 -141.5 -56t-47.5 -163v-141q0 -114 47.5 -166t141.5 -52h120
v578z" />
    <glyph glyph-name="uni01A3" unicode="&#x1a3;" horiz-adv-x="739" 
d="M517 520q81 0 118 -34.5t37 -115.5v-594h-45q-29 0 -41.5 12.5t-12.5 41.5v537q0 42 -12.5 58t-42.5 16h-49v-471h-183q-107 0 -165 52t-58 165v117q0 112 58 164t165 52h231zM371 441h-85q-59 0 -92 -34.5t-33 -102.5v-117q0 -67 32.5 -102.5t92.5 -35.5h85v392z" />
    <glyph glyph-name="uni01A4" unicode="&#x1a4;" horiz-adv-x="766" 
d="M321 250v-280h-43q-29 0 -42 12.5t-13 41.5v613q-46 -2 -72 -17t-26 -52v-48h-97v48q0 81 46.5 114.5t150.5 33.5h270q51 0 90.5 -10t67.5 -32t42.5 -57t14.5 -85v-97q0 -26 -5.5 -58.5t-27.5 -60.5t-64.5 -47t-117.5 -19h-174zM321 635v-304h174q61 0 89 26t28 78v97
q0 48 -26 75.5t-91 27.5h-174z" />
    <glyph glyph-name="uni01A5" unicode="&#x1a5;" horiz-adv-x="552" 
d="M299 651h-71q-30 0 -42.5 -16t-12.5 -58v-57h116q200 0 200 -184v-153q0 -96 -51.5 -139.5t-148.5 -43.5h-116v-224h-43q-29 0 -42 12.5t-13 43.5v745q0 82 36.5 117.5t117.5 35.5h70v-79zM173 79h116q102 0 102 104v153q0 51 -24.5 78t-77.5 27h-116v-362z" />
    <glyph glyph-name="uni01A6" unicode="&#x1a6;" horiz-adv-x="629" 
d="M168 193v-223h-45q-28 0 -40.5 12.5t-12.5 41.5v692h97l1 -100h196q52 0 91 -12.5t64.5 -34.5t38.5 -52t13 -66v-81q0 -24 -6.5 -49t-21.5 -47t-39 -40t-60 -30l155 -334h-106l-148 323h-177zM168 535v-261h196q109 0 109 105v56q0 47 -26.5 73.5t-82.5 26.5h-196z" />
    <glyph glyph-name="uni01A7" unicode="&#x1a7;" horiz-adv-x="569" 
d="M295 -30q-44 0 -88 8.5t-79 30t-57 58.5t-22 94q0 32 7 59t24 51t46 46t74 43l123 56q48 23 71.5 48.5t23.5 69.5q0 30 -11 50t-29.5 31.5t-42.5 16.5t-50 5h-158q-32 0 -46.5 8.5t-14.5 37.5v33h219q120 0 176 -50.5t56 -131.5q0 -63 -31 -110.5t-103 -79.5l-129 -58
q-32 -14 -52.5 -28.5t-32.5 -29.5t-16.5 -32t-4.5 -36q0 -111 150 -111h168q34 0 46.5 -11.5t12.5 -36.5v-31h-230z" />
    <glyph glyph-name="uni01A8" unicode="&#x1a8;" horiz-adv-x="466" 
d="M239 520q48 0 82 -13.5t55.5 -34.5t32 -47t10.5 -52q0 -58 -34 -92.5t-100 -56.5l-89 -30q-30 -10 -43 -25.5t-13 -41.5q0 -38 25 -58t66 -20h125q60 0 60 -50v-29h-185q-88 0 -138.5 41.5t-50.5 115.5q0 52 31 89.5t100 58.5l89 27q34 11 46.5 29.5t12.5 41.5
q0 28 -18.5 48t-63.5 20h-108q-32 0 -47.5 10.5t-15.5 35.5v33h171z" />
    <glyph glyph-name="uni01A9" unicode="&#x1a9;" horiz-adv-x="556" 
d="M517 21q0 -21 -10 -36t-44 -15h-408v80l225 297l-225 286v83h453v-28q0 -21 -10 -36t-44 -15h-291l227 -290l-228 -298h355v-28z" />
    <glyph glyph-name="uni01AA" unicode="&#x1aa;" horiz-adv-x="380" 
d="M319 -223q-80 0 -113 39t-33 110v592q-10 -4 -20 -5t-21 -1q-48 0 -79.5 30t-31.5 79q0 50 32.5 79.5t80.5 29.5q62 0 99 -32.5t38 -91.5v-680q0 -29 9 -49.5t39 -20.5h69v-30q0 -20 -13 -34.5t-51 -14.5h-5zM87 621q0 -20 13 -32.5t32 -12.5q17 0 31 12t14 33
q0 19 -13 32.5t-32 13.5t-32 -13.5t-13 -32.5z" />
    <glyph glyph-name="uni01AB" unicode="&#x1ab;" horiz-adv-x="372" 
d="M340 -59q0 -78 -42.5 -121.5t-122.5 -43.5h-22v79h14q33 0 54 21t21 64v30q-76 2 -106.5 41t-30.5 108v322h-90v79h90v181h98v-181h129v-31q0 -21 -12.5 -34.5t-53.5 -13.5h-63v-322q0 -29 9 -49.5t39 -20.5h89v-108z" />
    <glyph glyph-name="uni01AC" unicode="&#x1ac;" horiz-adv-x="675" 
d="M309 637h-89q-45 0 -70 -16.5t-25 -52.5v-48h-97v48q0 81 46.5 114.5t150.5 33.5h426v-27q0 -28 -10 -40t-47 -12h-187v-667h-44q-28 0 -41 12.5t-13 41.5v613z" />
    <glyph glyph-name="uni01AD" unicode="&#x1ad;" horiz-adv-x="361" 
d="M328 651h-81q-30 0 -42.5 -16t-12.5 -58v-57h129v-31q0 -21 -12.5 -34.5t-53.5 -13.5h-63v-322q0 -29 9 -49.5t39 -20.5h89v-30q0 -20 -13 -34.5t-51 -14.5h-25q-80 0 -113 39t-33 110v322h-80v79h80v57q0 82 36.5 117.5t117.5 35.5h80v-79z" />
    <glyph glyph-name="uni01AE" unicode="&#x1ae;" horiz-adv-x="596" 
d="M239 637h-221v79h563v-27q0 -28 -10 -40t-47 -12h-187v-697q0 -43 21 -64t54 -21h14v-79h-22q-80 0 -122.5 43.5t-42.5 121.5v696z" />
    <glyph glyph-name="Uhorn" unicode="&#x1af;" horiz-adv-x="814" 
d="M653 620v114h123v-90q0 -37 -13 -65t-37 -47t-57.5 -29t-73.5 -10v-523h-309q-53 0 -92.5 8.5t-65.5 30.5t-39.5 59.5t-13.5 96.5v551h98v-552q0 -33 6 -55.5t19 -35.5t34.5 -18.5t53.5 -5.5h211v667h98v-184q20 1 40.5 6.5t37 15.5t27 25.5t10.5 36.5v4h-57z" />
    <glyph glyph-name="uhorn" unicode="&#x1b0;" horiz-adv-x="689" 
d="M536 420v114h123v-90q0 -72 -47.5 -110.5t-125.5 -40.5v-323h-219q-52 0 -90 10t-63 33t-37 61t-12 94v352h97v-352q0 -37 5.5 -60t18 -36t32.5 -18t49 -5h121v471h98v-188q19 2 38 7.5t34.5 15.5t25 25t9.5 36v4h-57z" />
    <glyph glyph-name="uni01B1" unicode="&#x1b1;" horiz-adv-x="701" 
d="M399 716h261v-27q0 -28 -10 -40t-47 -12h-47q37 -39 58 -94.5t21 -129.5v-141q0 -151 -70 -233.5t-218 -82.5q-147 0 -217 82.5t-70 234.5v140q0 72 21.5 127.5t59.5 96.5h-103v79h257v-79h-9q-63 -21 -95.5 -81.5t-32.5 -142.5v-141q0 -114 47.5 -173t141.5 -59
q96 0 143 59t47 174v141q0 40 -8 76.5t-24 65.5t-40 50t-56 31h-10v79z" />
    <glyph glyph-name="uni01B2" unicode="&#x1b2;" horiz-adv-x="676" 
d="M368 730h80q81 0 117.5 -35.5t36.5 -117.5v-303q0 -71 -15 -129.5t-47 -100.5t-82 -65t-120 -23q-140 0 -202.5 66t-62.5 202v492h98v-492q0 -55 10.5 -91.5t31 -58t52 -30.5t73.5 -9q83 0 124.5 64.5t41.5 174.5v303q0 42 -12.5 58t-42.5 16h-81v79z" />
    <glyph glyph-name="uni01B3" unicode="&#x1b3;" horiz-adv-x="696" 
d="M681 637h-21q-22 0 -34.5 -3.5t-23 -14t-22.5 -30.5l-32 -53l-162 -270v-296h-43q-29 0 -42 12t-13 42v242l-263 450h106l208 -360l130 224q22 39 38 65t34.5 42t46 22.5t73.5 6.5h20v-79z" />
    <glyph glyph-name="uni01B4" unicode="&#x1b4;" horiz-adv-x="588" 
d="M568 651h-31q-30 0 -42.5 -16t-12.5 -58v-669q0 -31 -9.5 -58t-30 -46.5t-53 -31t-78.5 -11.5h-220v32q0 28 13.5 39.5t47.5 11.5h159q43 0 58 17.5t15 47.5v90q-37 -4 -70 -5.5l-78 -3.5q-89 -3 -130 44t-41 132v354h98v-353q0 -49 16 -73.5t61 -23.5q39 1 75 4l69 6
v497q0 82 36.5 117.5t117.5 35.5h30v-79z" />
    <glyph glyph-name="uni01B5" unicode="&#x1b5;" horiz-adv-x="632" 
d="M592 349q0 -17 -8.5 -23t-24.5 -6h-212l-195 -271h440v-50q0 -17 -8.5 -23t-24.5 -6h-514v84l192 266h-207v80h265l171 237h-409v79h518v-80l-170 -236h187v-51z" />
    <glyph glyph-name="uni01B6" unicode="&#x1b6;" horiz-adv-x="489" 
d="M435 244q0 -34 -37 -34h-137l-124 -160h316v-46q0 -34 -37 -34h-382v80l123 160h-124v80h185l117 151h-288v79h393v-79l-117 -151h112v-46z" />
    <glyph glyph-name="uni01B7" unicode="&#x1b7;" horiz-adv-x="567" 
d="M507 716v-80l-229 -262q71 -8 119 -33.5t76.5 -64.5t40.5 -90t12 -112q0 -78 -22.5 -134.5t-64 -93.5t-100.5 -54t-132 -16q-23 0 -43 1t-40.5 2.5t-44 4.5t-52.5 8v34q0 21 13 32t39 7q29 -4 61.5 -6t67.5 -2q39 0 78 9t70.5 33t51.5 65t20 104q0 60 -10.5 103.5t-34 71
t-61 40.5t-90.5 13h-31q-17 0 -23.5 5.5t-6.5 21.5v58l218 255h-352v80h470z" />
    <glyph glyph-name="uni01B8" unicode="&#x1b8;" horiz-adv-x="567" 
d="M526 716v-80h-352l218 -254v-59q0 -16 -6.5 -21.5t-23.5 -5.5h-31q-96 0 -146 -53.5t-50 -174.5q0 -63 19.5 -104t51 -65t71 -33t78.5 -9q51 0 95.5 3.5t88.5 10.5l5 -47q2 -17 -8 -23.5t-29 -11.5q-5 -1 -20.5 -3l-36.5 -4.5t-45.5 -4t-48.5 -1.5q-71 0 -129.5 17.5
t-100.5 53.5t-65.5 92.5t-23.5 134.5q0 52 12 102.5t41 91.5t77 70t119 37l-230 261v80h470z" />
    <glyph glyph-name="uni01B9" unicode="&#x1b9;" horiz-adv-x="535" 
d="M486 520v-80h-299l205 -162v-55q0 -16 -6.5 -21.5t-23.5 -5.5h-31q-100 0 -148 -41t-48 -137q0 -43 15 -73.5t41 -50t60.5 -28.5t73.5 -9q25 0 45.5 1t39.5 2.5t38 4.5t41 6l5 -47q2 -17 -8 -23.5t-29 -11.5q-10 -2 -46.5 -7.5t-84.5 -5.5q-135 0 -212 59.5t-77 188.5
q0 48 14.5 92t44 77t74 53t104.5 22l-218 172v80h430z" />
    <glyph glyph-name="uni01BA" unicode="&#x1ba;" horiz-adv-x="535" 
d="M477 520v-80l-213 -152q50 1 92.5 -6.5t73.5 -25.5t48.5 -47t17.5 -71t-15.5 -71t-45.5 -47.5t-74 -28.5t-100 -15q-60 -5 -88 -21.5t-28 -49.5q0 -12 5 -24t18.5 -21t38 -14.5t62.5 -5.5h195v-45q0 -34 -37 -34h-160q-63 0 -104.5 11t-66 30.5t-35 46t-10.5 57.5
q0 37 14.5 63.5t41.5 44.5t65.5 28t85.5 15q65 7 102.5 24t37.5 56q0 44 -29.5 61.5t-106.5 17.5h-85q-17 0 -23.5 5.5t-6.5 21.5v55l196 142h-296v80h430z" />
    <glyph glyph-name="uni01BB" unicode="&#x1bb;" horiz-adv-x="521" 
d="M102 -30q-36 0 -52 12t-16 49v79q0 43 17.5 72.5t49.5 53.5l112 84h-183v80h287q31 29 41.5 56.5t10.5 58.5q0 54 -39.5 88t-108.5 34q-42 0 -83.5 -4.5t-89.5 -18.5v81q22 6 42 10t40 6.5t42.5 3.5t48.5 1q57 0 102.5 -13t77.5 -38.5t49 -63t17 -86.5q-1 -35 -9 -63
t-24 -52h58v-31q0 -21 -11 -35t-43 -14h-83l-189 -143q-20 -16 -27 -33t-7 -40v-55h342v-30q0 -21 -11 -35t-43 -14h-318z" />
    <glyph glyph-name="uni01BC" unicode="&#x1bc;" horiz-adv-x="548" 
d="M93 335v302h-76v79h469v-38q0 -25 -13 -33t-33 -8h-249v-223h77q64 0 109 -16t73 -45t40.5 -70t12.5 -90q0 -115 -55.5 -176t-182.5 -61q-16 0 -37.5 1t-45.5 3t-49.5 5t-48.5 7v35q0 14 6 21.5t14.5 11t17.5 4t16 -0.5q30 -3 59.5 -5t58.5 -3q44 -1 72.5 8t45.5 28.5
t24 50t7 71.5q0 25 -6 50.5t-22 46t-44 33t-71 12.5h-169z" />
    <glyph glyph-name="uni01BD" unicode="&#x1bd;" horiz-adv-x="492" 
d="M93 238v203h-76v79h409v-38q0 -25 -13 -33t-33 -8h-189v-124h57q98 0 146.5 -44t48.5 -130q0 -88 -53 -137.5t-161 -49.5q-32 0 -69 4t-84 12v35q0 14 6 21.5t14.5 11t17.5 4t16 -0.5q15 -2 25.5 -3t20 -2.5t20 -2t24.5 -0.5q62 0 93.5 22.5t31.5 85.5q0 15 -3.5 32
t-15 31t-31.5 23t-53 9h-149z" />
    <glyph glyph-name="uni01BE" unicode="&#x1be;" horiz-adv-x="492" 
d="M250 239q-80 9 -113 43.5t-33 105.5v53h-90v79h90v141h98v-141h134v-38q0 -25 -13 -33t-33 -8h-88v-53q0 -14 2 -26t9 -20.5t20 -14t34 -7.5q186 -15 186 -177q0 -88 -50 -137.5t-158 -49.5q-32 0 -68 4t-83 12v35q0 14 6 21.5t14.5 11t17.5 4t16 -0.5q15 -2 25.5 -3
t19.5 -2.5t19 -2t24 -0.5q62 0 90.5 22.5t28.5 85.5q0 15 -4 30.5t-15 29t-31.5 23t-54.5 13.5z" />
    <glyph glyph-name="uni01BF" unicode="&#x1bf;" horiz-adv-x="538" 
d="M75 520h210q200 0 200 -184v-133q0 -45 -15.5 -78.5t-40 -59t-54.5 -46l-60 -39.5l-142 -89v-115h-43q-29 0 -42 12.5t-13 43.5v688zM173 -10l142 89q27 17 49.5 48.5t22.5 75.5v133q0 51 -24.5 78t-77.5 27h-112v-451z" />
    <glyph glyph-name="uni01C0" unicode="&#x1c0;" horiz-adv-x="263" 
d="M183 716v-746h-45q-29 0 -41.5 12.5t-12.5 41.5v692h99z" />
    <glyph glyph-name="uni01C1" unicode="&#x1c1;" horiz-adv-x="445" 
d="M183 716v-746h-45q-29 0 -41.5 12.5t-12.5 41.5v692h99zM363 716v-746h-45q-29 0 -41.5 12.5t-12.5 41.5v692h99z" />
    <glyph glyph-name="uni01C2" unicode="&#x1c2;" horiz-adv-x="424" 
d="M402 471q0 -25 -13 -33t-33 -8h-93v-120h139v-39q0 -25 -13 -33t-33 -8h-93v-260h-45q-29 0 -41.5 12.5t-12.5 41.5v206h-144v80h144v120h-144v80h144v206h99v-206h139v-39z" />
    <glyph glyph-name="uni01C3" unicode="&#x1c3;" horiz-adv-x="330" 
d="M123 202l-17 538h118l-18 -538h-83zM218 -30h-109v114h109v-114z" />
    <glyph glyph-name="uni01C4" unicode="&#x1c4;" horiz-adv-x="1280" 
d="M353 716q62 0 107.5 -16.5t75 -45t44 -67.5t14.5 -83v-327q0 -44 -14.5 -82t-44 -66t-75 -43.5t-107.5 -15.5h-279v746h279zM171 637v-588h182q34 0 60.5 10t45 27t28.5 40.5t10 50.5v327q0 61 -39 97t-105 36h-182zM974 834l63 78h98l-113 -135h-97l-114 135h98z
M1193 716v-80l-423 -587h440v-50q0 -17 -8.5 -23t-24.5 -6h-514v84l421 583h-409v79h518z" />
    <glyph glyph-name="uni01C5" unicode="&#x1c5;" horiz-adv-x="1142" 
d="M353 716q62 0 107.5 -16.5t75 -45t44 -67.5t14.5 -83v-327q0 -44 -14.5 -82t-44 -66t-75 -43.5t-107.5 -15.5h-279v746h279zM171 637v-588h182q34 0 60.5 10t45 27t28.5 40.5t10 50.5v327q0 61 -39 97t-105 36h-182zM1094 50v-46q0 -34 -37 -34h-382v80l301 391h-288v79
h393v-79l-303 -391h316zM913 638l63 78h98l-113 -135h-97l-114 135h98z" />
    <glyph glyph-name="uni01C6" unicode="&#x1c6;" horiz-adv-x="1018" 
d="M944 50v-46q0 -34 -37 -34h-382v80l301 391h-288v79h393v-79l-303 -391h316zM763 638l63 78h98l-113 -135h-97l-114 135h98zM473 721v-751h-210q-100 0 -152.5 43.5t-52.5 132.5v198q0 88 52.5 132t152.5 44h112v201h98zM375 441h-113q-48 0 -77 -26t-29 -81v-178
q0 -54 29.5 -80.5t77.5 -26.5h112v392z" />
    <glyph glyph-name="uni01C7" unicode="&#x1c7;" horiz-adv-x="951" 
d="M172 49h348v-28q0 -27 -11 -39t-41 -12h-394v746h98v-667zM672 49q54 0 79.5 24t25.5 86v557h99v-557q0 -97 -49 -143t-155 -46h-121v31q0 27 13 37.5t45 10.5h63z" />
    <glyph glyph-name="uni01C8" unicode="&#x1c8;" horiz-adv-x="853" 
d="M172 49h348v-28q0 -27 -11 -39t-41 -12h-394v746h98v-667zM678 721h102v-125h-35q-28 0 -47.5 16t-19.5 45v64zM680 520h98v-601q0 -83 -37.5 -120.5t-116.5 -37.5h-97v31q0 24 15 36.5t39 12.5h43q37 0 46.5 20.5t9.5 57.5v601z" />
    <glyph glyph-name="uni01C9" unicode="&#x1c9;" horiz-adv-x="561" 
d="M171 721v-751h-44q-28 0 -41 12.5t-13 42.5v696h98zM386 721h102v-125h-35q-28 0 -47.5 16t-19.5 45v64zM388 520h98v-601q0 -83 -37.5 -120.5t-116.5 -37.5h-97v31q0 24 15 36.5t39 12.5h43q37 0 46.5 20.5t9.5 57.5v601z" />
    <glyph glyph-name="uni01CA" unicode="&#x1ca;" horiz-adv-x="1108" 
d="M74 716h309q52 0 92 -8.5t66 -30.5t39.5 -60t13.5 -96v-551h-43q-29 0 -42 12.5t-13 41.5v498q0 33 -6 55.5t-19 35.5t-35 18.5t-53 5.5h-211v-667h-44q-29 0 -41.5 12.5t-12.5 41.5v692zM829 49q54 0 79.5 24t25.5 86v557h99v-557q0 -97 -49 -143t-155 -46h-121v31
q0 27 13 37.5t45 10.5h63z" />
    <glyph glyph-name="uni01CB" unicode="&#x1cb;" horiz-adv-x="1010" 
d="M74 716h309q52 0 92 -8.5t66 -30.5t39.5 -60t13.5 -96v-551h-43q-29 0 -42 12.5t-13 41.5v498q0 33 -6 55.5t-19 35.5t-35 18.5t-53 5.5h-211v-667h-44q-29 0 -41.5 12.5t-12.5 41.5v692zM835 721h102v-125h-35q-28 0 -47.5 16t-19.5 45v64zM837 520h98v-601
q0 -83 -37.5 -120.5t-116.5 -37.5h-97v31q0 24 15 36.5t39 12.5h43q37 0 46.5 20.5t9.5 57.5v601z" />
    <glyph glyph-name="uni01CC" unicode="&#x1cc;" horiz-adv-x="844" 
d="M309 520q52 0 87.5 -9t57.5 -29.5t31.5 -53.5t9.5 -81v-377h-44q-29 0 -42 12.5t-13 42.5v322q0 28 -4.5 46t-14.5 28.5t-27 15t-41 4.5h-141v-471h-42q-29 0 -42.5 12.5t-13.5 42.5v495h239zM669 721h102v-125h-35q-28 0 -47.5 16t-19.5 45v64zM671 520h98v-601
q0 -83 -37.5 -120.5t-116.5 -37.5h-97v31q0 24 15 36.5t39 12.5h43q37 0 46.5 20.5t9.5 57.5v601z" />
    <glyph glyph-name="uni01CD" unicode="&#x1cd;" horiz-adv-x="656" 
d="M453 235q-9 -18 -32.5 -32t-57.5 -14h-175l-70 -219h-101l250 746h85q17 0 30 -10.5t18 -25.5l240 -710h-100zM214 270h228l-114 352zM325 838l63 78h98l-113 -135h-97l-114 135h98z" />
    <glyph glyph-name="uni01CE" unicode="&#x1ce;" horiz-adv-x="537" 
d="M472 -30h-236q-84 0 -132.5 37t-48.5 109v62q0 85 48.5 122t132.5 35q41 -1 72 -3t66 -7v45q0 33 -19.5 52t-60.5 19h-135q-41 0 -52.5 13.5t-11.5 33.5v32h199q93 0 135.5 -38t42.5 -112v-400zM237 252q-44 0 -64 -17.5t-20 -60.5v-53q0 -22 8 -36t20.5 -22t27 -11
t28.5 -3h137v193q-39 5 -73 7.5t-64 2.5zM263 638l63 78h98l-113 -135h-97l-114 135h98z" />
    <glyph glyph-name="uni01CF" unicode="&#x1cf;" horiz-adv-x="263" 
d="M183 716v-746h-45q-29 0 -41.5 12.5t-12.5 41.5v692h99zM133 838l63 78h98l-113 -135h-97l-114 135h98z" />
    <glyph glyph-name="uni01D0" unicode="&#x1d0;" horiz-adv-x="237" 
d="M120 638l63 78h98l-113 -135h-97l-114 135h98zM170 520v-550h-43q-29 0 -42 12.5t-13 42.5v495h98z" />
    <glyph glyph-name="uni01D1" unicode="&#x1d1;" horiz-adv-x="695" 
d="M346 730q148 0 218 -83t70 -234v-141q0 -151 -70 -233.5t-218 -82.5q-147 0 -217 82.5t-70 234.5v140q0 152 70 234.5t217 82.5zM536 414q0 51 -12 93.5t-35.5 73t-59 48t-83.5 17.5q-47 0 -82.5 -17.5t-59 -48t-35.5 -73.5t-12 -94v-141q0 -232 189 -232q190 0 190 233
v141zM337 838l63 78h98l-113 -135h-97l-114 135h98z" />
    <glyph glyph-name="uni01D2" unicode="&#x1d2;" horiz-adv-x="568" 
d="M283 534q109 0 166 -52t57 -164v-145q0 -112 -56.5 -164.5t-166.5 -52.5q-107 0 -165 52t-58 165v145q0 112 58 164t165 52zM408 318q0 28 -7 53t-22 44t-38.5 29.5t-57.5 10.5q-59 0 -92 -34.5t-33 -102.5v-145q0 -67 32.5 -102.5t92.5 -35.5t92.5 34.5t32.5 103.5v145z
M270 638l63 78h98l-113 -135h-97l-114 135h98z" />
    <glyph glyph-name="uni01D3" unicode="&#x1d3;" horiz-adv-x="676" 
d="M595 -30h-309q-53 0 -92.5 8.5t-65.5 30.5t-39.5 59.5t-13.5 96.5v551h98v-552q0 -33 6 -55.5t19 -35.5t34.5 -18.5t53.5 -5.5h211v667h98v-746zM339 838l63 78h98l-113 -135h-97l-114 135h98z" />
    <glyph glyph-name="uni01D4" unicode="&#x1d4;" horiz-adv-x="555" 
d="M267 -30q-52 0 -90 10t-63 33t-37 61t-12 94v352h97v-352q0 -37 5.5 -60t18 -36t32.5 -18t49 -5h121v471h98v-550h-219zM270 638l63 78h98l-113 -135h-97l-114 135h98z" />
    <glyph glyph-name="uni01D5" unicode="&#x1d5;" horiz-adv-x="676" 
d="M595 -30h-309q-53 0 -92.5 8.5t-65.5 30.5t-39.5 59.5t-13.5 96.5v551h98v-552q0 -33 6 -55.5t19 -35.5t34.5 -18.5t53.5 -5.5h211v667h98v-746zM485 775h-103v95h103v-95zM294 775h-104v95h104v-95zM499 999v-76h-322v76h322z" />
    <glyph glyph-name="uni01D6" unicode="&#x1d6;" horiz-adv-x="555" 
d="M267 -30q-52 0 -90 10t-63 33t-37 61t-12 94v352h97v-352q0 -37 5.5 -60t18 -36t32.5 -18t49 -5h121v471h98v-550h-219zM416 595h-103v105h103v-105zM225 595h-104v105h104v-105zM430 833v-76h-322v76h322z" />
    <glyph glyph-name="uni01D7" unicode="&#x1d7;" horiz-adv-x="676" 
d="M595 -30h-309q-53 0 -92.5 8.5t-65.5 30.5t-39.5 59.5t-13.5 96.5v551h98v-552q0 -33 6 -55.5t19 -35.5t34.5 -18.5t53.5 -5.5h211v667h98v-746zM485 735h-103v95h103v-95zM294 735h-104v95h104v-95zM433 1000l-91 -118q-12 -16 -23.5 -22t-34.5 -6h-41l80 146h110z" />
    <glyph glyph-name="uni01D8" unicode="&#x1d8;" horiz-adv-x="555" 
d="M267 -30q-52 0 -90 10t-63 33t-37 61t-12 94v352h97v-352q0 -37 5.5 -60t18 -36t32.5 -18t49 -5h121v471h98v-550h-219zM416 595h-103v105h103v-105zM225 595h-104v105h104v-105zM364 879l-91 -118q-12 -16 -23.5 -22t-34.5 -6h-41l80 146h110z" />
    <glyph glyph-name="uni01D9" unicode="&#x1d9;" horiz-adv-x="676" 
d="M595 -30h-309q-53 0 -92.5 8.5t-65.5 30.5t-39.5 59.5t-13.5 96.5v551h98v-552q0 -33 6 -55.5t19 -35.5t34.5 -18.5t53.5 -5.5h211v667h98v-746zM485 755h-103v95h103v-95zM294 755h-104v95h104v-95zM339 921l63 78h98l-113 -135h-97l-114 135h98z" />
    <glyph glyph-name="uni01DA" unicode="&#x1da;" horiz-adv-x="555" 
d="M267 -30q-52 0 -90 10t-63 33t-37 61t-12 94v352h97v-352q0 -37 5.5 -60t18 -36t32.5 -18t49 -5h121v471h98v-550h-219zM416 595h-103v105h103v-105zM225 595h-104v105h104v-105zM270 792l63 78h98l-113 -135h-97l-114 135h98z" />
    <glyph glyph-name="uni01DB" unicode="&#x1db;" horiz-adv-x="676" 
d="M595 -30h-309q-53 0 -92.5 8.5t-65.5 30.5t-39.5 59.5t-13.5 96.5v551h98v-552q0 -33 6 -55.5t19 -35.5t34.5 -18.5t53.5 -5.5h211v667h98v-746zM485 745h-103v95h103v-95zM294 745h-104v95h104v-95zM353 1000l80 -146h-41q-23 0 -34.5 6t-23.5 22l-91 118h110z" />
    <glyph glyph-name="uni01DC" unicode="&#x1dc;" horiz-adv-x="555" 
d="M267 -30q-52 0 -90 10t-63 33t-37 61t-12 94v352h97v-352q0 -37 5.5 -60t18 -36t32.5 -18t49 -5h121v471h98v-550h-219zM416 595h-103v105h103v-105zM225 595h-104v105h104v-105zM284 870l80 -146h-41q-23 0 -34.5 6t-23.5 22l-91 118h110z" />
    <glyph glyph-name="uni01DD" unicode="&#x1dd;" horiz-adv-x="548" 
d="M139 455q-41 0 -52.5 13.5t-11.5 33.5v32h225q43 0 78.5 -12.5t60.5 -35t38.5 -55.5t13.5 -73v-191q0 -53 -17 -90.5t-46.5 -61t-68.5 -34.5t-82 -11q-47 0 -87 11t-69 33.5t-45.5 55.5t-16.5 77v80q0 35 17.5 53.5t59.5 18.5h257v59q0 47 -27.5 72t-65.5 25h-161z
M393 220h-218q-11 0 -14.5 -4t-3.5 -16v-53q0 -45 30.5 -71.5t89.5 -26.5q54 0 85 26.5t31 71.5v73z" />
    <glyph glyph-name="uni01DE" unicode="&#x1de;" horiz-adv-x="656" 
d="M453 235q-9 -18 -32.5 -32t-57.5 -14h-175l-70 -219h-101l250 746h85q17 0 30 -10.5t18 -25.5l240 -710h-100zM214 270h228l-114 352zM472 755h-103v95h103v-95zM281 755h-104v95h104v-95zM485 970v-76h-322v76h322z" />
    <glyph glyph-name="uni01DF" unicode="&#x1df;" horiz-adv-x="537" 
d="M472 -30h-236q-84 0 -132.5 37t-48.5 109v62q0 85 48.5 122t132.5 35q41 -1 72 -3t66 -7v45q0 33 -19.5 52t-60.5 19h-135q-41 0 -52.5 13.5t-11.5 33.5v32h199q93 0 135.5 -38t42.5 -112v-400zM237 252q-44 0 -64 -17.5t-20 -60.5v-53q0 -22 8 -36t20.5 -22t27 -11
t28.5 -3h137v193q-39 5 -73 7.5t-64 2.5zM410 595h-103v105h103v-105zM219 595h-104v105h104v-105zM423 833v-76h-322v76h322z" />
    <glyph glyph-name="uni01E0" unicode="&#x1e0;" horiz-adv-x="656" 
d="M453 235q-9 -18 -32.5 -32t-57.5 -14h-175l-70 -219h-101l250 746h85q17 0 30 -10.5t18 -25.5l240 -710h-100zM214 270h228l-114 352zM485 970v-76h-322v76h322zM380 754h-104v105h104v-105z" />
    <glyph glyph-name="uni01E1" unicode="&#x1e1;" horiz-adv-x="537" 
d="M472 -30h-236q-84 0 -132.5 37t-48.5 109v62q0 85 48.5 122t132.5 35q41 -1 72 -3t66 -7v45q0 33 -19.5 52t-60.5 19h-135q-41 0 -52.5 13.5t-11.5 33.5v32h199q93 0 135.5 -38t42.5 -112v-400zM237 252q-44 0 -64 -17.5t-20 -60.5v-53q0 -22 8 -36t20.5 -22t27 -11
t28.5 -3h137v193q-39 5 -73 7.5t-64 2.5zM423 833v-76h-322v76h322zM315 597h-104v105h104v-105z" />
    <glyph glyph-name="uni01E2" unicode="&#x1e2;" horiz-adv-x="985" 
d="M481 -30v240q-27 -21 -68 -21h-193l-97 -219h-106l330 746h596v-25q0 -25 -10 -39.5t-45 -14.5h-309v-232h332v-28q0 -21 -10 -36t-44 -15h-278v-277h376v-28q0 -21 -10 -36t-44 -15h-420zM256 270h225v367h-63zM697 875v-76h-322v76h322z" />
    <glyph glyph-name="uni01E3" unicode="&#x1e3;" horiz-adv-x="860" 
d="M786 49v-32q0 -21 -10.5 -34t-52.5 -13h-158q-47 0 -78.5 10.5t-57.5 36.5q-17 -20 -46 -33.5t-61 -13.5h-86q-84 0 -132.5 37t-48.5 109v62q0 85 48.5 122t132.5 35q41 -1 72 -3t66 -7v45q0 33 -19.5 52t-60.5 19h-135q-41 0 -52.5 13.5t-11.5 33.5v32h199q94 0 138 -41
q30 28 70 41.5t86 13.5q47 0 87 -13t69 -37t45.5 -58.5t16.5 -78.5v-70q0 -35 -17.5 -53.5t-59.5 -18.5h-257v-64q2 -45 28.5 -68.5t64.5 -23.5h221zM237 252q-44 0 -64 -17.5t-20 -60.5v-53q0 -22 8 -36t20.5 -22t27 -11t28.5 -3h67q29 0 49.5 20t20.5 49v124
q-39 5 -73 7.5t-64 2.5zM472 284h218q11 0 14.5 4t3.5 16v43q0 45 -30.5 76.5t-89.5 31.5q-52 0 -83 -30t-33 -74v-67zM593 675v-76h-322v76h322z" />
    <glyph glyph-name="uni01E4" unicode="&#x1e4;" horiz-adv-x="704" 
d="M678 204q0 -28 -13.5 -40.5t-48.5 -12.5h-20q-2 -92 -56 -136.5t-139 -44.5h-128q-47 0 -86 12t-67.5 36.5t-44.5 61.5t-16 86v357q0 46 16.5 82t45.5 61t68 37.5t84 12.5h301v-26q0 -28 -13.5 -40.5t-48.5 -12.5h-239q-50 0 -83 -30t-33 -84v-358q0 -48 29 -82t87 -34
h127q48 0 72 30t26 72h-172v80h172v59q0 13 -5 16.5t-14 3.5h-98q-31 0 -45 9t-14 36v34h199q42 0 58.5 -19.5t16.5 -57.5v-81h82v-27z" />
    <glyph glyph-name="uni01E5" unicode="&#x1e5;" horiz-adv-x="588" 
d="M563 -76q0 -28 -13.5 -40.5t-48.5 -12.5h-14q-5 -22 -15.5 -42t-29.5 -35t-47.5 -24t-68.5 -9h-213v32q0 47 59 47h151q45 0 61 31h-248v70h256v39h-131q-92 0 -144 45t-52 131v189q0 87 53.5 131t142.5 44h229v-579h73v-17zM163 155q0 -30 9.5 -49t24 -29.5t32 -14
t32.5 -3.5h131v382h-131q-51 0 -74.5 -27.5t-23.5 -69.5v-189z" />
    <glyph glyph-name="Gcaron" unicode="&#x1e6;" horiz-adv-x="664" 
d="M582 716v-26q0 -28 -13.5 -40.5t-48.5 -12.5h-239q-50 0 -83 -30t-33 -84v-358q0 -48 29 -82t87 -34h122q49 0 73.5 31.5t24.5 75.5v134q0 13 -5 16.5t-14 3.5h-98q-31 0 -45 9t-14 36v34h199q42 0 58.5 -19.5t16.5 -57.5v-156q0 -47 -14.5 -82t-40 -58t-61.5 -34.5
t-79 -11.5h-123q-47 0 -86 12t-67.5 36.5t-44.5 61.5t-16 86v357q0 46 16.5 82t45.5 61t68 37.5t84 12.5h301zM333 838l63 78h98l-113 -135h-97l-114 135h98z" />
    <glyph glyph-name="gcaron" unicode="&#x1e7;" horiz-adv-x="555" 
d="M318 -160q35 0 52 19t17 50v61h-131q-92 0 -144 45t-52 131v199q0 87 53.5 131t142.5 44h229v-613q0 -27 -8 -53t-26.5 -47t-50 -33.5t-79.5 -12.5h-213v32q0 47 59 47h151zM158 145q0 -30 9.5 -49t24 -29.5t32 -14t32.5 -3.5h131v392h-131q-51 0 -74.5 -27.5
t-23.5 -69.5v-199zM267 638l63 78h98l-113 -135h-97l-114 135h98z" />
    <glyph glyph-name="uni01E8" unicode="&#x1e8;" horiz-adv-x="619" 
d="M206 355l276 361h119l-276 -360l290 -386h-118zM172 716v-746h-45q-28 0 -40.5 13t-12.5 42v691h98zM310 838l63 78h98l-113 -135h-97l-114 135h98z" />
    <glyph glyph-name="uni01E9" unicode="&#x1e9;" horiz-adv-x="539" 
d="M75 721h98v-751h-43q-29 0 -42 12.5t-13 42.5v696zM406 520h113l-214 -255l226 -295h-109l-227 296zM313 816l63 78h98l-113 -135h-97l-114 135h98z" />
    <glyph glyph-name="uni01EA" unicode="&#x1ea;" horiz-adv-x="695" 
d="M346 730q148 0 218 -83t70 -234v-141q0 -125 -46.5 -202.5t-145.5 -102.5q-31 -24 -48.5 -50.5t-17.5 -46.5q0 -42 46 -42q11 0 24.5 2t23.5 7v-63q-17 -8 -35.5 -11t-34.5 -3q-51 0 -76 27t-25 65q0 30 14 56.5t35 47.5q-148 0 -218.5 82.5t-70.5 234.5v140
q0 152 70 234.5t217 82.5zM536 414q0 51 -12 93.5t-35.5 73t-59 48t-83.5 17.5q-47 0 -82.5 -17.5t-59 -48t-35.5 -73.5t-12 -94v-141q0 -232 189 -232q190 0 190 233v141z" />
    <glyph glyph-name="uni01EB" unicode="&#x1eb;" horiz-adv-x="568" 
d="M283 534q109 0 166 -52t57 -164v-145q0 -90 -36.5 -140.5t-108.5 -67.5q-29 -24 -45.5 -49.5t-16.5 -45.5q0 -42 46 -42q11 0 24.5 2t23.5 7v-63q-17 -8 -35.5 -11t-34.5 -3q-51 0 -76 27t-25 65q0 30 14 56.5t35 47.5q-102 3 -156.5 55t-54.5 162v145q0 112 58 164
t165 52zM408 318q0 28 -7 53t-22 44t-38.5 29.5t-57.5 10.5q-59 0 -92 -34.5t-33 -102.5v-145q0 -67 32.5 -102.5t92.5 -35.5t92.5 34.5t32.5 103.5v145z" />
    <glyph glyph-name="uni01EC" unicode="&#x1ec;" horiz-adv-x="695" 
d="M346 730q148 0 218 -83t70 -234v-141q0 -125 -46.5 -202.5t-145.5 -102.5q-31 -24 -48.5 -50.5t-17.5 -46.5q0 -42 46 -42q11 0 24.5 2t23.5 7v-63q-17 -8 -35.5 -11t-34.5 -3q-51 0 -76 27t-25 65q0 30 14 56.5t35 47.5q-148 0 -218.5 82.5t-70.5 234.5v140
q0 152 70 234.5t217 82.5zM536 414q0 51 -12 93.5t-35.5 73t-59 48t-83.5 17.5q-47 0 -82.5 -17.5t-59 -48t-35.5 -73.5t-12 -94v-141q0 -232 189 -232q190 0 190 233v141zM497 875v-76h-322v76h322z" />
    <glyph glyph-name="uni01ED" unicode="&#x1ed;" horiz-adv-x="568" 
d="M283 534q109 0 166 -52t57 -164v-145q0 -92 -38.5 -143.5t-114.5 -66.5q-28 -24 -44 -48.5t-16 -44.5q0 -42 46 -42q11 0 24.5 2t23.5 7v-63q-17 -8 -35.5 -11t-34.5 -3q-51 0 -76 27t-25 65q0 30 14 56.5t35 48.5q-99 4 -152 55.5t-53 160.5v145q0 112 58 164t165 52z
M408 318q0 28 -7 53t-22 44t-38.5 29.5t-57.5 10.5q-59 0 -92 -34.5t-33 -102.5v-145q0 -67 32.5 -102.5t92.5 -35.5t92.5 34.5t32.5 103.5v145zM430 675v-76h-322v76h322z" />
    <glyph glyph-name="uni01EE" unicode="&#x1ee;" horiz-adv-x="567" 
d="M507 716v-80l-229 -262q71 -8 119 -33.5t76.5 -64.5t40.5 -90t12 -112q0 -78 -22.5 -134.5t-64 -93.5t-100.5 -54t-132 -16q-23 0 -43 1t-40.5 2.5t-44 4.5t-52.5 8v34q0 21 13 32t39 7q29 -4 61.5 -6t67.5 -2q39 0 78 9t70.5 33t51.5 65t20 104q0 60 -10.5 103t-34 70.5
t-61 40.5t-90.5 14h-31q-17 0 -23.5 5.5t-6.5 21.5v58l218 255h-352v80h470zM284 838l63 78h98l-113 -135h-97l-114 135h98z" />
    <glyph glyph-name="uni01EF" unicode="&#x1ef;" horiz-adv-x="535" 
d="M473 520v-80l-215 -172q60 -2 104 -22t73 -53t43 -77t14 -92q0 -66 -20 -113t-57 -77.5t-91 -44.5t-121 -13q-23 0 -41.5 1t-37 2.5t-40.5 4.5t-51 8v34q0 21 13 32t39 7q29 -4 56.5 -6t62.5 -2q39 0 73.5 9t60.5 28.5t41 50t15 73.5q0 96 -50.5 137t-145.5 41h-31
q-17 0 -23.5 5.5t-6.5 21.5v55l202 162h-296v80h430zM268 638l63 78h98l-113 -135h-97l-114 135h98z" />
    <glyph glyph-name="uni01F0" unicode="&#x1f0;" horiz-adv-x="315" 
d="M169 638l63 78h98l-113 -135h-97l-114 135h98zM142 520h98v-601q0 -83 -37.5 -120.5t-116.5 -37.5h-97v31q0 24 15 36.5t39 12.5h43q37 0 46.5 20.5t9.5 57.5v601z" />
    <glyph glyph-name="uni01F1" unicode="&#x1f1;" horiz-adv-x="1271" 
d="M353 716q62 0 107.5 -16.5t75 -45t44 -67.5t14.5 -83v-327q0 -44 -14.5 -82t-44 -66t-75 -43.5t-107.5 -15.5h-279v746h279zM171 637v-588h182q34 0 60.5 10t45 27t28.5 40.5t10 50.5v327q0 61 -39 97t-105 36h-182zM1202 716v-80l-423 -587h440v-50q0 -17 -8.5 -23
t-24.5 -6h-514v84l421 583h-409v79h518z" />
    <glyph glyph-name="uni01F2" unicode="&#x1f2;" horiz-adv-x="1142" 
d="M353 716q62 0 107.5 -16.5t75 -45t44 -67.5t14.5 -83v-327q0 -44 -14.5 -82t-44 -66t-75 -43.5t-107.5 -15.5h-279v746h279zM171 637v-588h182q34 0 60.5 10t45 27t28.5 40.5t10 50.5v327q0 61 -39 97t-105 36h-182zM1094 50v-46q0 -34 -37 -34h-382v80l301 391h-288v79
h393v-79l-303 -391h316z" />
    <glyph glyph-name="uni01F3" unicode="&#x1f3;" horiz-adv-x="1022" 
d="M473 721v-751h-210q-100 0 -152.5 43.5t-52.5 132.5v198q0 88 52.5 132t152.5 44h112v201h98zM375 441h-113q-48 0 -77 -26t-29 -81v-178q0 -54 29.5 -80.5t77.5 -26.5h112v392zM974 50v-46q0 -34 -37 -34h-382v80l301 391h-288v79h393v-79l-303 -391h316z" />
    <glyph glyph-name="uni01F4" unicode="&#x1f4;" horiz-adv-x="664" 
d="M582 716v-26q0 -28 -13.5 -40.5t-48.5 -12.5h-239q-50 0 -83 -30t-33 -84v-358q0 -48 29 -82t87 -34h122q49 0 73.5 31.5t24.5 75.5v134q0 13 -5 16.5t-14 3.5h-98q-31 0 -45 9t-14 36v34h199q42 0 58.5 -19.5t16.5 -57.5v-156q0 -47 -14.5 -82t-40 -58t-61.5 -34.5
t-79 -11.5h-123q-47 0 -86 12t-67.5 36.5t-44.5 61.5t-16 86v357q0 46 16.5 82t45.5 61t68 37.5t84 12.5h301zM427 930l-91 -118q-12 -16 -23.5 -22t-34.5 -6h-41l80 146h110z" />
    <glyph glyph-name="uni01F5" unicode="&#x1f5;" horiz-adv-x="555" 
d="M318 -160q35 0 52 19t17 50v61h-131q-92 0 -144 45t-52 131v199q0 87 53.5 131t142.5 44h229v-613q0 -27 -8 -53t-26.5 -47t-50 -33.5t-79.5 -12.5h-213v32q0 47 59 47h151zM158 145q0 -30 9.5 -49t24 -29.5t32 -14t32.5 -3.5h131v392h-131q-51 0 -74.5 -27.5
t-23.5 -69.5v-199zM361 730l-91 -118q-12 -16 -23.5 -22t-34.5 -6h-41l80 146h110z" />
    <glyph glyph-name="uni01F6" unicode="&#x1f6;" horiz-adv-x="1041" 
d="M700 -30q-52 0 -90.5 10t-63.5 33t-37 61t-12 94v202q-28 -44 -88 -44h-237v-356h-44q-29 0 -41.5 12.5t-12.5 41.5v692h98v-311h325v311h98v-548q0 -36 6 -59t18.5 -36.5t32.5 -18.5t48 -5h60q65 0 88 29.5t23 90.5v351h98v-358q0 -99 -48.5 -145.5t-160.5 -46.5h-60z
" />
    <glyph glyph-name="uni01F7" unicode="&#x1f7;" horiz-adv-x="619" 
d="M171 -29v-195h-43q-29 0 -42 12.5t-13 41.5v886h272q51 0 90.5 -10t67.5 -32t42.5 -57t14.5 -85v-127q0 -56 -10 -97.5t-35 -78t-66 -71t-104 -74.5zM171 635v-557l174 113q51 33 84 85t33 129v127q0 48 -26 75.5t-91 27.5h-174z" />
    <glyph glyph-name="uni01F8" unicode="&#x1f8;" horiz-adv-x="669" 
d="M74 716h309q52 0 92 -8.5t66 -30.5t39.5 -60t13.5 -96v-551h-43q-29 0 -42 12.5t-13 41.5v498q0 33 -6 55.5t-19 35.5t-35 18.5t-53 5.5h-211v-667h-44q-29 0 -41.5 12.5t-12.5 41.5v692zM362 930l80 -146h-41q-23 0 -34.5 6t-23.5 22l-91 118h110z" />
    <glyph glyph-name="uni01F9" unicode="&#x1f9;" horiz-adv-x="565" 
d="M309 520q52 0 87.5 -9t57.5 -29.5t31.5 -53.5t9.5 -81v-377h-44q-29 0 -42 12.5t-13 42.5v322q0 28 -4.5 46t-14.5 28.5t-27 15t-41 4.5h-141v-471h-42q-29 0 -42.5 12.5t-13.5 42.5v495h239zM279 730l80 -146h-41q-23 0 -34.5 6t-23.5 22l-91 118h110z" />
    <glyph glyph-name="Aringacute" unicode="&#x1fa;" horiz-adv-x="656" 
d="M220 759q0 45 29.5 72.5t74.5 27.5q46 0 75.5 -27.5t29.5 -72.5q0 -23 -8.5 -42t-22.5 -32q1 -2 1 -3t1 -2l240 -710h-100l-87 265q-9 -18 -32.5 -32t-57.5 -14h-175l-70 -219h-101l238 711q-35 29 -35 78zM214 270h228l-114 352zM419 1028l-91 -118q-12 -16 -23.5 -22
t-34.5 -6h-41l80 146h110zM281 759q0 -20 10.5 -31t28.5 -12h4q20 0 32 11t12 32q0 20 -12 32t-32 12t-31.5 -12t-11.5 -32z" />
    <glyph glyph-name="aringacute" unicode="&#x1fb;" horiz-adv-x="537" 
d="M472 -30h-236q-84 0 -132.5 37t-48.5 109v62q0 85 48.5 122t132.5 35q41 -1 72 -3t66 -7v45q0 33 -19.5 52t-60.5 19h-135q-41 0 -52.5 13.5t-11.5 33.5v32h199q93 0 135.5 -38t42.5 -112v-400zM237 252q-44 0 -64 -17.5t-20 -60.5v-53q0 -22 8 -36t20.5 -22t27 -11
t28.5 -3h137v193q-39 5 -73 7.5t-64 2.5zM219 656q0 -21 11.5 -32t31.5 -11t32 11t12 32q0 20 -12 32t-32 12t-31.5 -12t-11.5 -32zM158 656q0 45 29.5 72.5t74.5 27.5q46 0 75.5 -27.5t29.5 -72.5t-29.5 -72.5t-75.5 -27.5q-45 0 -74.5 27.5t-29.5 72.5zM357 920l-91 -118
q-12 -16 -23.5 -22t-34.5 -6h-41l80 146h110z" />
    <glyph glyph-name="AEacute" unicode="&#x1fc;" horiz-adv-x="985" 
d="M481 -30v240q-27 -21 -68 -21h-193l-97 -219h-106l330 746h596v-25q0 -25 -10 -39.5t-45 -14.5h-309v-232h332v-28q0 -21 -10 -36t-44 -15h-278v-277h376v-28q0 -21 -10 -36t-44 -15h-420zM256 270h225v367h-63zM594 930l-91 -118q-12 -16 -23.5 -22t-34.5 -6h-41l80 146
h110z" />
    <glyph glyph-name="aeacute" unicode="&#x1fd;" horiz-adv-x="860" 
d="M786 49v-32q0 -21 -10.5 -34t-52.5 -13h-158q-47 0 -78.5 10.5t-57.5 36.5q-17 -20 -46 -33.5t-61 -13.5h-86q-84 0 -132.5 37t-48.5 109v62q0 85 48.5 122t132.5 35q41 -1 72 -3t66 -7v45q0 33 -19.5 52t-60.5 19h-135q-41 0 -52.5 13.5t-11.5 33.5v32h199q94 0 138 -41
q30 28 70 41.5t86 13.5q47 0 87 -13t69 -37t45.5 -58.5t16.5 -78.5v-70q0 -35 -17.5 -53.5t-59.5 -18.5h-257v-64q2 -45 28.5 -68.5t64.5 -23.5h221zM237 252q-44 0 -64 -17.5t-20 -60.5v-53q0 -22 8 -36t20.5 -22t27 -11t28.5 -3h67q29 0 49.5 20t20.5 49v124
q-39 5 -73 7.5t-64 2.5zM472 284h218q11 0 14.5 4t3.5 16v43q0 45 -30.5 76.5t-89.5 31.5q-52 0 -83 -30t-33 -74v-67zM533 730l-91 -118q-12 -16 -23.5 -22t-34.5 -6h-41l80 146h110z" />
    <glyph glyph-name="Oslashacute" unicode="&#x1fe;" horiz-adv-x="695" 
d="M347 730q57 0 105 -14l27 65h99l-44 -106q51 -39 76 -105t25 -157v-141q0 -151 -70 -233.5t-218 -82.5q-57 0 -105 14l-29 -72h-98l46 112q-51 39 -76 105.5t-25 157.5v140q0 152 70 234.5t217 82.5zM537 414q0 48 -11 89t-33 72l-217 -525q30 -10 71 -10q96 0 143 59
t47 174v141zM347 646q-47 0 -82.5 -17.5t-59 -49t-35.5 -74t-12 -92.5v-141q0 -108 42 -166l218 527q-34 13 -71 13zM431 930l-91 -118q-12 -16 -23.5 -22t-34.5 -6h-41l80 146h110z" />
    <glyph glyph-name="oslashacute" unicode="&#x1ff;" horiz-adv-x="564" 
d="M283 534q17 0 32.5 -1.5t29.5 -3.5l35 87h96l-47 -119q77 -52 77 -179v-145q0 -112 -56.5 -164.5t-166.5 -52.5q-37 0 -67 6l-36 -91h-95l49 124q-74 52 -74 178v145q0 112 58 164t165 52zM408 318q0 46 -18 81l-143 -360q15 -4 36 -4q60 0 92.5 34.5t32.5 103.5v145z
M283 455q-59 0 -92 -34.5t-33 -102.5v-145q0 -47 15 -78l142 357q-15 3 -32 3zM364 730l-91 -118q-12 -16 -23.5 -22t-34.5 -6h-41l80 146h110z" />
    <glyph glyph-name="uni0200" unicode="&#x200;" horiz-adv-x="656" 
d="M453 235q-9 -18 -32.5 -32t-57.5 -14h-175l-70 -219h-101l250 746h85q17 0 30 -10.5t18 -25.5l240 -710h-100zM214 270h228l-114 352zM401 920l80 -146h-41q-23 0 -34.5 6t-23.5 22l-91 118h110zM251 920l80 -146h-41q-23 0 -34.5 6t-23.5 22l-91 118h110z" />
    <glyph glyph-name="uni0201" unicode="&#x201;" horiz-adv-x="537" 
d="M472 -30h-236q-84 0 -132.5 37t-48.5 109v62q0 85 48.5 122t132.5 35q41 -1 72 -3t66 -7v45q0 33 -19.5 52t-60.5 19h-135q-41 0 -52.5 13.5t-11.5 33.5v32h199q93 0 135.5 -38t42.5 -112v-400zM237 252q-44 0 -64 -17.5t-20 -60.5v-53q0 -22 8 -36t20.5 -22t27 -11
t28.5 -3h137v193q-39 5 -73 7.5t-64 2.5zM361 730l80 -146h-41q-23 0 -34.5 6t-23.5 22l-91 118h110zM211 730l80 -146h-41q-23 0 -34.5 6t-23.5 22l-91 118h110z" />
    <glyph glyph-name="uni0202" unicode="&#x202;" horiz-adv-x="656" 
d="M453 235q-9 -18 -32.5 -32t-57.5 -14h-175l-70 -219h-101l250 746h85q17 0 30 -10.5t18 -25.5l240 -710h-100zM214 270h228l-114 352zM179 762q2 63 40.5 97.5t105.5 34.5q72 0 110 -34.5t40 -97.5h-75q-1 19 -7.5 31.5t-17 20t-23 10.5t-24.5 3q-13 0 -25.5 -3
t-22.5 -10.5t-17 -20t-8 -31.5h-76z" />
    <glyph glyph-name="uni0203" unicode="&#x203;" horiz-adv-x="537" 
d="M472 -30h-236q-84 0 -132.5 37t-48.5 109v62q0 85 48.5 122t132.5 35q41 -1 72 -3t66 -7v45q0 33 -19.5 52t-60.5 19h-135q-41 0 -52.5 13.5t-11.5 33.5v32h199q93 0 135.5 -38t42.5 -112v-400zM237 252q-44 0 -64 -17.5t-20 -60.5v-53q0 -22 8 -36t20.5 -22t27 -11
t28.5 -3h137v193q-39 5 -73 7.5t-64 2.5zM123 569q2 63 40.5 97.5t105.5 34.5q72 0 110 -34.5t40 -97.5h-75q-1 19 -7.5 31.5t-17 20t-23 10.5t-24.5 3q-13 0 -25.5 -3t-22.5 -10.5t-17 -20t-8 -31.5h-76z" />
    <glyph glyph-name="uni0204" unicode="&#x204;" horiz-adv-x="592" 
d="M74 -30v746h462v-25q0 -25 -10 -39.5t-45 -14.5h-309v-232h332v-28q0 -21 -10 -36t-44 -15h-278v-277h376v-28q0 -21 -10 -36t-44 -15h-420zM391 920l80 -146h-41q-23 0 -34.5 6t-23.5 22l-91 118h110zM241 920l80 -146h-41q-23 0 -34.5 6t-23.5 22l-91 118h110z" />
    <glyph glyph-name="uni0205" unicode="&#x205;" horiz-adv-x="543" 
d="M467 49v-32q0 -21 -10.5 -34t-52.5 -13h-158q-43 0 -78.5 12.5t-60.5 35t-38.5 55t-13.5 73.5v191q0 53 17 90.5t46.5 61t68 34.5t82.5 11q47 0 87 -11.5t69 -34t45.5 -55.5t16.5 -76v-80q0 -35 -17.5 -53.5t-59.5 -18.5h-257v-59q0 -47 27.5 -72t65.5 -25h221zM153 284
h218q11 0 14.5 4t3.5 16v53q0 45 -30.5 71.5t-89.5 26.5q-54 0 -85 -26.5t-31 -71.5v-73zM361 730l80 -146h-41q-23 0 -34.5 6t-23.5 22l-91 118h110zM211 730l80 -146h-41q-23 0 -34.5 6t-23.5 22l-91 118h110z" />
    <glyph glyph-name="uni0206" unicode="&#x206;" horiz-adv-x="592" 
d="M74 -30v746h462v-25q0 -25 -10 -39.5t-45 -14.5h-309v-232h332v-28q0 -21 -10 -36t-44 -15h-278v-277h376v-28q0 -21 -10 -36t-44 -15h-420zM159 762q2 63 40.5 97.5t105.5 34.5q72 0 110 -34.5t40 -97.5h-75q-1 19 -7.5 31.5t-17 20t-23 10.5t-24.5 3q-13 0 -25.5 -3
t-22.5 -10.5t-17 -20t-8 -31.5h-76z" />
    <glyph glyph-name="uni0207" unicode="&#x207;" horiz-adv-x="543" 
d="M467 49v-32q0 -21 -10.5 -34t-52.5 -13h-158q-43 0 -78.5 12.5t-60.5 35t-38.5 55t-13.5 73.5v191q0 53 17 90.5t46.5 61t68 34.5t82.5 11q47 0 87 -11.5t69 -34t45.5 -55.5t16.5 -76v-80q0 -35 -17.5 -53.5t-59.5 -18.5h-257v-59q0 -47 27.5 -72t65.5 -25h221zM153 284
h218q11 0 14.5 4t3.5 16v53q0 45 -30.5 71.5t-89.5 26.5q-54 0 -85 -26.5t-31 -71.5v-73zM123 569q2 63 40.5 97.5t105.5 34.5q72 0 110 -34.5t40 -97.5h-75q-1 19 -7.5 31.5t-17 20t-23 10.5t-24.5 3q-13 0 -25.5 -3t-22.5 -10.5t-17 -20t-8 -31.5h-76z" />
    <glyph glyph-name="uni0208" unicode="&#x208;" horiz-adv-x="263" 
d="M183 716v-746h-45q-29 0 -41.5 12.5t-12.5 41.5v692h99zM221 920l80 -146h-41q-23 0 -34.5 6t-23.5 22l-91 118h110zM71 920l80 -146h-41q-23 0 -34.5 6t-23.5 22l-91 118h110z" />
    <glyph glyph-name="uni0209" unicode="&#x209;" horiz-adv-x="239" 
d="M195 730l80 -146h-41q-23 0 -34.5 6t-23.5 22l-91 118h110zM45 730l80 -146h-41q-23 0 -34.5 6t-23.5 22l-91 118h110zM167 520v-550h-43q-29 0 -42 12.5t-13 42.5v495h98z" />
    <glyph glyph-name="uni020A" unicode="&#x20a;" horiz-adv-x="263" 
d="M183 716v-746h-45q-29 0 -41.5 12.5t-12.5 41.5v692h99zM-15 762q2 63 40.5 97.5t105.5 34.5q72 0 110 -34.5t40 -97.5h-75q-1 19 -7.5 31.5t-17 20t-23 10.5t-24.5 3q-13 0 -25.5 -3t-22.5 -10.5t-17 -20t-8 -31.5h-76z" />
    <glyph glyph-name="uni020B" unicode="&#x20b;" horiz-adv-x="239" 
d="M-33 569q2 63 40.5 97.5t105.5 34.5q72 0 110 -34.5t40 -97.5h-75q-1 19 -7.5 31.5t-17 20t-23 10.5t-24.5 3q-13 0 -25.5 -3t-22.5 -10.5t-17 -20t-8 -31.5h-76zM167 520v-550h-43q-29 0 -42 12.5t-13 42.5v495h98z" />
    <glyph glyph-name="uni020C" unicode="&#x20c;" horiz-adv-x="695" 
d="M346 730q148 0 218 -83t70 -234v-141q0 -151 -70 -233.5t-218 -82.5q-147 0 -217 82.5t-70 234.5v140q0 152 70 234.5t217 82.5zM536 414q0 51 -12 93.5t-35.5 73t-59 48t-83.5 17.5q-47 0 -82.5 -17.5t-59 -48t-35.5 -73.5t-12 -94v-141q0 -232 189 -232q190 0 190 233
v141zM441 920l80 -146h-41q-23 0 -34.5 6t-23.5 22l-91 118h110zM291 920l80 -146h-41q-23 0 -34.5 6t-23.5 22l-91 118h110z" />
    <glyph glyph-name="uni020D" unicode="&#x20d;" horiz-adv-x="568" 
d="M283 534q109 0 166 -52t57 -164v-145q0 -112 -56.5 -164.5t-166.5 -52.5q-107 0 -165 52t-58 165v145q0 112 58 164t165 52zM408 318q0 28 -7 53t-22 44t-38.5 29.5t-57.5 10.5q-59 0 -92 -34.5t-33 -102.5v-145q0 -67 32.5 -102.5t92.5 -35.5t92.5 34.5t32.5 103.5v145z
M378 730l80 -146h-41q-23 0 -34.5 6t-23.5 22l-91 118h110zM228 730l80 -146h-41q-23 0 -34.5 6t-23.5 22l-91 118h110z" />
    <glyph glyph-name="uni020E" unicode="&#x20e;" horiz-adv-x="695" 
d="M346 730q148 0 218 -83t70 -234v-141q0 -151 -70 -233.5t-218 -82.5q-147 0 -217 82.5t-70 234.5v140q0 152 70 234.5t217 82.5zM536 414q0 51 -12 93.5t-35.5 73t-59 48t-83.5 17.5q-47 0 -82.5 -17.5t-59 -48t-35.5 -73.5t-12 -94v-141q0 -232 189 -232q190 0 190 233
v141zM202 762q2 63 40.5 97.5t105.5 34.5q72 0 110 -34.5t40 -97.5h-75q-1 19 -7.5 31.5t-17 20t-23 10.5t-24.5 3q-13 0 -25.5 -3t-22.5 -10.5t-17 -20t-8 -31.5h-76z" />
    <glyph glyph-name="uni020F" unicode="&#x20f;" horiz-adv-x="568" 
d="M283 534q109 0 166 -52t57 -164v-145q0 -112 -56.5 -164.5t-166.5 -52.5q-107 0 -165 52t-58 165v145q0 112 58 164t165 52zM408 318q0 28 -7 53t-22 44t-38.5 29.5t-57.5 10.5q-59 0 -92 -34.5t-33 -102.5v-145q0 -67 32.5 -102.5t92.5 -35.5t92.5 34.5t32.5 103.5v145z
M138 569q2 63 40.5 97.5t105.5 34.5q72 0 110 -34.5t40 -97.5h-75q-1 19 -7.5 31.5t-17 20t-23 10.5t-24.5 3q-13 0 -25.5 -3t-22.5 -10.5t-17 -20t-8 -31.5h-76z" />
    <glyph glyph-name="uni0210" unicode="&#x210;" horiz-adv-x="630" 
d="M171 293v-323h-45q-28 0 -40.5 12.5t-12.5 41.5v692h294q53 0 92 -13.5t64.5 -36.5t38 -54t12.5 -67v-75q0 -27 -6.5 -52.5t-21.5 -47t-39.5 -39t-59.5 -27.5l155 -334h-106l-148 323h-177zM171 635v-261h196q109 0 109 105v56q0 47 -26.5 73.5t-82.5 26.5h-196zM401 920
l80 -146h-41q-23 0 -34.5 6t-23.5 22l-91 118h110zM251 920l80 -146h-41q-23 0 -34.5 6t-23.5 22l-91 118h110z" />
    <glyph glyph-name="uni0211" unicode="&#x211;" horiz-adv-x="408" 
d="M165 -30h-44q-28 0 -41 12.5t-13 42.5v358q0 66 33 101.5t111 35.5h178v-21q0 -33 -20 -45.5t-51 -12.5h-107q-27 0 -36.5 -17t-9.5 -41v-413zM305 730l80 -146h-41q-23 0 -34.5 6t-23.5 22l-91 118h110zM155 730l80 -146h-41q-23 0 -34.5 6t-23.5 22l-91 118h110z" />
    <glyph glyph-name="uni0212" unicode="&#x212;" horiz-adv-x="630" 
d="M171 293v-323h-45q-28 0 -40.5 12.5t-12.5 41.5v692h294q53 0 92 -13.5t64.5 -36.5t38 -54t12.5 -67v-75q0 -27 -6.5 -52.5t-21.5 -47t-39.5 -39t-59.5 -27.5l155 -334h-106l-148 323h-177zM171 635v-261h196q109 0 109 105v56q0 47 -26.5 73.5t-82.5 26.5h-196zM159 762
q2 63 40.5 97.5t105.5 34.5q72 0 110 -34.5t40 -97.5h-75q-1 19 -7.5 31.5t-17 20t-23 10.5t-24.5 3q-13 0 -25.5 -3t-22.5 -10.5t-17 -20t-8 -31.5h-76z" />
    <glyph glyph-name="uni0213" unicode="&#x213;" horiz-adv-x="408" 
d="M165 -30h-44q-28 0 -41 12.5t-13 42.5v358q0 66 33 101.5t111 35.5h178v-21q0 -33 -20 -45.5t-51 -12.5h-107q-27 0 -36.5 -17t-9.5 -41v-413zM73 569q2 63 40.5 97.5t105.5 34.5q72 0 110 -34.5t40 -97.5h-75q-1 19 -7.5 31.5t-17 20t-23 10.5t-24.5 3q-13 0 -25.5 -3
t-22.5 -10.5t-17 -20t-8 -31.5h-76z" />
    <glyph glyph-name="uni0214" unicode="&#x214;" horiz-adv-x="676" 
d="M595 -30h-309q-53 0 -92.5 8.5t-65.5 30.5t-39.5 59.5t-13.5 96.5v551h98v-552q0 -33 6 -55.5t19 -35.5t34.5 -18.5t53.5 -5.5h211v667h98v-746zM431 920l80 -146h-41q-23 0 -34.5 6t-23.5 22l-91 118h110zM281 920l80 -146h-41q-23 0 -34.5 6t-23.5 22l-91 118h110z" />
    <glyph glyph-name="uni0215" unicode="&#x215;" horiz-adv-x="555" 
d="M267 -30q-52 0 -90 10t-63 33t-37 61t-12 94v352h97v-352q0 -37 5.5 -60t18 -36t32.5 -18t49 -5h121v471h98v-550h-219zM361 730l80 -146h-41q-23 0 -34.5 6t-23.5 22l-91 118h110zM211 730l80 -146h-41q-23 0 -34.5 6t-23.5 22l-91 118h110z" />
    <glyph glyph-name="uni0216" unicode="&#x216;" horiz-adv-x="676" 
d="M595 -30h-309q-53 0 -92.5 8.5t-65.5 30.5t-39.5 59.5t-13.5 96.5v551h98v-552q0 -33 6 -55.5t19 -35.5t34.5 -18.5t53.5 -5.5h211v667h98v-746zM193 762q2 63 40.5 97.5t105.5 34.5q72 0 110 -34.5t40 -97.5h-75q-1 19 -7.5 31.5t-17 20t-23 10.5t-24.5 3
q-13 0 -25.5 -3t-22.5 -10.5t-17 -20t-8 -31.5h-76z" />
    <glyph glyph-name="uni0217" unicode="&#x217;" horiz-adv-x="555" 
d="M267 -30q-52 0 -90 10t-63 33t-37 61t-12 94v352h97v-352q0 -37 5.5 -60t18 -36t32.5 -18t49 -5h121v471h98v-550h-219zM134 569q2 63 40.5 97.5t105.5 34.5q72 0 110 -34.5t40 -97.5h-75q-1 19 -7.5 31.5t-17 20t-23 10.5t-24.5 3q-13 0 -25.5 -3t-22.5 -10.5t-17 -20
t-8 -31.5h-76z" />
    <glyph glyph-name="Scommaaccent" unicode="&#x218;" horiz-adv-x="569" 
d="M40 -30v31q0 25 12.5 36.5t46.5 11.5h173q75 0 114 28t39 83q0 39 -25.5 68t-88.5 58l-129 58q-72 32 -103 79.5t-31 110.5q0 81 56 131.5t176 50.5h219v-33q0 -29 -14.5 -37.5t-46.5 -8.5h-158q-26 0 -50 -5t-42.5 -16.5t-29.5 -31.5t-11 -50q0 -44 23.5 -69.5
t71.5 -48.5l123 -56q46 -21 76.5 -42.5t49 -45t26 -51t7.5 -60.5q0 -57 -22.5 -94t-58 -58.5t-80 -30t-88.5 -8.5h-235zM217 -193v114h123v-94q0 -52 -26 -85t-67 -48l-27 36q26 14 40 32.5t14 44.5h-57z" />
    <glyph glyph-name="scommaaccent" unicode="&#x219;" horiz-adv-x="466" 
d="M399 520v-33q0 -25 -15.5 -35.5t-47.5 -10.5h-108q-45 0 -63.5 -20t-18.5 -48q0 -23 12.5 -41.5t46.5 -29.5l89 -27q69 -21 100 -60.5t31 -91.5q0 -74 -50.5 -113.5t-138.5 -39.5h-185v29q0 50 60 50h125q41 0 66 18t25 56q0 26 -13 43.5t-43 27.5l-89 30
q-66 22 -100 56.5t-34 92.5q0 26 10.5 52t32 47t55.5 34.5t82 13.5h171zM177 -193v114h123v-94q0 -52 -26 -85t-67 -48l-27 36q26 14 40 32.5t14 44.5h-57z" />
    <glyph glyph-name="uni021A" unicode="&#x21a;" horiz-adv-x="596" 
d="M250 637h-232v79h563v-27q0 -28 -10 -40t-47 -12h-176v-667h-44q-28 0 -41 12.5t-13 41.5v613zM236 -193v114h123v-94q0 -52 -26 -85t-67 -48l-27 36q26 14 40 32.5t14 44.5h-57z" />
    <glyph glyph-name="uni021B" unicode="&#x21b;" horiz-adv-x="357" 
d="M250 -30q-80 0 -113 39t-33 110v322h-90v79h90v180h98v-180h129v-31q0 -21 -12.5 -34.5t-53.5 -13.5h-63v-322q0 -29 9 -49.5t39 -20.5h89v-30q0 -20 -13 -34.5t-51 -14.5h-25zM119 -193v114h123v-94q0 -52 -26 -85t-67 -48l-27 36q26 14 40 32.5t14 44.5h-57z" />
    <glyph glyph-name="uni021C" unicode="&#x21c;" horiz-adv-x="550" 
d="M506 133q0 -57 -14 -99t-43 -74t-74.5 -57t-109.5 -47l-223 -79v88l206 76q42 15 72 32.5t50 40t29.5 51t9.5 67.5q0 27 -9.5 51.5t-25.5 41t-36 23.5t-42 -1l-211 -76v91l211 76q49 17 77 60t28 95q0 78 -34 118t-103 40q-49 0 -95.5 -8t-99.5 -24l-5 80
q57 18 103.5 24.5t94.5 6.5q51 0 94 -12.5t74 -40.5t48.5 -72.5t17.5 -107.5q0 -35 -8.5 -65t-22.5 -54t-32.5 -42.5t-38.5 -28.5q52 -17 82 -62.5t30 -111.5z" />
    <glyph glyph-name="uni021D" unicode="&#x21d;" horiz-adv-x="502" 
d="M466 83q0 -41 -10.5 -73.5t-36 -59t-68 -49.5t-106.5 -45l-213 -79v88l196 76q42 15 69 29.5t43 30.5t22.5 35.5t6.5 45.5q0 42 -29.5 61.5t-73.5 3.5l-191 -74v89l191 76q42 15 68.5 41t26.5 64q0 53 -28.5 82.5t-88.5 29.5q-49 0 -95.5 -7t-99.5 -23l-5 78
q57 18 103.5 24.5t94.5 6.5t87 -12t67.5 -35t44 -58.5t15.5 -81.5q0 -53 -27 -87.5t-65 -52.5q18 -3 36.5 -13t33 -26t23.5 -37.5t9 -47.5z" />
    <glyph glyph-name="uni021E" unicode="&#x21e;" horiz-adv-x="672" 
d="M595 716v-746h-43q-29 0 -42 12.5t-13 41.5v346q-28 -44 -88 -44h-237v-356h-44q-29 0 -41.5 12.5t-12.5 41.5v692h98v-311h325v311h98zM337 838l63 78h98l-113 -135h-97l-114 135h98z" />
    <glyph glyph-name="uni021F" unicode="&#x21f;" horiz-adv-x="568" 
d="M172 441v-471h-44q-29 0 -41.5 12.5t-12.5 42.5v696h98v-201h146q94 0 139 -41t45 -124v-385h-43q-29 0 -42 12.5t-13 42.5v329q0 47 -23 67t-63 20h-146zM286 818l63 78h98l-113 -135h-97l-114 135h98z" />
    <glyph glyph-name="uni0220" unicode="&#x220;" horiz-adv-x="676" 
d="M73 716h309q52 0 92 -8.5t66 -30.5t39.5 -60t13.5 -96v-745h-43q-29 0 -42 12.5t-13 41.5v692q0 33 -6 55.5t-19 35.5t-35 18.5t-53 5.5h-211v-667h-44q-29 0 -41.5 12.5t-12.5 41.5v692z" />
    <glyph glyph-name="uni0221" unicode="&#x221;" horiz-adv-x="697" 
d="M476 721v-735q14 7 31 11.5t33 4.5q57 0 93 -26t38 -77q2 -54 -34.5 -83.5t-93.5 -31.5q-29 -1 -56.5 9.5t-44.5 30.5q-4 -9 -5.5 -23.5t-1.5 -24.5h-88q1 33 10.5 68.5t31.5 58.5q-5 11 -7.5 29t-3.5 38h-107q-100 0 -152.5 43.5t-52.5 132.5v198q0 88 52.5 132
t152.5 44h107v201h98zM378 441h-108q-48 0 -77 -26t-29 -81v-178q0 -54 29.5 -80.5t77.5 -26.5h107v392zM548 -73q-14 0 -29.5 -7t-24.5 -18q17 -34 50 -34q19 0 30.5 8t11.5 21t-9.5 21.5t-28.5 8.5z" />
    <glyph glyph-name="uni0222" unicode="&#x222;" horiz-adv-x="600" 
d="M454 176q0 63 -38.5 102.5t-114.5 39.5q-43 0 -73.5 -11.5t-49.5 -31t-28 -45t-9 -54.5q0 -60 39 -100.5t118 -40.5q41 0 70.5 11.5t48.5 30.5t28 44.5t9 54.5zM551 177q0 -51 -14 -91.5t-44.5 -69.5t-78.5 -44.5t-116 -15.5q-134 0 -194 55.5t-60 165.5q0 68 28.5 114
t73.5 66q-45 15 -68 56.5t-23 96.5q0 79 44.5 123t113.5 44h34v-83h-25q-33 0 -52 -23.5t-19 -68.5q0 -49 34.5 -77.5t114.5 -28.5q145 0 145 127q0 54 -18.5 84.5t-67.5 30.5h-43v78h44q86 0 134 -43.5t48 -143.5q0 -63 -25 -106t-64 -66q48 -22 73 -65.5t25 -114.5z" />
    <glyph glyph-name="uni0223" unicode="&#x223;" horiz-adv-x="531" 
d="M388 176q0 27 -5 54t-18.5 48.5t-36.5 35t-60 13.5q-38 0 -62.5 -13t-38.5 -34.5t-20 -48.5t-6 -55q0 -29 6.5 -54.5t21.5 -45t38.5 -30.5t57.5 -11q35 0 58.5 12t38 32t20.5 45.5t6 51.5zM485 177q0 -111 -52 -166t-168 -55q-108 0 -164.5 54.5t-56.5 166.5
q0 68 26.5 119t77.5 71q-43 19 -68 60.5t-25 116.5q0 37 10.5 70.5t32.5 59.5t56 41.5t80 15.5v-78q-39 0 -61 -32t-22 -85q0 -56 29.5 -93t86.5 -37q49 0 80.5 33.5t31.5 93.5q0 21 -2.5 40.5t-10 36t-23 27.5t-40.5 16v78q48 -3 81.5 -18t53.5 -40.5t29 -59.5t9 -74
q0 -38 -8 -67t-20.5 -50.5t-27.5 -35t-30 -19.5q48 -20 71.5 -69.5t23.5 -120.5z" />
    <glyph glyph-name="uni0224" unicode="&#x224;" horiz-adv-x="632" 
d="M413 49q52 0 87.5 -8t57.5 -25.5t32 -46t10 -68.5v-48h-97v48q0 38 -21.5 53t-68.5 16h-368v84l421 583h-409v79h518v-80l-423 -587h261z" />
    <glyph glyph-name="uni0225" unicode="&#x225;" horiz-adv-x="522" 
d="M298 50v-1q51 0 86.5 -8.5t57 -26t31.5 -45.5t10 -68v-48h-97v48q0 38 -21.5 53t-68.5 16h-247v80l301 391h-288v79h393v-79l-303 -391h146z" />
    <glyph glyph-name="uni0226" unicode="&#x226;" horiz-adv-x="656" 
d="M453 235q-9 -18 -32.5 -32t-57.5 -14h-175l-70 -219h-101l250 746h85q17 0 30 -10.5t18 -25.5l240 -710h-100zM214 270h228l-114 352zM376 795h-104v105h104v-105z" />
    <glyph glyph-name="uni0227" unicode="&#x227;" horiz-adv-x="537" 
d="M472 -30h-236q-84 0 -132.5 37t-48.5 109v62q0 85 48.5 122t132.5 35q41 -1 72 -3t66 -7v45q0 33 -19.5 52t-60.5 19h-135q-41 0 -52.5 13.5t-11.5 33.5v32h199q93 0 135.5 -38t42.5 -112v-400zM237 252q-44 0 -64 -17.5t-20 -60.5v-53q0 -22 8 -36t20.5 -22t27 -11
t28.5 -3h137v193q-39 5 -73 7.5t-64 2.5zM314 595h-104v105h104v-105z" />
    <glyph glyph-name="uni0228" unicode="&#x228;" horiz-adv-x="592" 
d="M255 -109l24 79h-205v746h462v-25q0 -25 -10 -39.5t-45 -14.5h-309v-232h332v-28q0 -21 -10 -36t-44 -15h-278v-277h376v-28q0 -21 -10 -36t-44 -15h-140l-14 -45q42 -5 58 -25.5t16 -46.5q0 -36 -35.5 -64.5t-105.5 -28.5q-20 0 -39 2t-35 5l9 56q15 -2 26.5 -2h19.5
q78 0 78 37q0 7 -2.5 12.5t-10.5 10t-23 7t-41 3.5z" />
    <glyph glyph-name="uni0229" unicode="&#x229;" horiz-adv-x="543" 
d="M225 -109l24 79h-3q-43 0 -78.5 12.5t-60.5 35t-38.5 55t-13.5 73.5v191q0 53 17 90.5t46.5 61t68 34.5t82.5 11q47 0 87 -11.5t69 -34t45.5 -55.5t16.5 -76v-80q0 -35 -17.5 -53.5t-59.5 -18.5h-257v-59q0 -47 27.5 -72t65.5 -25h221v-32q0 -21 -10.5 -34t-52.5 -13h-80
l-14 -45q42 -5 58 -25.5t16 -46.5q0 -36 -35.5 -64.5t-105.5 -28.5q-20 0 -39 2t-35 5l9 56q15 -2 26.5 -2h19.5q78 0 78 37q0 7 -2.5 12.5t-10.5 10t-23 7t-41 3.5zM153 284h218q11 0 14.5 4t3.5 16v53q0 45 -30.5 71.5t-89.5 26.5q-54 0 -85 -26.5t-31 -71.5v-73z" />
    <glyph glyph-name="uni022A" unicode="&#x22a;" horiz-adv-x="695" 
d="M346 730q148 0 218 -83t70 -234v-141q0 -151 -70 -233.5t-218 -82.5q-147 0 -217 82.5t-70 234.5v140q0 152 70 234.5t217 82.5zM536 414q0 51 -12 93.5t-35.5 73t-59 48t-83.5 17.5q-47 0 -82.5 -17.5t-59 -48t-35.5 -73.5t-12 -94v-141q0 -232 189 -232q190 0 190 233
v141zM498 775h-103v95h103v-95zM307 775h-104v95h104v-95zM511 997v-76h-322v76h322z" />
    <glyph glyph-name="uni022B" unicode="&#x22b;" horiz-adv-x="568" 
d="M283 534q109 0 166 -52t57 -164v-145q0 -112 -56.5 -164.5t-166.5 -52.5q-107 0 -165 52t-58 165v145q0 112 58 164t165 52zM408 318q0 28 -7 53t-22 44t-38.5 29.5t-57.5 10.5q-59 0 -92 -34.5t-33 -102.5v-145q0 -67 32.5 -102.5t92.5 -35.5t92.5 34.5t32.5 103.5v145z
M434 595h-103v105h103v-105zM243 595h-104v105h104v-105zM447 836v-76h-322v76h322z" />
    <glyph glyph-name="uni022C" unicode="&#x22c;" horiz-adv-x="695" 
d="M346 730q148 0 218 -83t70 -234v-141q0 -151 -70 -233.5t-218 -82.5q-147 0 -217 82.5t-70 234.5v140q0 152 70 234.5t217 82.5zM536 414q0 51 -12 93.5t-35.5 73t-59 48t-83.5 17.5q-47 0 -82.5 -17.5t-59 -48t-35.5 -73.5t-12 -94v-141q0 -232 189 -232q190 0 190 233
v141zM282 881q26 0 47 -7.5t39 -16.5q14 -7 27.5 -12t26.5 -5q33 0 45 41h77q-8 -47 -36.5 -78t-81.5 -31q-30 0 -51.5 7.5t-41.5 16.5q-14 5 -26.5 11t-23.5 6q-16 0 -27 -9.5t-16 -32.5h-75q5 48 35.5 79t81.5 31zM515 997v-76h-322v76h322z" />
    <glyph glyph-name="uni022D" unicode="&#x22d;" horiz-adv-x="568" 
d="M283 534q109 0 166 -52t57 -164v-145q0 -112 -56.5 -164.5t-166.5 -52.5q-107 0 -165 52t-58 165v145q0 112 58 164t165 52zM408 318q0 28 -7 53t-22 44t-38.5 29.5t-57.5 10.5q-59 0 -92 -34.5t-33 -102.5v-145q0 -67 32.5 -102.5t92.5 -35.5t92.5 34.5t32.5 103.5v145z
M217 701q26 0 47 -8t39 -18q14 -8 27.5 -13.5t26.5 -5.5q33 0 45 45h77q-8 -52 -36.5 -86.5t-81.5 -34.5q-30 0 -51.5 8t-41.5 19q-14 6 -26.5 12.5t-23.5 6.5q-33 0 -43 -47h-75q5 54 35.5 88t81.5 34zM450 834v-76h-322v76h322z" />
    <glyph glyph-name="uni022E" unicode="&#x22e;" horiz-adv-x="695" 
d="M346 730q148 0 218 -83t70 -234v-141q0 -151 -70 -233.5t-218 -82.5q-147 0 -217 82.5t-70 234.5v140q0 152 70 234.5t217 82.5zM536 414q0 51 -12 93.5t-35.5 73t-59 48t-83.5 17.5q-47 0 -82.5 -17.5t-59 -48t-35.5 -73.5t-12 -94v-141q0 -232 189 -232q190 0 190 233
v141zM403 795h-104v105h104v-105z" />
    <glyph glyph-name="uni022F" unicode="&#x22f;" horiz-adv-x="568" 
d="M283 534q109 0 166 -52t57 -164v-145q0 -112 -56.5 -164.5t-166.5 -52.5q-107 0 -165 52t-58 165v145q0 112 58 164t165 52zM408 318q0 28 -7 53t-22 44t-38.5 29.5t-57.5 10.5q-59 0 -92 -34.5t-33 -102.5v-145q0 -67 32.5 -102.5t92.5 -35.5t92.5 34.5t32.5 103.5v145z
M338 595h-104v105h104v-105z" />
    <glyph glyph-name="uni0230" unicode="&#x230;" horiz-adv-x="695" 
d="M346 730q148 0 218 -83t70 -234v-141q0 -151 -70 -233.5t-218 -82.5q-147 0 -217 82.5t-70 234.5v140q0 152 70 234.5t217 82.5zM536 414q0 51 -12 93.5t-35.5 73t-59 48t-83.5 17.5q-47 0 -82.5 -17.5t-59 -48t-35.5 -73.5t-12 -94v-141q0 -232 189 -232q190 0 190 233
v141zM404 775h-104v105h104v-105zM513 994v-76h-322v76h322z" />
    <glyph glyph-name="uni0231" unicode="&#x231;" horiz-adv-x="568" 
d="M283 534q109 0 166 -52t57 -164v-145q0 -112 -56.5 -164.5t-166.5 -52.5q-107 0 -165 52t-58 165v145q0 112 58 164t165 52zM408 318q0 28 -7 53t-22 44t-38.5 29.5t-57.5 10.5q-59 0 -92 -34.5t-33 -102.5v-145q0 -67 32.5 -102.5t92.5 -35.5t92.5 34.5t32.5 103.5v145z
M334 595h-104v105h104v-105zM443 834v-76h-322v76h322z" />
    <glyph glyph-name="uni0232" unicode="&#x232;" horiz-adv-x="664" 
d="M377 -30h-43q-29 0 -42 12t-13 42v242l-263 450h106l208 -360l209 360h107l-269 -450v-296zM498 875v-76h-322v76h322z" />
    <glyph glyph-name="uni0233" unicode="&#x233;" horiz-adv-x="555" 
d="M90 -239v32q0 28 13.5 39.5t47.5 11.5h164q43 0 58 17.5t15 47.5v70q-37 -4 -72.5 -5.5l-80.5 -3.5q-89 -3 -130 44t-41 132v374h98v-373q0 -49 16 -73.5t61 -23.5q39 1 77.5 4t71.5 6v460h98v-612q0 -31 -9.5 -58t-30 -46.5t-53 -31t-78.5 -11.5h-225zM433 675v-76h-322
v76h322z" />
    <glyph glyph-name="uni0234" unicode="&#x234;" horiz-adv-x="399" 
d="M168 721v-736q14 8 36 12.5t38 4.5q60 0 94.5 -26t36.5 -77q2 -54 -34.5 -83.5t-93.5 -31.5q-29 -1 -55.5 9.5t-45.5 30.5q-4 -9 -5.5 -23.5t-1.5 -24.5h-88q1 33 10.5 68.5t31.5 58.5q-9 16 -15 51t-6 66v701h98zM250 -73q-14 0 -29.5 -7t-24.5 -18q17 -34 50 -34
q19 0 30.5 8t11.5 21t-9.5 21.5t-28.5 8.5z" />
    <glyph glyph-name="uni0235" unicode="&#x235;" horiz-adv-x="718" 
d="M309 520q52 0 87.5 -9t57.5 -29.5t31.5 -53.5t9.5 -81v-361q14 7 33.5 11.5t35.5 4.5q60 0 95 -26t37 -77q2 -54 -34.5 -83.5t-93.5 -31.5q-29 -1 -56.5 9.5t-44.5 30.5q-4 -9 -5.5 -23.5t-1.5 -24.5h-88q1 33 10.5 68.5t31.5 58.5q-10 20 -13.5 48t-3.5 57q-1 4 -1 8v9
v322q0 28 -4.5 46t-14.5 28.5t-27 15t-41 4.5h-141v-471h-42q-29 0 -42.5 12.5t-13.5 42.5v495h239zM573 -73q-14 0 -29.5 -7t-24.5 -18q17 -34 50 -34q19 0 30.5 8t11.5 21t-9.5 21.5t-28.5 8.5z" />
    <glyph glyph-name="uni0236" unicode="&#x236;" horiz-adv-x="430" 
d="M104 15v426h-80v79h80v181h98v-181h129v-31q0 -21 -12.5 -34.5t-53.5 -13.5h-63v-455q14 7 35.5 11.5t37.5 4.5q60 0 94.5 -26t36.5 -77q2 -54 -34.5 -83.5t-93.5 -31.5q-29 -1 -56.5 9.5t-44.5 30.5q-4 -9 -5.5 -23.5t-1.5 -24.5h-88q1 33 10.5 68.5t31.5 58.5
q-9 16 -14.5 49.5t-5.5 62.5zM283 -73q-14 0 -29.5 -7t-24.5 -18q17 -34 50 -34q19 0 30.5 8t11.5 21t-9.5 21.5t-28.5 8.5z" />
    <glyph glyph-name="uni0237" unicode="&#x237;" horiz-adv-x="315" 
d="M142 520h98v-601q0 -83 -37.5 -120.5t-116.5 -37.5h-97v31q0 24 15 36.5t39 12.5h43q37 0 46.5 20.5t9.5 57.5v601z" />
    <glyph glyph-name="uni0238" unicode="&#x238;" horiz-adv-x="843" 
d="M466 721v-201h107q100 0 152.5 -44t52.5 -132v-198q0 -89 -52.5 -132.5t-152.5 -43.5h-312q-100 0 -152.5 43.5t-52.5 132.5v198q0 88 52.5 132t152.5 44h107v201h98zM466 49h107q48 0 77.5 26.5t29.5 80.5v178q0 55 -29 81t-77 26h-108v-392zM368 441h-108
q-48 0 -77 -26t-29 -81v-178q0 -54 29.5 -80.5t77.5 -26.5h107v392z" />
    <glyph glyph-name="uni0239" unicode="&#x239;" horiz-adv-x="857" 
d="M432 -224q-10 0 -14 1q-3 0 -5 1q-4 0 -8 2q-2 0 -2.5 0.5t-1.5 0.5l-2 1q-4 2 -5 3t-2 1q-2 2 -3 3.5t-3 3.5q-1 1 -1 2q-2 2 -2 3q-1 1 -1 2t-1 2q-1 2 -1 3t-1 3q-1 3 -1 6t-1 7v179h-112q-97 0 -148.5 43.5t-51.5 139.5v153q0 184 200 184h322q200 0 200 -184v-153
q0 -96 -51.5 -139.5t-148.5 -43.5h-112v-224h-43zM475 79h112q102 0 102 104v153q0 51 -24.5 78t-77.5 27h-112v-362zM377 441h-112q-53 0 -77.5 -27t-24.5 -78v-153q0 -104 102 -104h112v362z" />
    <glyph glyph-name="uni023A" unicode="&#x23a;" horiz-adv-x="649" 
d="M608 771l-132 -316l164 -485h-100l-87 265q-9 -18 -32.5 -32t-56.5 -14l-121 -291h-98l121 291h-78l-70 -219h-101l250 746h85q17 0 30 -10.5t18 -25.5l32 -94l77 185h99zM214 270h86l80 191l-52 161zM442 270l-19 58l-25 -58h44z" />
    <glyph glyph-name="uni023B" unicode="&#x23b;" horiz-adv-x="575" 
d="M498 771l-17 -55h46v-28q0 -21 -11.5 -36t-53.5 -15h-5l-178 -588h258v-29q0 -20 -12 -35t-54 -15h-216l-22 -72h-98l28 94q-47 23 -74.5 67t-27.5 103v365q0 86 58.5 137.5t164.5 51.5h98l17 55h99zM159 514v-345q0 -26 7.5 -49t23.5 -40l168 557h-71q-128 0 -128 -123z
" />
    <glyph glyph-name="uni023C" unicode="&#x23c;" horiz-adv-x="506" 
d="M450 641l-35 -121h46v-27q0 -11 -2 -20t-8 -16.5t-18 -11.5t-33 -4h-7l-113 -392h185v-29q0 -10 -2 -19t-9 -16t-19.5 -11t-33.5 -4h-127h-8.5t-8.5 1l-32 -113h-88l37 132q-48 21 -76 63t-28 101v180q0 42 15 76.5t42 59t64.5 37.5t82.5 13h52l35 121h89zM168 334v-179
q0 -52 31 -80l105 366h-30q-51 0 -78.5 -27t-27.5 -80z" />
    <glyph glyph-name="uni023D" unicode="&#x23d;" horiz-adv-x="571" 
d="M403 382q0 -27 -11 -39t-41 -12h-149v-282h348v-28q0 -27 -11 -39t-41 -12h-394v361h-83v80h83v305h98v-305h201v-29z" />
    <glyph glyph-name="uni023E" unicode="&#x23e;" horiz-adv-x="596" 
d="M568 771l-24 -55h37v-27q0 -28 -10 -40t-47 -12h-14l-173 -404v-263h-44q-47 0 -53 37l-47 -109h-98l144 336v403h-221v79h427l24 55h99zM337 462l74 175h-74v-175z" />
    <glyph glyph-name="uni023F" unicode="&#x23f;" horiz-adv-x="460" 
d="M100 49h125q41 0 66 20t25 58q0 26 -13 41.5t-43 25.5l-89 30q-66 22 -100 56.5t-34 92.5q0 26 10.5 52t32 47t55.5 34.5t82 13.5h171v-33q0 -25 -15.5 -35.5t-47.5 -10.5h-108q-45 0 -63.5 -20t-18.5 -48q0 -23 12.5 -41.5t46.5 -29.5l89 -27q69 -21 100 -58.5t31 -89.5
q0 -66 -41.5 -106.5t-113.5 -48.5q2 -3 3.5 -6.5t3.5 -7.5q6 -14 13 -32t17.5 -34t27 -26.5t43.5 -10.5h17.5t26.5 2l5 -47q1 -13 -5.5 -20t-15.5 -10t-17 -3.5t-11 -0.5q-41 0 -68 8.5t-46.5 26t-33.5 42.5t-27 57q-8 19 -21 37t-36 23h-95v29q0 50 60 50z" />
    <glyph glyph-name="uni0240" unicode="&#x240;" horiz-adv-x="500" 
d="M46 50l301 391h-288v79h393v-79l-303 -391v-2q38 0 67 -10.5t50 -27t35.5 -36t22.5 -37.5q6 -14 14.5 -28.5t21 -26.5t30.5 -19.5t45 -7.5h17.5t26.5 2l5 -47q1 -13 -5.5 -20t-15.5 -10t-17 -3.5t-11 -0.5q-34 0 -61.5 5.5t-49.5 18.5t-40 34.5t-34 54.5l-13 23t-20.5 27
t-29.5 22t-39 9h-102v80z" />
    <glyph glyph-name="uni0241" unicode="&#x241;" horiz-adv-x="552" 
d="M247 -30q-28 0 -41 12.5t-13 41.5v143q0 45 8 75.5t34 47.5l91 62q47 32 62.5 71t15.5 87q0 37 -14 63.5t-37.5 43.5t-53 25.5t-60.5 8.5q-28 0 -49 -2t-41.5 -6t-42.5 -10.5l-52 -15.5l-5 79q30 10 53 17t44 10.5t42.5 5t48.5 1.5q57 0 106 -13t84 -39.5t55 -67.5
t20 -96q0 -142 -97 -212l-86 -61q-20 -15 -24 -32t-4 -45v-194h-44z" />
    <glyph glyph-name="uni0242" unicode="&#x242;" horiz-adv-x="487" 
d="M204 -30q-28 0 -41 12.5t-13 41.5v24q0 45 8 74t34 46l71 42q48 29 63 61.5t15 69.5q0 54 -37.5 84t-100.5 30q-49 0 -90.5 -10.5t-71.5 -23.5l-5 78q31 13 72.5 24t92.5 11q53 0 96.5 -14t75 -38.5t49 -59.5t17.5 -77q0 -61 -23 -105.5t-74 -76.5l-66 -41
q-20 -15 -24 -32t-4 -45v-75h-44z" />
    <glyph glyph-name="uni0243" unicode="&#x243;" horiz-adv-x="671" 
d="M397 716q51 0 88.5 -13t61.5 -36.5t36 -55t12 -68.5v-45q0 -42 -16 -78t-53 -62q46 -20 68 -58.5t22 -81.5v-65q0 -49 -19.5 -84t-50.5 -57t-70 -32t-79 -10h-289v171h-82v80h82v495h289zM205 637v-242h193q30 0 49.5 9.5t30.5 24.5t15.5 33.5t4.5 36.5v39q0 41 -25 70
t-75 29h-193zM368 187q0 -25 -15.5 -35.5t-47.5 -10.5h-100v-92h191q31 0 54 8.5t38 23.5t22.5 35t7.5 42v47q0 22 -6.5 42.5t-21 35.5t-37.5 24t-56 9h-192v-95h163v-34z" />
    <glyph glyph-name="uni0244" unicode="&#x244;" horiz-adv-x="736" 
d="M615 -30h-309q-53 0 -92.5 8.5t-65.5 30.5t-39.5 59.5t-13.5 96.5v166h-69v80h69v305h98v-305h324v305h98v-305h93v-34q0 -25 -15.5 -35.5t-47.5 -10.5h-30v-361zM306 49h211v282h-324v-167q0 -33 6 -55.5t19 -35.5t34.5 -18.5t53.5 -5.5z" />
    <glyph glyph-name="uni0245" unicode="&#x245;" horiz-adv-x="659" 
d="M331 624l-208 -654h-102l249 746h79q23 0 35.5 -9.5t18.5 -27.5l237 -709h-101z" />
    <glyph glyph-name="uni0246" unicode="&#x246;" horiz-adv-x="596" 
d="M526 771l-23 -55h33v-25q0 -25 -10 -39.5t-45 -14.5h-11l-97 -232h131v-28q0 -21 -10 -36t-44 -15h-110l-116 -277h324v-28q0 -21 -10 -36t-44 -15h-303l-30 -72h-98l30 72h-19v746h330l23 55h99zM172 405h102l97 232h-199v-232zM172 159l69 167h-69v-167z" />
    <glyph glyph-name="uni0247" unicode="&#x247;" horiz-adv-x="556" 
d="M426 641l-34 -130q48 -22 76.5 -63.5t28.5 -100.5v-70q0 -35 -17.5 -53.5t-59.5 -18.5h-108l-41 -156h206v-32q0 -21 -10.5 -34t-52.5 -13h-164l-29 -112h-88l33 129q-48 20 -74.5 60.5t-26.5 98.5v181q0 53 17 92t46.5 64.5t68 38t82.5 12.5h15t15 -1l28 108h89z
M163 284h81l44 170q-2 0 -4.5 0.5t-4.5 0.5q-54 0 -85 -31.5t-31 -76.5v-63zM381 284q11 0 14.5 4t3.5 16v43q0 46 -30 76l-37 -139h49zM163 146q0 -23 7 -40.5t19 -30.5l34 130h-60v-59z" />
    <glyph glyph-name="uni0248" unicode="&#x248;" horiz-adv-x="462" 
d="M433 377q0 -25 -15.5 -35.5t-47.5 -10.5h-22v-172q0 -97 -49 -143t-155 -46h-121v31q0 27 13 37.5t45 10.5h63q54 0 79.5 24t25.5 86v172h-128v80h128v305h99v-305h85v-34z" />
    <glyph glyph-name="uni0249" unicode="&#x249;" horiz-adv-x="359" 
d="M333 267q0 -25 -15.5 -35.5t-47.5 -10.5h-30v-302q0 -83 -37.5 -120.5t-116.5 -37.5h-97v31q0 24 15 36.5t39 12.5h43q37 0 46.5 20.5t9.5 57.5v302h-81v80h81v219h98v-219h93v-34zM142 721h98v-125h-31q-28 0 -47.5 16t-19.5 45v64z" />
    <glyph glyph-name="uni024A" unicode="&#x24a;" horiz-adv-x="699" 
d="M585 716v-776q0 -43 21 -64t54 -21h14v-79h-22q-80 0 -122.5 43.5t-42.5 121.5v29h-140q-147 0 -217 75.5t-70 227.5v140q0 152 70 227.5t217 75.5h238zM487 632h-140q-94 0 -141.5 -59.5t-47.5 -159.5v-141q0 -114 47.5 -166t141.5 -52h140v578z" />
    <glyph glyph-name="uni024B" unicode="&#x24b;" horiz-adv-x="594" 
d="M489 534v-594q0 -43 21 -64t54 -21h14v-79h-22q-80 0 -122.5 43.5t-42.5 121.5v15h-105q-107 0 -165 52t-58 165v145q0 112 58 164t165 52h203zM391 455h-105q-59 0 -92 -34.5t-33 -102.5v-145q0 -67 32.5 -102.5t92.5 -35.5h105v420z" />
    <glyph glyph-name="uni024C" unicode="&#x24c;" horiz-adv-x="666" 
d="M382 293h-177v-323h-45q-28 0 -40.5 12.5t-12.5 41.5v269h-89v81h89v342h294q52 0 91 -12.5t64.5 -34.5t38.5 -52t13 -66v-81q0 -24 -6.5 -49t-21.5 -47t-39 -40t-60 -30l76.5 -167l78.5 -167h-106l-77 170.5t-71 152.5zM205 635v-261h196q109 0 109 105v56
q0 47 -26.5 73.5t-82.5 26.5h-196z" />
    <glyph glyph-name="uni024D" unicode="&#x24d;" horiz-adv-x="445" 
d="M203 -30h-44q-28 0 -41 12.5t-13 42.5v169h-89v80h89v109q0 66 33 101.5t111 35.5h178v-21q0 -33 -20 -45.5t-51 -12.5h-107q-27 0 -36.5 -17t-9.5 -41v-109h115v-34q0 -25 -15.5 -35.5t-47.5 -10.5h-52v-224z" />
    <glyph glyph-name="uni024E" unicode="&#x24e;" horiz-adv-x="667" 
d="M645 540q0 -25 -15.5 -35.5t-47.5 -10.5h-70l-136 -228v-296h-43q-29 0 -42 12t-13 42v242l-134 228h-128v80h82l-83 142h106l82 -142h252l83 142h107l-85 -142h85v-34zM329 356l80 138h-160z" />
    <glyph glyph-name="uni024F" unicode="&#x24f;" horiz-adv-x="624" 
d="M600 300q0 -25 -15.5 -35.5t-47.5 -10.5h-19v-346q0 -31 -9.5 -58t-30 -46.5t-53 -31t-78.5 -11.5h-220v32q0 28 13.5 39.5t47.5 11.5h159q43 0 58 17.5t15 47.5v90q-37 -4 -70 -5.5l-78 -3.5q-89 -3 -130 44t-41 132v88h-79v80h79v186h98v-186h221v186h98v-186h82v-34z
M276 70q39 1 75 4l69 6v174h-221v-87q0 -49 16 -73.5t61 -23.5z" />
    <glyph glyph-name="uni0292" unicode="&#x292;" horiz-adv-x="535" 
d="M473 520v-80l-215 -172q60 -2 104 -22t73 -53t43 -77t14 -92q0 -66 -20 -113t-57 -77.5t-91 -44.5t-121 -13q-23 0 -41.5 1t-37 2.5t-40.5 4.5t-51 8v34q0 21 13 32t39 7q29 -4 56.5 -6t62.5 -2q39 0 73.5 9t60.5 28.5t41 50t15 73.5q0 96 -50.5 136t-145.5 42h-31
q-17 0 -23.5 5.5t-6.5 21.5v55l202 162h-296v80h430z" />
    <glyph glyph-name="circumflex" unicode="&#x2c6;" horiz-adv-x="484" 
d="M178 581h-98l114 135h97l113 -135h-98l-63 78z" />
    <glyph glyph-name="caron" unicode="&#x2c7;" horiz-adv-x="484" 
d="M243 638l63 78h98l-113 -135h-97l-114 135h98z" />
    <glyph glyph-name="uni02D0" unicode="&#x2d0;" horiz-adv-x="311" 
d="M245 520l-89 -147l-87 147h176zM245 -30h-176l87 146z" />
    <glyph glyph-name="breve" unicode="&#x2d8;" horiz-adv-x="342" 
d="M99 701q1 -19 8 -31.5t17 -20t22.5 -10.5t25.5 -3q12 0 24.5 3t23 10.5t17 20t7.5 31.5h75q-2 -63 -40 -97.5t-110 -34.5q-67 0 -105.5 34.5t-40.5 97.5h76z" />
    <glyph glyph-name="dotaccent" unicode="&#x2d9;" horiz-adv-x="266" 
d="M183 595h-104v105h104v-105z" />
    <glyph glyph-name="ring" unicode="&#x2da;" horiz-adv-x="301" 
d="M106 656q0 -21 11.5 -32t31.5 -11t32 11t12 32q0 20 -12 32t-32 12t-31.5 -12t-11.5 -32zM45 656q0 45 29.5 72.5t74.5 27.5q46 0 75.5 -27.5t29.5 -72.5t-29.5 -72.5t-75.5 -27.5q-45 0 -74.5 27.5t-29.5 72.5z" />
    <glyph glyph-name="ogonek" unicode="&#x2db;" horiz-adv-x="347" 
d="M208 -24q-11 -7 -21.5 -19t-18.5 -26t-13 -28t-5 -26q0 -21 11 -35t37 -14q11 0 24.5 2t23.5 7v-63q-17 -8 -35.5 -11t-34.5 -3q-51 0 -76 27t-25 65q0 31 15 64.5t44 59.5h74z" />
    <glyph glyph-name="hungarumlaut" unicode="&#x2dd;" horiz-adv-x="441" 
d="M241 730l-91 -118q-12 -16 -23.5 -22t-34.5 -6h-41l80 146h110zM391 730l-91 -118q-12 -16 -23.5 -22t-34.5 -6h-41l80 146h110z" />
    <glyph glyph-name="gravecomb" unicode="&#x300;" horiz-adv-x="333" 
d="M181 730l80 -146h-41q-23 0 -34.5 6t-23.5 22l-91 118h110z" />
    <glyph glyph-name="acutecomb" unicode="&#x301;" horiz-adv-x="333" 
d="M261 730l-91 -118q-12 -16 -23.5 -22t-34.5 -6h-41l80 146h110z" />
    <glyph glyph-name="uni0302" unicode="&#x302;" horiz-adv-x="484" 
d="M178 581h-98l114 135h97l113 -135h-98l-63 78z" />
    <glyph glyph-name="tildecomb" unicode="&#x303;" horiz-adv-x="447" 
d="M150 701q26 0 47 -8t39 -18q14 -8 27.5 -13.5t26.5 -5.5q33 0 45 45h77q-8 -52 -36.5 -86.5t-81.5 -34.5q-30 0 -51.5 8t-41.5 19q-14 6 -26.5 12.5t-23.5 6.5q-33 0 -43 -47h-75q5 54 35.5 88t81.5 34z" />
    <glyph glyph-name="uni0304" unicode="&#x304;" horiz-adv-x="342" 
d="M332 675v-76h-322v76h322z" />
    <glyph glyph-name="uni0306" unicode="&#x306;" horiz-adv-x="342" 
d="M99 701q1 -19 8 -31.5t17 -20t22.5 -10.5t25.5 -3q12 0 24.5 3t23 10.5t17 20t7.5 31.5h75q-2 -63 -40 -97.5t-110 -34.5q-67 0 -105.5 34.5t-40.5 97.5h76z" />
    <glyph glyph-name="uni0307" unicode="&#x307;" horiz-adv-x="266" 
d="M183 595h-104v105h104v-105z" />
    <glyph glyph-name="hookabovecomb" unicode="&#x309;" horiz-adv-x="517" 
d="M274 651q0 31 -77 31q-8 0 -18.5 -1t-26.5 -3l-8 47q10 2 30.5 3.5t39.5 1.5q63 0 100.5 -22t37.5 -54q0 -24 -20 -43.5t-65 -24.5v-25h-65v65q12 0 24.5 1t22.5 3.5t17 7.5t8 13z" />
    <glyph glyph-name="uni030A" unicode="&#x30a;" horiz-adv-x="301" 
d="M106 656q0 -21 11.5 -32t31.5 -11t32 11t12 32q0 20 -12 32t-32 12t-31.5 -12t-11.5 -32zM45 656q0 45 29.5 72.5t74.5 27.5q46 0 75.5 -27.5t29.5 -72.5t-29.5 -72.5t-75.5 -27.5q-45 0 -74.5 27.5t-29.5 72.5z" />
    <glyph glyph-name="uni030B" unicode="&#x30b;" horiz-adv-x="441" 
d="M241 730l-91 -118q-12 -16 -23.5 -22t-34.5 -6h-41l80 146h110zM391 730l-91 -118q-12 -16 -23.5 -22t-34.5 -6h-41l80 146h110z" />
    <glyph glyph-name="uni030C" unicode="&#x30c;" horiz-adv-x="484" 
d="M243 638l63 78h98l-113 -135h-97l-114 135h98z" />
    <glyph glyph-name="uni030F" unicode="&#x30f;" horiz-adv-x="442" 
d="M311 730l80 -146h-41q-23 0 -34.5 6t-23.5 22l-91 118h110zM161 730l80 -146h-41q-23 0 -34.5 6t-23.5 22l-91 118h110z" />
    <glyph glyph-name="uni0311" unicode="&#x311;" horiz-adv-x="342" 
d="M23 569q2 63 40.5 97.5t105.5 34.5q72 0 110 -34.5t40 -97.5h-75q-1 19 -7.5 31.5t-17 20t-23 10.5t-24.5 3q-13 0 -25.5 -3t-22.5 -10.5t-17 -20t-8 -31.5h-76z" />
    <glyph glyph-name="uni0312" unicode="&#x312;" horiz-adv-x="239" 
d="M183 592v-114h-123v90q0 52 24 91t69 57q8 -11 14.5 -19t12.5 -17q-26 -14 -40 -35t-14 -49v-4h57z" />
    <glyph glyph-name="uni0313" unicode="&#x313;" horiz-adv-x="239" 
d="M60 602v114h123v-90q0 -52 -24 -91t-69 -57q-8 11 -14.5 19t-12.5 17q26 14 40 35t14 49v4h-57z" />
    <glyph glyph-name="uni0314" unicode="&#x314;" horiz-adv-x="239" 
d="M126 602v-4q0 -28 14 -49t40 -35q-6 -9 -12.5 -17t-14.5 -19q-45 18 -69 57t-24 91v90h123v-114h-57z" />
    <glyph glyph-name="uni031B" unicode="&#x31b;" horiz-adv-x="239" 
d="M60 420v114h123v-90q0 -37 -13.5 -65.5t-38 -47.5t-59 -28.5t-75.5 -9.5v39q20 1 41.5 6t39 15t28.5 25.5t11 37.5v4h-57z" />
    <glyph glyph-name="dotbelowcomb" unicode="&#x323;" horiz-adv-x="266" 
d="M183 -199h-104v105h104v-105z" />
    <glyph glyph-name="uni0327" unicode="&#x327;" horiz-adv-x="333" 
d="M105 -193v114h123v-94q0 -52 -26 -85t-67 -48l-27 36q26 14 40 32.5t14 44.5h-57z" />
    <glyph glyph-name="uni0328" unicode="&#x328;" horiz-adv-x="347" 
d="M240 -24q-36 -26 -57 -55t-21 -51q0 -42 46 -42q11 0 24.5 2t23.5 7v-63q-17 -8 -35.5 -11t-34.5 -3q-51 0 -76 27t-25 65t21 69.5t50 54.5h84z" />
    <glyph glyph-name="uni0338" unicode="&#x338;" horiz-adv-x="497" 
d="M478 781l-365 -883h-98l364 883h99z" />
    <glyph glyph-name="uni0374" unicode="&#x374;" horiz-adv-x="333" 
d="M264 730l-91 -118q-12 -16 -23.5 -22t-34.5 -6h-41l80 146h110z" />
    <glyph glyph-name="uni0375" unicode="&#x375;" horiz-adv-x="333" 
d="M74 -239l91 118q12 16 23.5 22t34.5 6h41l-80 -146h-110z" />
    <glyph glyph-name="uni037A" unicode="&#x37a;" horiz-adv-x="313" 
d="M272 -220q-16 -8 -38 -13.5t-41 -5.5q-34 0 -59 6t-41.5 21.5t-24.5 42t-8 67.5v66h87v-65q0 -35 11 -50.5t48 -15.5q13 0 26.5 2.5t27.5 8.5z" />
    <glyph glyph-name="uni037B" unicode="&#x37b;" horiz-adv-x="579" 
d="M31 49h272q27 0 46.5 10t33 26.5t20 38t6.5 45.5v345q0 123 -128 123h-175q-42 0 -53.5 15t-11.5 36v28h243q106 0 164.5 -51.5t58.5 -137.5v-365q0 -42 -15 -77.5t-41.5 -61t-63.5 -39.5t-80 -14h-210q-42 0 -54 15t-12 35v29z" />
    <glyph glyph-name="uni037C" unicode="&#x37c;" horiz-adv-x="583" 
d="M545 20q0 -20 -12 -35t-54 -15h-210q-44 0 -80.5 14t-63 39.5t-41.5 61t-15 77.5v365q0 86 58.5 137.5t164.5 51.5h243v-28q0 -21 -11.5 -36t-53.5 -15h-175q-128 0 -128 -123v-345q0 -24 6.5 -45.5t20 -38t33 -26.5t46.5 -10h272v-29zM419 294h-109v114h109v-114z" />
    <glyph glyph-name="uni037D" unicode="&#x37d;" horiz-adv-x="582" 
d="M31 49h272q27 0 46.5 10t33 26.5t20 38t6.5 45.5v345q0 123 -128 123h-175q-42 0 -53.5 15t-11.5 36v28h243q106 0 164.5 -51.5t58.5 -137.5v-365q0 -42 -15 -77.5t-41.5 -61t-63.5 -39.5t-80 -14h-210q-42 0 -54 15t-12 35v29zM261 294h-109v114h109v-114z" />
    <glyph glyph-name="uni037E" unicode="&#x37e;" horiz-adv-x="256" 
d="M199 204l-45 -127.5l-45 -127.5h-30q-14 0 -20 11t-1 37l17.5 103.5l17.5 103.5h106zM195 484h-109v114h109v-114z" />
    <glyph glyph-name="tonos" unicode="&#x384;" horiz-adv-x="333" 
d="M264 730l-91 -118q-12 -16 -23.5 -22t-34.5 -6h-41l80 146h110z" />
    <glyph glyph-name="dieresistonos" unicode="&#x385;" horiz-adv-x="407" 
d="M384 595h-103v105h103v-105zM123 595h-104v105h104v-105zM324 790l-81 -108q-12 -16 -23.5 -22t-34.5 -6h-41l70 136h110z" />
    <glyph glyph-name="Alphatonos" unicode="&#x386;" horiz-adv-x="656" 
d="M453 235q-9 -18 -32.5 -32t-57.5 -14h-175l-70 -219h-101l250 746h85q17 0 30 -10.5t18 -25.5l240 -710h-100zM214 270h228l-114 352zM211 716l-91 -118q-12 -16 -23.5 -22t-34.5 -6h-41l80 146h110z" />
    <glyph glyph-name="anoteleia" unicode="&#x387;" horiz-adv-x="333" 
d="M221 406h-109v114h109v-114z" />
    <glyph glyph-name="Epsilontonos" unicode="&#x388;" horiz-adv-x="710" 
d="M192 -30v746h462v-25q0 -25 -10 -39.5t-45 -14.5h-309v-232h332v-28q0 -21 -10 -36t-44 -15h-278v-277h376v-28q0 -21 -10 -36t-44 -15h-420zM149 716l-91 -118q-12 -16 -23.5 -22t-34.5 -6h-41l80 146h110z" />
    <glyph glyph-name="Etatonos" unicode="&#x389;" horiz-adv-x="778" 
d="M701 716v-746h-43q-29 0 -42 12.5t-13 41.5v346q-28 -44 -88 -44h-237v-356h-44q-29 0 -41.5 12.5t-12.5 41.5v692h98v-311h325v311h98zM145 716l-91 -118q-12 -16 -23.5 -22t-34.5 -6h-41l80 146h110z" />
    <glyph glyph-name="Iotatonos" unicode="&#x38a;" horiz-adv-x="358" 
d="M278 716v-746h-45q-29 0 -41.5 12.5t-12.5 41.5v692h99zM146 717l-91 -118q-12 -16 -23.5 -22t-34.5 -6h-41l80 146h110z" />
    <glyph glyph-name="Omicrontonos" unicode="&#x38c;" horiz-adv-x="742" 
d="M382 730q148 0 218 -83t70 -234v-141q0 -151 -70 -233.5t-218 -82.5q-147 0 -217 82.5t-70 234.5v140q0 152 70 234.5t217 82.5zM572 414q0 49 -12 91.5t-35.5 74t-59 49t-83.5 17.5q-47 0 -82.5 -17.5t-59 -49t-35.5 -74t-12 -92.5v-141q0 -114 47.5 -173t141.5 -59
q96 0 143 59t47 174v141zM126 716l-91 -118q-12 -16 -23.5 -22t-34.5 -6h-41l80 146h110z" />
    <glyph glyph-name="Upsilontonos" unicode="&#x38e;" horiz-adv-x="829" 
d="M536 -30h-43q-29 0 -42 12t-13 42v242l-263 450h106l208 -360l209 360h107l-269 -450v-296zM144 716l-91 -118q-12 -16 -23.5 -22t-34.5 -6h-41l80 146h110z" />
    <glyph glyph-name="Omegatonos" unicode="&#x38f;" horiz-adv-x="707" 
d="M138 716l-91 -118q-12 -16 -23.5 -22t-34.5 -6h-41l80 146h110zM424 49h10q32 10 56 31t40 50t24 65t8 77v141q0 115 -47 174t-143 59q-94 0 -141.5 -59t-47.5 -173v-141q0 -41 8 -77.5t24.5 -65.5t40 -50t55.5 -31h9v-79h-257v79h103q-38 40 -59.5 96t-21.5 128v140
q0 152 70 234.5t217 82.5q148 0 218 -82.5t70 -233.5v-141q0 -75 -21 -130.5t-58 -93.5h47q37 0 47 -12t10 -40v-27h-261v79z" />
    <glyph glyph-name="iotadieresistonos" unicode="&#x390;" horiz-adv-x="378" 
d="M239 128q0 -39 10 -58.5t36 -19.5t36.5 -12.5t10.5 -36.5v-31h-47q-79 0 -111.5 37.5t-32.5 120.5v392h98v-392zM371 595h-103v105h103v-105zM110 595h-104v105h104v-105zM311 790l-81 -108q-12 -16 -23.5 -22t-34.5 -6h-41l70 136h110z" />
    <glyph glyph-name="Alpha" unicode="&#x391;" horiz-adv-x="656" 
d="M453 235q-9 -18 -32.5 -32t-57.5 -14h-175l-70 -219h-101l250 746h85q17 0 30 -10.5t18 -25.5l240 -710h-100zM214 270h228l-114 352z" />
    <glyph glyph-name="Beta" unicode="&#x392;" horiz-adv-x="636" 
d="M362 716q51 0 88.5 -13t61.5 -36.5t36 -55t12 -68.5v-45q0 -42 -16 -78t-53 -62q46 -20 68 -58.5t22 -81.5v-65q0 -49 -19 -84t-49.5 -57t-70 -32t-80.5 -10h-289v746h289zM170 637v-242h193q30 0 49.5 9.5t30.5 24.5t15.5 33.5t4.5 36.5v39q0 41 -25 70t-75 29h-193z
M170 316v-267h191q31 0 54 8.5t38 23.5t22.5 35t7.5 42v47q0 22 -6.5 42.5t-21 35.5t-37.5 24t-56 9h-192z" />
    <glyph glyph-name="Gamma" unicode="&#x393;" horiz-adv-x="568" 
d="M172 -30h-44q-29 0 -41.5 12.5t-12.5 43.5v690h474v-27q0 -22 -11.5 -37t-47.5 -15h-317v-667z" />
    <glyph glyph-name="Delta" unicode="&#x394;" horiz-adv-x="657" 
d="M451 -30h-434l250 746h85q17 0 30 -10.5t18 -25.5l240 -710h-100l-10 30q-13 -13 -33 -21.5t-46 -8.5zM144 51h369l-185 571z" />
    <glyph glyph-name="Epsilon" unicode="&#x395;" horiz-adv-x="592" 
d="M74 -30v746h462v-25q0 -25 -10 -39.5t-45 -14.5h-309v-232h332v-28q0 -21 -10 -36t-44 -15h-278v-277h376v-28q0 -21 -10 -36t-44 -15h-420z" />
    <glyph glyph-name="Zeta" unicode="&#x396;" horiz-adv-x="618" 
d="M563 716v-80l-423 -587h440v-50q0 -17 -8.5 -23t-24.5 -6h-514v84l421 583h-409v79h518z" />
    <glyph glyph-name="Eta" unicode="&#x397;" horiz-adv-x="672" 
d="M595 716v-746h-43q-29 0 -42 12.5t-13 41.5v346q-28 -44 -88 -44h-237v-356h-44q-29 0 -41.5 12.5t-12.5 41.5v692h98v-311h325v311h98z" />
    <glyph glyph-name="Theta" unicode="&#x398;" horiz-adv-x="698" 
d="M347 730q148 0 218 -83t70 -234v-141q0 -151 -70 -233.5t-218 -82.5q-147 0 -217 82.5t-70 234.5v140q0 152 70 234.5t217 82.5zM537 414q0 49 -12 91.5t-35.5 74t-59 49t-83.5 17.5q-47 0 -82.5 -17.5t-59 -49t-35.5 -74t-12 -92.5v-141q0 -114 47.5 -173t141.5 -59
q96 0 143 59t47 174v141zM214 390h268v-79h-268v79z" />
    <glyph glyph-name="Iota" unicode="&#x399;" horiz-adv-x="263" 
d="M183 716v-746h-45q-29 0 -41.5 12.5t-12.5 41.5v692h99z" />
    <glyph glyph-name="Kappa" unicode="&#x39a;" horiz-adv-x="619" 
d="M206 355l276 361h119l-276 -360l290 -386h-118zM172 716v-746h-45q-28 0 -40.5 13t-12.5 42v691h98z" />
    <glyph glyph-name="Lambda" unicode="&#x39b;" horiz-adv-x="659" 
d="M118 -30h-101l250 746h85q17 0 30 -10.5t18 -25.5l240 -710h-100l-212 652z" />
    <glyph glyph-name="Mu" unicode="&#x39c;" horiz-adv-x="884" 
d="M804 -30h-44q-29 0 -41.5 12t-12.5 41v507l-188 -339q-11 -20 -30 -36t-48 -16t-47.5 16t-29.5 35l-188 340v-560h-44q-26 0 -40 12.5t-14 35.5v698h102l249 -463q12 -24 25 0l249 463h102v-746z" />
    <glyph glyph-name="Nu" unicode="&#x39d;" horiz-adv-x="669" 
d="M74 716h309q52 0 92 -8.5t66 -30.5t39.5 -60t13.5 -96v-551h-43q-29 0 -42 12.5t-13 41.5v498q0 33 -6 55.5t-19 35.5t-35 18.5t-53 5.5h-211v-667h-44q-29 0 -41.5 12.5t-12.5 41.5v692z" />
    <glyph glyph-name="Xi" unicode="&#x39e;" horiz-adv-x="602" 
d="M66 637v79h482v-25q0 -25 -10 -39.5t-45 -14.5h-427zM56 49h504v-28q0 -21 -10 -36t-44 -15h-450v79zM94 405h422v-28q0 -21 -10 -36t-44 -15h-368v79z" />
    <glyph glyph-name="Omicron" unicode="&#x39f;" horiz-adv-x="704" 
d="M350 730q148 0 218 -83t70 -234v-141q0 -151 -70 -233.5t-218 -82.5q-147 0 -217 82.5t-70 234.5v140q0 152 70 234.5t217 82.5zM540 414q0 49 -12 91.5t-35.5 74t-59 49t-83.5 17.5q-47 0 -82.5 -17.5t-59 -49t-35.5 -74t-12 -92.5v-141q0 -114 47.5 -173t141.5 -59
q96 0 143 59t47 174v141z" />
    <glyph glyph-name="Pi" unicode="&#x3a0;" horiz-adv-x="731" 
d="M25 637v79h682v-25q0 -25 -10 -39.5t-45 -14.5h-27v-667h-43q-29 0 -42 12.5t-13 41.5v613h-324v-667h-44q-29 0 -41.5 12.5t-12.5 41.5v613h-80z" />
    <glyph glyph-name="Rho" unicode="&#x3a1;" horiz-adv-x="617" 
d="M171 250v-280h-43q-29 0 -42 12.5t-13 41.5v692h272q51 0 90.5 -10t67.5 -32t42.5 -57t14.5 -85v-97q0 -26 -5.5 -58.5t-27.5 -60.5t-64.5 -47t-117.5 -19h-174zM171 635v-304h174q61 0 89 26t28 78v97q0 48 -26 75.5t-91 27.5h-174z" />
    <glyph glyph-name="Sigma" unicode="&#x3a3;" horiz-adv-x="556" 
d="M517 21q0 -21 -10 -36t-44 -15h-408v80l222 297l-222 286v83h453v-28q0 -21 -10 -36t-44 -15h-291l227 -290l-228 -298h355v-28z" />
    <glyph glyph-name="Tau" unicode="&#x3a4;" horiz-adv-x="596" 
d="M250 637h-232v79h563v-27q0 -28 -10 -40t-47 -12h-176v-667h-44q-28 0 -41 12.5t-13 41.5v613z" />
    <glyph glyph-name="Upsilon" unicode="&#x3a5;" horiz-adv-x="664" 
d="M377 -30h-43q-29 0 -42 12t-13 42v242l-263 450h106l208 -360l209 360h107l-269 -450v-296z" />
    <glyph glyph-name="Phi" unicode="&#x3a6;" horiz-adv-x="680" 
d="M386 721v-103q114 -11 176.5 -74.5t62.5 -190.5v-21q0 -127 -62.5 -190.5t-176.5 -73.5v-98h-44q-28 0 -41 12.5t-13 42.5v43q-114 11 -176 74t-62 191v20q0 127 62.5 190t175.5 74v104h98zM527 354q0 154 -141 178v-380q71 9 106 50.5t35 130.5v21zM148 353v-21
q0 -88 35 -129t105 -50v379q-70 -12 -105 -57.5t-35 -121.5z" />
    <glyph glyph-name="Chi" unicode="&#x3a7;" horiz-adv-x="651" 
d="M18 -30l250 374l-246 372h109l191 -288l192 288h110l-245 -372l249 -374h-113l-193 288l-192 -288h-112z" />
    <glyph glyph-name="Psi" unicode="&#x3a8;" horiz-adv-x="757" 
d="M426 721v-419q50 4 83 17t52.5 39.5t27.5 69.5t8 107v181h96v-202q0 -72 -13 -126.5t-44 -91t-82.5 -55.5t-127.5 -20v-251h-44q-28 0 -41 12.5t-13 42.5v196q-80 1 -131.5 21.5t-81.5 57t-41.5 88.5t-11.5 117v211h96v-193q0 -59 6.5 -99.5t25 -66t51.5 -38.5t87 -17
v419h98z" />
    <glyph glyph-name="Omega" unicode="&#x3a9;" horiz-adv-x="692" 
d="M396 49h10q32 10 56 31t40 50t24 65t8 77v141q0 115 -47 174t-143 59q-94 0 -141.5 -59t-47.5 -173v-141q0 -41 8 -77.5t24.5 -65.5t40 -50t55.5 -31h9v-79h-257v79h103q-38 40 -59.5 96t-21.5 128v140q0 152 70 234.5t217 82.5q148 0 218 -82.5t70 -233.5v-141
q0 -75 -21 -130.5t-58 -93.5h47q37 0 47 -12t10 -40v-27h-261v79z" />
    <glyph glyph-name="Iotadieresis" unicode="&#x3aa;" horiz-adv-x="263" 
d="M183 716v-746h-45q-29 0 -41.5 12.5t-12.5 41.5v692h99zM279 795h-103v105h103v-105zM88 795h-104v105h104v-105z" />
    <glyph glyph-name="Upsilondieresis" unicode="&#x3ab;" horiz-adv-x="664" 
d="M377 -30h-43q-29 0 -42 12t-13 42v242l-263 450h106l208 -360l209 360h107l-269 -450v-296zM478 795h-103v105h103v-105zM287 795h-104v105h104v-105z" />
    <glyph glyph-name="alphatonos" unicode="&#x3ac;" horiz-adv-x="598" 
d="M566 520q-9 -12 -20 -38t-20 -62t-15.5 -80t-7.5 -91q2 -44 8.5 -85.5t16.5 -78t22.5 -66t25.5 -49.5h-52q-29 0 -45 8.5t-24 37.5l-10 30q-18 -47 -66.5 -68.5t-111.5 -21.5q-59 0 -100.5 18.5t-67.5 55.5t-37.5 92t-11.5 128q0 75 15.5 128.5t44 88t69 51t89.5 16.5
q30 0 55 -3.5t46 -12.5t39 -25t35 -41q6 35 23 68h100zM283 455q-32 0 -57 -9.5t-42.5 -32.5t-27 -63t-9.5 -100q0 -67 9 -109t25.5 -65.5t41 -32t55.5 -8.5q36 0 61 16t41 44.5t23 69t7 89.5q0 97 -33 149t-94 52zM384 730l-91 -118q-12 -16 -23.5 -22t-34.5 -6h-41l80 146
h110z" />
    <glyph glyph-name="epsilontonos" unicode="&#x3ad;" horiz-adv-x="492" 
d="M278 534q45 0 80 -4t78 -16v-78q-21 5 -38 8.5t-35 6t-38 3.5t-46 1q-60 0 -87.5 -17t-27.5 -54q0 -52 29.5 -70.5t97.5 -18.5h111v-52q0 -16 -1.5 -21.5t-18.5 -5.5h-91q-38 -1 -65.5 -5.5t-45.5 -14.5t-26.5 -26.5t-8.5 -41.5q0 -53 35.5 -72t104.5 -19q25 0 45.5 1
t39.5 2.5t38 4.5t41 6l5 -47q2 -17 -8 -23.5t-29 -11.5q-10 -2 -46.5 -7.5t-84.5 -5.5q-59 -1 -103.5 6t-74.5 26.5t-45.5 53.5t-15.5 87q0 22 7.5 44t22 40t34.5 30t44 16q-37 9 -62.5 40.5t-26.5 82.5q-1 48 18 77.5t49.5 46t68.5 22.5t76 6zM333 730l-91 -118
q-12 -16 -23.5 -22t-34.5 -6h-41l80 146h110z" />
    <glyph glyph-name="etatonos" unicode="&#x3ae;" horiz-adv-x="560" 
d="M314 520q52 0 87 -8.5t56 -28t29.5 -51.5t8.5 -80v-552h-44q-29 0 -42 12.5t-13 42.5v497q0 28 -3.5 45t-13 27t-25.5 13.5t-40 3.5h-146v-471h-42q-29 0 -42.5 12.5t-13.5 42.5v495h244zM359 730l-91 -118q-12 -16 -23.5 -22t-34.5 -6h-41l80 146h110z" />
    <glyph glyph-name="iotatonos" unicode="&#x3af;" horiz-adv-x="298" 
d="M177 128q0 -39 10 -58.5t36 -19.5t36.5 -12.5t10.5 -36.5v-31h-47q-79 0 -111.5 37.5t-32.5 120.5v392h98v-392zM244 730l-91 -118q-12 -16 -23.5 -22t-34.5 -6h-41l80 146h110z" />
    <glyph glyph-name="upsilondieresistonos" unicode="&#x3b0;" horiz-adv-x="555" 
d="M274 -30q-52 0 -91 10t-65 33t-39 61t-13 94v352h97v-352q0 -37 6.5 -60t20 -36t34.5 -18t50 -5q62 0 88.5 26.5t26.5 88.5v356h98v-355q0 -97 -50.5 -146t-162.5 -49zM466 595h-103v105h103v-105zM205 595h-104v105h104v-105zM406 790l-81 -108q-12 -16 -23.5 -22
t-34.5 -6h-41l70 136h110z" />
    <glyph glyph-name="alpha" unicode="&#x3b1;" horiz-adv-x="598" 
d="M566 520q-9 -12 -20 -38t-20 -62t-15.5 -80t-7.5 -91q2 -44 8.5 -85.5t16.5 -78t22.5 -66t25.5 -49.5h-52q-29 0 -45 8.5t-24 37.5l-10 30q-18 -47 -66.5 -68.5t-111.5 -21.5q-59 0 -100.5 18.5t-67.5 55.5t-37.5 92t-11.5 128q0 75 15.5 128.5t44 88t69 51t89.5 16.5
q30 0 55 -3.5t46 -12.5t39 -25t35 -41q6 35 23 68h100zM283 455q-32 0 -57 -9.5t-42.5 -32.5t-27 -63t-9.5 -100q0 -67 9 -109t25.5 -65.5t41 -32t55.5 -8.5q36 0 61 16t41 44.5t23 69t7 89.5q0 97 -33 149t-94 52z" />
    <glyph glyph-name="beta" unicode="&#x3b2;" horiz-adv-x="627" 
d="M170 16v-240h-44q-28 0 -40.5 12.5t-12.5 42.5v660q0 124 63.5 181.5t185.5 57.5q59 0 103 -14t72.5 -39.5t42.5 -60.5t14 -78q0 -69 -35.5 -113.5t-91.5 -53.5q36 -5 65 -22t48.5 -42.5t30 -57.5t10.5 -66q0 -59 -16 -101.5t-46 -70.5t-72.5 -41t-94.5 -13
q-25 0 -52 2.5t-52 9.5t-45.5 18.5t-32.5 28.5zM293 405q90 0 128 32t38 100q0 24 -7.5 45.5t-24 38t-44 26t-66.5 9.5q-43 0 -71 -11.5t-45 -32.5t-24 -50.5t-7 -65.5v-307q0 -42 12.5 -72t35 -48.5t54 -27.5t69.5 -9q39 0 66 11t43.5 30.5t24 46.5t7.5 58q0 73 -44.5 111
t-131.5 38h-13v78z" />
    <glyph glyph-name="gamma" unicode="&#x3b3;" horiz-adv-x="576" 
d="M336 -224h-43q-29 0 -42 12t-13 42v141l-213 549h106l158 -429l159 429h107l-219 -549v-195z" />
    <glyph glyph-name="delta" unicode="&#x3b4;" horiz-adv-x="562" 
d="M126 716h340v-27q0 -22 -11.5 -37t-47.5 -15h-148l165 -138q39 -26 59.5 -70.5t20.5 -110.5v-145q0 -112 -56.5 -164.5t-166.5 -52.5q-107 0 -165 52t-58 165v145q0 104 49.5 155.5t142.5 59.5l-124 107v76zM406 318q0 28 -7 53t-22 44t-38.5 29.5t-57.5 10.5
q-59 0 -92 -34.5t-33 -102.5v-145q0 -67 32.5 -102.5t92.5 -35.5t92.5 34.5t32.5 103.5v145z" />
    <glyph glyph-name="epsilon" unicode="&#x3b5;" horiz-adv-x="492" 
d="M278 534q45 0 80 -4t78 -16v-78q-21 5 -38 8.5t-35 6t-38 3.5t-46 1q-60 0 -87.5 -17t-27.5 -54q0 -52 29.5 -70.5t97.5 -18.5h111v-52q0 -16 -1.5 -21.5t-18.5 -5.5h-91q-38 -1 -65.5 -5.5t-45.5 -14.5t-26.5 -26.5t-8.5 -41.5q0 -53 35.5 -72t104.5 -19q25 0 45.5 1
t39.5 2.5t38 4.5t41 6l5 -47q2 -17 -8 -23.5t-29 -11.5q-10 -2 -46.5 -7.5t-84.5 -5.5q-59 -1 -103.5 6t-74.5 26.5t-45.5 53.5t-15.5 87q0 22 7.5 44t22 40t34.5 30t44 16q-37 9 -62.5 40.5t-26.5 82.5q-1 48 18 77.5t49.5 46t68.5 22.5t76 6z" />
    <glyph glyph-name="zeta" unicode="&#x3b6;" horiz-adv-x="485" 
d="M124 716h319v-67q-65 -52 -119.5 -108t-95 -113t-63 -114t-22.5 -112q0 -59 24 -85.5t83 -30.5q34 -3 68.5 -10t62 -23t45 -42.5t17.5 -68.5q0 -78 -51 -122t-148 -44l6 82q42 5 70 20.5t28 53.5q0 37 -27 51.5t-90 16.5q-54 1 -90 16.5t-57.5 41.5t-30 62t-8.5 79
q0 62 22 120.5t59.5 113.5t86.5 106t104 99h-193v78z" />
    <glyph glyph-name="eta" unicode="&#x3b7;" horiz-adv-x="560" 
d="M314 520q52 0 87 -8.5t56 -28t29.5 -51.5t8.5 -80v-552h-44q-29 0 -42 12.5t-13 42.5v497q0 28 -3.5 45t-13 27t-25.5 13.5t-40 3.5h-146v-471h-42q-29 0 -42.5 12.5t-13.5 42.5v495h244z" />
    <glyph glyph-name="theta" unicode="&#x3b8;" horiz-adv-x="603" 
d="M299 730q68 0 114 -21t73.5 -61.5t39 -99.5t11.5 -135v-141q0 -75 -11 -134t-38.5 -99.5t-73.5 -61.5t-115 -21t-114.5 21t-72.5 61.5t-38.5 99.5t-11.5 135v140q0 76 11.5 135t39.5 99.5t73 61.5t113 21zM299 40q43 0 70.5 15t43 44.5t21 73t5.5 100.5v32h-279v-33
q0 -57 6 -100t22 -72.5t43 -44.5t68 -15zM439 414q0 52 -6 94.5t-22 73t-43 47.5t-69 17q-41 0 -68 -17t-43 -47.5t-22 -73.5t-6 -95v-29h279v30z" />
    <glyph glyph-name="iota" unicode="&#x3b9;" horiz-adv-x="298" 
d="M177 128q0 -39 10 -58.5t36 -19.5t36.5 -12.5t10.5 -36.5v-31h-47q-79 0 -111.5 37.5t-32.5 120.5v392h98v-392z" />
    <glyph glyph-name="kappa" unicode="&#x3ba;" horiz-adv-x="539" 
d="M70 520h98v-550h-43q-29 0 -42 12.5t-13 42.5v495zM401 520h113l-214 -255l226 -295h-109l-227 296z" />
    <glyph glyph-name="lambda" unicode="&#x3bb;" horiz-adv-x="557" 
d="M309 730q46 0 78.5 -11.5t53 -31t30 -46.5t9.5 -58v-613h-43q-29 0 -42 12.5t-13 42.5v386l-69 6t-75 4q-45 1 -61 -23.5t-16 -73.5v-354h-43q-29 0 -42 12.5t-13 42.5v300q0 85 41 132t130 44l78 -3.5t70 -5.5v90q0 30 -15 47.5t-58 17.5h-159q-34 0 -47.5 11.5
t-13.5 39.5v32h220z" />
    <glyph glyph-name="mu" unicode="&#x3bc;" horiz-adv-x="560" 
d="M272 -30q-63 0 -105 15v-209h-43q-29 0 -41.5 12.5t-12.5 42.5v689h97v-366q1 -32 7 -52.5t19 -32t32.5 -16t46.5 -4.5h121v471h98v-550h-219z" />
    <glyph glyph-name="nu" unicode="&#x3bd;" horiz-adv-x="507" 
d="M242 -30q-24 0 -37 10.5t-21 34.5l-169 505h94l149 -462l147 462h91l-182 -550h-72z" />
    <glyph glyph-name="xi" unicode="&#x3be;" horiz-adv-x="462" 
d="M42 178q0 78 25.5 134.5t86.5 89.5q-25 7 -43 22.5t-29.5 35.5t-17 42.5t-5.5 43.5q0 79 42 124.5t137 45.5h132v-27q0 -22 -11.5 -37t-47.5 -15h-65q-29 0 -46.5 -9t-27.5 -23t-13 -30.5t-3 -32.5q0 -17 4.5 -34t15.5 -30t29 -21t46 -8h114v-27q0 -22 -11.5 -37
t-47.5 -15h-46q-28 0 -50.5 -15.5t-38 -41.5t-24 -60t-8.5 -70q0 -35 11 -59t29.5 -39t43 -23.5t51.5 -12.5q79 -12 116.5 -47t37.5 -83q0 -71 -39.5 -107t-113.5 -36h-40v79h32q39 0 53 17.5t14 40.5q0 25 -22.5 39t-64.5 19q-51 7 -89 20t-64 37t-39 60.5t-13 89.5z" />
    <glyph glyph-name="omicron" unicode="&#x3bf;" horiz-adv-x="568" 
d="M283 534q109 0 166 -52t57 -164v-145q0 -112 -56.5 -164.5t-166.5 -52.5q-107 0 -165 52t-58 165v145q0 112 58 164t165 52zM408 318q0 28 -7 53t-22 44t-38.5 29.5t-57.5 10.5q-59 0 -92 -34.5t-33 -102.5v-145q0 -67 32.5 -102.5t92.5 -35.5t92.5 34.5t32.5 103.5v145z
" />
    <glyph glyph-name="pi" unicode="&#x3c0;" horiz-adv-x="589" 
d="M169 -30q-29 0 -42.5 12.5t-13.5 42.5v416h-85v79h513v-27q0 -22 -11.5 -37t-47.5 -15h-26v-319q0 -40 14 -56t44 -16h54v-30q0 -20 -13 -34.5t-51 -14.5q-81 0 -114 36.5t-33 114.5v319h-146v-471h-42z" />
    <glyph glyph-name="rho" unicode="&#x3c1;" horiz-adv-x="585" 
d="M298 534q109 0 166 -52t57 -164v-131q0 -112 -56.5 -164.5t-166.5 -52.5h-125v-194h-43q-29 0 -42 12.5t-13 43.5v486q0 112 58 164t165 52zM423 318q0 28 -7 53t-22 44t-38.5 29.5t-57.5 10.5q-59 0 -92 -34.5t-33 -102.5v-269h125q60 0 92.5 34.5t32.5 103.5v131z" />
    <glyph glyph-name="sigma1" unicode="&#x3c2;" horiz-adv-x="497" 
d="M451 493q0 -22 -11.5 -37t-47.5 -15h-50q-49 0 -87 -15.5t-64.5 -42t-40 -62.5t-13.5 -77q0 -29 5 -52t21 -42t45.5 -35t77.5 -30q42 -12 73 -26t51 -32t29.5 -42t9.5 -57q0 -67 -49.5 -109.5t-140.5 -42.5h-94v29q0 50 60 50h31q48 0 70.5 21.5t22.5 49.5
q0 15 -3.5 26.5t-14 20.5t-28.5 16.5t-47 14.5q-109 26 -161.5 81t-52.5 154q0 64 22.5 116t63.5 89t98.5 56.5t126.5 19.5h98v-27z" />
    <glyph glyph-name="sigma" unicode="&#x3c3;" horiz-adv-x="623" 
d="M286 534h316v-28q0 -21 -10 -36t-44 -15h-74q35 -52 35 -137v-145q0 -112 -56.5 -164.5t-166.5 -52.5q-107 0 -165 52t-58 165v145q0 112 58 164t165 52zM411 318q0 28 -7 53t-22 44t-38.5 29.5t-57.5 10.5q-59 0 -92 -34.5t-33 -102.5v-145q0 -67 32.5 -102.5
t92.5 -35.5t92.5 34.5t32.5 103.5v145z" />
    <glyph glyph-name="tau" unicode="&#x3c4;" horiz-adv-x="498" 
d="M200 441h-182v79h463v-27q0 -28 -10 -40t-47 -12h-126v-471h-44q-28 0 -41 12.5t-13 41.5v417z" />
    <glyph glyph-name="upsilon" unicode="&#x3c5;" horiz-adv-x="551" 
d="M276 -30q-52 0 -91 10t-65 33t-39 61t-13 94v352h97v-352q0 -37 6.5 -60t20 -36t34.5 -18t50 -5q62 0 88.5 26.5t26.5 88.5v356h98v-355q0 -97 -50.5 -146t-162.5 -49z" />
    <glyph glyph-name="phi" unicode="&#x3c6;" horiz-adv-x="649" 
d="M498 257q0 42 -7 77.5t-18 60.5t-26 39t-31 14q-30 0 -38.5 -19t-8.5 -60v-325q62 8 95.5 65t33.5 148zM594 269q0 -139 -57.5 -220t-167.5 -89l-1 -184h-44q-28 0 -40 12.5t-12 41.5v130q-49 4 -89.5 23t-69 54.5t-44 88t-15.5 123.5q0 70 14.5 123t39.5 89t59.5 54
t75.5 19v-86q-21 0 -37.5 -14.5t-28.5 -41t-18.5 -62.5t-6.5 -78q0 -97 31 -145.5t89 -62.5v324q0 166 140 166q42 0 75.5 -19t57 -53.5t36.5 -83.5t13 -109z" />
    <glyph glyph-name="chi" unicode="&#x3c7;" horiz-adv-x="630" 
d="M19 -224l240 371l-236 372h109l181 -288l182 288h110l-235 -372l239 -371h-113l-183 285l-182 -285h-112z" />
    <glyph glyph-name="psi" unicode="&#x3c8;" horiz-adv-x="742" 
d="M418 520v-469q50 4 81.5 17t49 39.5t24 69.5t6.5 107v236h96v-257q0 -72 -11.5 -126t-40.5 -91t-79 -56t-126 -20v-194h-44q-28 0 -41 12.5t-13 42.5v139q-80 2 -130 22t-78 57t-38 88.5t-10 116.5v266h96v-248q0 -59 5 -99.5t21.5 -66t48 -38.5t85.5 -17v469h98z" />
    <glyph glyph-name="omega" unicode="&#x3c9;" horiz-adv-x="844" 
d="M135 520h90q-39 -73 -57 -141.5t-18 -147.5q0 -55 8.5 -92.5t23.5 -60t36 -32t47 -9.5q57 0 83 46t26 136v161h95v-161q0 -41 5.5 -74.5t18.5 -57.5t34 -37t52 -13q25 0 46 9.5t36 32t23.5 59.5t8.5 93q0 156 -74 289h89q38 -48 60 -121.5t22 -162.5q0 -81 -15 -134.5
t-42 -86t-64 -46t-81 -13.5q-58 0 -100.5 21t-65.5 71q-19 -51 -64 -71.5t-105 -20.5q-46 0 -83 15t-63.5 48t-40.5 86.5t-14 130.5q0 89 24 163.5t59 120.5z" />
    <glyph glyph-name="iotadieresis" unicode="&#x3ca;" horiz-adv-x="298" 
d="M177 128q0 -39 10 -58.5t36 -19.5t36.5 -12.5t10.5 -36.5v-31h-47q-79 0 -111.5 37.5t-32.5 120.5v392h98v-392zM275 595h-103v105h103v-105zM84 595h-104v105h104v-105z" />
    <glyph glyph-name="upsilondieresis" unicode="&#x3cb;" horiz-adv-x="551" 
d="M276 -30q-52 0 -91 10t-65 33t-39 61t-13 94v352h97v-352q0 -37 6.5 -60t20 -36t34.5 -18t50 -5q62 0 88.5 26.5t26.5 88.5v356h98v-355q0 -97 -50.5 -146t-162.5 -49zM426 595h-103v105h103v-105zM235 595h-104v105h104v-105z" />
    <glyph glyph-name="omicrontonos" unicode="&#x3cc;" horiz-adv-x="568" 
d="M283 534q109 0 166 -52t57 -164v-145q0 -112 -56.5 -164.5t-166.5 -52.5q-107 0 -165 52t-58 165v145q0 112 58 164t165 52zM408 318q0 28 -7 53t-22 44t-38.5 29.5t-57.5 10.5q-59 0 -92 -34.5t-33 -102.5v-145q0 -67 32.5 -102.5t92.5 -35.5t92.5 34.5t32.5 103.5v145z
M364 730l-91 -118q-12 -16 -23.5 -22t-34.5 -6h-41l80 146h110z" />
    <glyph glyph-name="upsilontonos" unicode="&#x3cd;" horiz-adv-x="551" 
d="M276 -30q-52 0 -91 10t-65 33t-39 61t-13 94v352h97v-352q0 -37 6.5 -60t20 -36t34.5 -18t50 -5q62 0 88.5 26.5t26.5 88.5v356h98v-355q0 -97 -50.5 -146t-162.5 -49zM364 730l-91 -118q-12 -16 -23.5 -22t-34.5 -6h-41l80 146h110z" />
    <glyph glyph-name="omegatonos" unicode="&#x3ce;" horiz-adv-x="844" 
d="M135 520h90q-39 -73 -57 -141.5t-18 -147.5q0 -55 8.5 -92.5t23.5 -60t36 -32t47 -9.5q57 0 83 46t26 136v161h95v-161q0 -41 5.5 -74.5t18.5 -57.5t34 -37t52 -13q25 0 46 9.5t36 32t23.5 59.5t8.5 93q0 156 -74 289h89q38 -48 60 -121.5t22 -162.5q0 -81 -15 -134.5
t-42 -86t-64 -46t-81 -13.5q-58 0 -100.5 21t-65.5 71q-19 -51 -64 -71.5t-105 -20.5q-46 0 -83 15t-63.5 48t-40.5 86.5t-14 130.5q0 89 24 163.5t59 120.5zM508 730l-91 -118q-12 -16 -23.5 -22t-34.5 -6h-41l80 146h110z" />
    <glyph glyph-name="uni03D0" unicode="&#x3d0;" horiz-adv-x="581" 
d="M537 186q0 -108 -54 -169t-173 -61q-48 0 -92 8t-78 32.5t-54 69t-20 117.5v354q0 101 60 147t164 46q61 0 103.5 -15t68 -40t37 -56t11.5 -64q0 -42 -8.5 -73t-23 -52.5t-33.5 -33.5t-39 -15q28 -6 52 -20.5t41.5 -38.5t27.5 -57.5t10 -78.5zM311 34q37 1 62 12.5
t40 31.5t21 47.5t6 60.5q0 31 -6.5 58.5t-22.5 48.5t-41.5 33t-64.5 12h-26v80h23q52 0 81.5 34.5t29.5 92.5q0 48 -33.5 76.5t-91.5 28.5q-57 0 -91 -28.5t-34 -76.5v-367q0 -72 36.5 -109t111.5 -35z" />
    </font>
</defs>
</svg>
